<svg height="508.507" viewBox="0 0 376.227 381.38" width="501.636" xmlns="http://www.w3.org/2000/svg" xmlns:xlink="http://www.w3.org/1999/xlink"><defs><style>*{stroke-linecap:butt;stroke-linejoin:round}</style></defs><g id="figure_1"><path d="M0 381.38h376.227V0H0z" style="fill:none" id="patch_1"/><g id="axes_1"><path d="M11.907 326.435h357.12V60.323H11.907z" style="fill:none" id="patch_2"/><g id="matplotlib.axis_1"><g id="xtick_1"><g id="line2d_1"><defs><path d="M0 0v3.5" id="ma07075b127"/></defs><use style="fill:#969696" x="36.536" xlink:href="#ma07075b127" y="326.435"/></g><g style="fill:#969696" transform="matrix(.16 0 0 -.16 7.2 354.36)" id="text_1"><defs><path d="M-45 0h467l551 1421h2080L3610 0h467L2285 4570h-487L-45 0zm2067 4134 884-2342H1107l915 2342z" id="HelveticaNeue-Light-41" transform="scale(.01563)"/><path d="M3059 3302h-403V1568c0-672-301-1325-992-1325-640 0-864 314-883 909v2150H378V1158C378 390 704-96 1536-96c493 0 928 250 1139 691h13V0h371v3302z" id="HelveticaNeue-Light-75" transform="scale(.01563)"/><path d="M2765 2336c-26 717-551 1062-1210 1062-582 0-1241-256-1241-928 0-563 396-742 921-883l519-115c364-90 723-218 723-602 0-460-525-627-903-627-537 0-940 282-972 826H198C262 262 787-96 1555-96c615 0 1325 275 1325 992 0 576-480 845-941 915l-537 122c-276 70-685 198-685 557 0 428 422 569 781 569 460 0 844-224 864-723h403z" id="HelveticaNeue-Light-73" transform="scale(.01563)"/><path d="M1024 4294H621v-992H45v-339h576V704c-7-563 179-742 717-742 121 0 236 12 358 12v346c-115-13-230-19-346-19-288 19-326 173-326 435v2227h672v339h-672v992z" id="HelveticaNeue-Light-74" transform="scale(.01563)"/><path d="M384 0h403v1760c0 685 499 1222 1229 1184v403c-595 26-1043-288-1248-819h-13v774H384V0z" id="HelveticaNeue-Light-72" transform="scale(.01563)"/><path d="M2496 1280c6-646-538-1037-1152-1037-378 0-736 250-736 653 0 646 851 640 1536 762 109 19 288 51 339 147h13v-525zM749 2291c13 538 384 768 883 768 474 0 864-134 864-678 0-365-186-410-518-448-871-103-1773-135-1773-1063 0-665 499-966 1107-966 634 0 922 243 1203 672h13c0-346 64-576 474-576 108 0 172 6 262 26v339c-32-13-83-26-128-26-160 0-237 90-237 243v1754c0 883-633 1062-1216 1062-755 0-1299-332-1337-1107h403z" id="HelveticaNeue-Light-61" transform="scale(.01563)"/><path d="M390 0h404v4570H390V0z" id="HelveticaNeue-Light-6c" transform="scale(.01563)"/><path d="M390 0h404v3302H390V0zm0 3923h404v647H390v-647z" id="HelveticaNeue-Light-69" transform="scale(.01563)"/></defs><use xlink:href="#HelveticaNeue-Light-41"/><use x="63" xlink:href="#HelveticaNeue-Light-75"/><use x="116.7" xlink:href="#HelveticaNeue-Light-73"/><use x="164.8" xlink:href="#HelveticaNeue-Light-74"/><use x="194.4" xlink:href="#HelveticaNeue-Light-72"/><use x="225.9" xlink:href="#HelveticaNeue-Light-61"/><use x="277.8" xlink:href="#HelveticaNeue-Light-6c"/><use x="296.3" xlink:href="#HelveticaNeue-Light-69"/><use x="314.8" xlink:href="#HelveticaNeue-Light-61"/></g></g><g id="xtick_2"><use style="fill:#969696" x="98.109" xlink:href="#ma07075b127" y="326.435" id="line2d_2"/><g style="fill:#969696" transform="matrix(.16 0 0 -.16 79.436 354.36)" id="text_2"><defs><path d="M896 2195h1498c761 0 1203-301 1203-883 0-730-557-947-1203-941H896v1824zM461 0h1933c1484 0 1638 864 1638 1299 0 595-378 1037-966 1114v13c473 102 793 544 793 1024 0 851-697 1120-1465 1120H461V0zm435 4198h1498c678 0 1030-288 1030-857 0-429-333-775-1030-775H896v1632z" id="HelveticaNeue-Light-42" transform="scale(.01563)"/><path d="M2765 3014v288H243v-339h2010L96 326V0h2758v339H582l2183 2675z" id="HelveticaNeue-Light-7a" transform="scale(.01563)"/></defs><use xlink:href="#HelveticaNeue-Light-42"/><use x="66.7" xlink:href="#HelveticaNeue-Light-72"/><use x="98.2" xlink:href="#HelveticaNeue-Light-61"/><use x="150.1" xlink:href="#HelveticaNeue-Light-7a"/><use x="196.4" xlink:href="#HelveticaNeue-Light-69"/><use x="214.9" xlink:href="#HelveticaNeue-Light-6c"/></g></g><g id="xtick_3"><use style="fill:#969696" x="159.681" xlink:href="#ma07075b127" y="326.435" id="line2d_3"/><g style="fill:#969696" transform="matrix(.16 0 0 -.16 139.824 354.36)" id="text_3"><defs><path d="M4237 3187c-115 960-973 1479-1837 1479-1440 0-2157-1133-2157-2381S960-96 2400-96c1069 0 1779 717 1901 1837h-435c-84-813-621-1466-1466-1466-1210 0-1722 1011-1722 2010 0 998 512 2009 1722 2009 666 0 1248-403 1402-1107h435z" id="HelveticaNeue-Light-43" transform="scale(.01563)"/><path d="M378 0h403v1926c13 647 397 1133 1037 1133 652 0 838-429 838-998V0h403v2125c0 787-281 1273-1209 1273-468 0-909-268-1056-665h-13v1837H378V0z" id="HelveticaNeue-Light-68" transform="scale(.01563)"/><path d="M378 0h403v1926c13 647 397 1133 1037 1133 652 0 838-429 838-998V0h403v2125c0 787-281 1273-1209 1273-468 0-909-268-1056-665h-13v569H378V0z" id="HelveticaNeue-Light-6e" transform="scale(.01563)"/></defs><use xlink:href="#HelveticaNeue-Light-43"/><use x="70.4" xlink:href="#HelveticaNeue-Light-68"/><use x="124.1" xlink:href="#HelveticaNeue-Light-69"/><use x="142.6" xlink:href="#HelveticaNeue-Light-6e"/><use x="196.3" xlink:href="#HelveticaNeue-Light-61"/></g></g><g id="xtick_4"><use style="fill:#969696" x="221.253" xlink:href="#ma07075b127" y="326.435" id="line2d_4"/><g style="fill:#969696" transform="matrix(.16 0 0 -.16 189.837 354.6)" id="text_4"><defs><path d="M4365 2323H2426v-371h1555c19-966-570-1677-1581-1677-1210 0-1722 1011-1722 2010 0 998 512 2009 1722 2009 870 0 1414-620 1472-1145h435c-166 998-947 1517-1907 1517-1440 0-2157-1133-2157-2381S960-96 2400-96c659 0 1274 275 1581 928h13l57-832h314v2323z" id="HelveticaNeue-Light-47" transform="scale(.01563)"/><path d="M3162 1542c32 928-391 1856-1453 1856-1050 0-1491-876-1491-1747C218 710 659-96 1709-96c832 0 1267 435 1440 1184h-403c-128-499-448-845-1037-845-775 0-1082 711-1088 1299h2541zM621 1882c64 601 429 1177 1088 1177 653 0 1030-569 1049-1177H621z" id="HelveticaNeue-Light-65" transform="scale(.01563)"/><path d="M384 0h403v1843c7 691 288 1216 986 1216 512 0 697-371 691-819V0h403v1869c0 614 199 1190 896 1190 576 0 781-294 781-838V0h403v2240c0 781-371 1158-1094 1158-435 0-851-211-1050-646-121 435-512 646-947 646-525 0-870-256-1082-652h-19v556H384V0z" id="HelveticaNeue-Light-6d" transform="scale(.01563)"/><path d="m1331 13-141-378c-134-307-217-518-576-518-89 0-179 13-275 32v-339c64-26 147-26 307-32 506 0 640 160 871 716l1433 3808h-403L1530 486 442 3302H13L1331 13z" id="HelveticaNeue-Light-79" transform="scale(.01563)"/></defs><use xlink:href="#HelveticaNeue-Light-47"/><use x="74.1" xlink:href="#HelveticaNeue-Light-65"/><use x="126" xlink:href="#HelveticaNeue-Light-72"/><use x="157.5" xlink:href="#HelveticaNeue-Light-6d"/><use x="240.8" xlink:href="#HelveticaNeue-Light-61"/><use x="292.7" xlink:href="#HelveticaNeue-Light-6e"/><use x="346.4" xlink:href="#HelveticaNeue-Light-79"/></g></g><g id="xtick_5"><use style="fill:#969696" x="282.826" xlink:href="#ma07075b127" y="326.435" id="line2d_5"/><g style="fill:#969696" transform="matrix(.16 0 0 -.16 258.082 354.36)" id="text_5"><defs><path d="M448 0h435v3949h13L2464 0h410l1561 3949h13V0h435v4570h-640L2669 563 1088 4570H448V0z" id="HelveticaNeue-Light-4d" transform="scale(.01563)"/><path d="M6 0h500l1017 1389L2560 0h512L1786 1722l1190 1580h-506l-921-1254-941 1254H102l1184-1587L6 0z" id="HelveticaNeue-Light-78" transform="scale(.01563)"/><path d="M3117 2266c-90 755-634 1132-1338 1132-1011 0-1561-800-1561-1747S768-96 1779-96c736 0 1255 486 1363 1280h-403c-51-550-461-941-960-941-774 0-1158 704-1158 1408s384 1408 1158 1408c525 0 826-301 935-793h403z" id="HelveticaNeue-Light-63" transform="scale(.01563)"/><path d="M1779 3398c-1011 0-1561-800-1561-1747S768-96 1779-96s1562 800 1562 1747-551 1747-1562 1747zm0-339c775 0 1159-704 1159-1408S2554 243 1779 243c-774 0-1158 704-1158 1408s384 1408 1158 1408z" id="HelveticaNeue-Light-6f" transform="scale(.01563)"/></defs><use xlink:href="#HelveticaNeue-Light-4d"/><use x="83.3" xlink:href="#HelveticaNeue-Light-65"/><use x="135.2" xlink:href="#HelveticaNeue-Light-78"/><use x="183.3" xlink:href="#HelveticaNeue-Light-69"/><use x="201.8" xlink:href="#HelveticaNeue-Light-63"/><use x="253.7" xlink:href="#HelveticaNeue-Light-6f"/></g></g><g id="xtick_6"><use style="fill:#969696" x="344.398" xlink:href="#ma07075b127" y="326.435" id="line2d_6"/><g id="text_6"><g style="fill:#969696" transform="matrix(.16 0 0 -.16 322.03 354.36)"><defs><path d="M416 1645C416 704 922-96 2189-96c1273 0 1779 800 1779 1741v2925h-435V1741c6-1063-499-1466-1344-1466-839 0-1344 403-1338 1466v2829H416V1645z" id="HelveticaNeue-Light-55" transform="scale(.01563)"/><path d="M646 1651c0 685 314 1408 1082 1408 858 0 1158-723 1158-1408S2586 243 1728 243C960 243 646 966 646 1651zm2644 2919h-404V2675h-12c-173 474-653 723-1146 723-1005 0-1485-812-1485-1747C243 717 723-96 1728-96c480 0 1005 294 1178 723h12V0h372v4570z" id="HelveticaNeue-Light-64" transform="scale(.01563)"/></defs><use xlink:href="#HelveticaNeue-Light-55"/><use x="68.5" xlink:href="#HelveticaNeue-Light-6e"/><use x="122.2" xlink:href="#HelveticaNeue-Light-69"/><use x="140.7" xlink:href="#HelveticaNeue-Light-74"/><use x="170.3" xlink:href="#HelveticaNeue-Light-65"/><use x="222.2" xlink:href="#HelveticaNeue-Light-64"/></g><g style="fill:#969696" transform="matrix(.16 0 0 -.16 322.47 371.125)"><defs><path d="M230 1504C179 390 973-96 2054-96c1620 0 1748 992 1748 1306 0 748-538 1030-1184 1203l-1114 275c-371 90-691 269-691 698 0 678 550 908 1145 908 647 0 1223-352 1248-1049h436c6 934-788 1421-1690 1421-1286 0-1574-839-1574-1287 0-710 492-966 1030-1101l1018-249c422-103 940-307 940-826 0-665-729-928-1209-928-832 0-1511 288-1491 1229H230z" id="HelveticaNeue-Light-53" transform="scale(.01563)"/></defs><use xlink:href="#HelveticaNeue-Light-53"/><use x="63" xlink:href="#HelveticaNeue-Light-74"/><use x="92.6" xlink:href="#HelveticaNeue-Light-61"/><use x="144.5" xlink:href="#HelveticaNeue-Light-74"/><use x="174.1" xlink:href="#HelveticaNeue-Light-65"/><use x="226" xlink:href="#HelveticaNeue-Light-73"/></g></g></g></g><path clip-path="url(#p46bc749a20)" d="M11.907 326.435h49.258V91.28H11.907z" style="fill:#1f77b4" id="patch_3"/><path clip-path="url(#p46bc749a20)" d="M73.48 326.435h49.258V60.323H73.48z" style="fill:#1f77b4" id="patch_4"/><path clip-path="url(#p46bc749a20)" d="M135.052 326.435h49.258v-75.489h-49.258z" style="fill:#1f77b4" id="patch_5"/><path clip-path="url(#p46bc749a20)" d="M196.625 326.435h49.257v-91.238h-49.257z" style="fill:#1f77b4" id="patch_6"/><path clip-path="url(#p46bc749a20)" d="M258.197 326.435h49.258V98.34h-49.258z" style="fill:#1f77b4" id="patch_7"/><path clip-path="url(#p46bc749a20)" d="M319.77 326.435h49.257v-92.868H319.77z" style="fill:#1f77b4" id="patch_8"/><g style="fill:#fff" transform="matrix(.14 0 0 -.14 19.024 115.357)" id="text_7"><defs><path d="M237 2758h870q0 180 35 362 36 182 119 332 83 151 220 244 138 93 337 93 294 0 483-183 189-182 189-508 0-205-93-365t-231-288q-137-128-304-234-166-105-313-208-288-198-548-390-259-192-451-420-192-227-304-515T134 0h3290v781H1306q166 230 383 403 218 173 448 323 231 151 458 304 227 154 406 342 180 189 288 432 109 244 109 583 0 326-125 588-124 263-336 442-211 180-489 276t-586 96q-403 0-714-138-310-138-515-384-204-246-307-576-102-330-89-714z" id="HelveticaNeue-Bold-32" transform="scale(.01563)"/><path d="M2509 0v4480h-723q-39-256-161-429-121-173-297-279-176-105-397-147-221-41-457-35v-684h1126V0h909z" id="HelveticaNeue-Bold-31" transform="scale(.01563)"/><path d="M384 986V0h1005v986H384z" id="HelveticaNeue-Bold-2e" transform="scale(.01563)"/><path d="M1830 2323q173 0 304-74 132-73 215-192 83-118 124-269 42-150 42-310 0-153-45-301-44-147-134-262t-215-186q-124-70-291-70-172 0-307 70-134 71-227 189-93 119-141 269-48 151-48 304 0 167 45 317t134 265q90 116 227 183 138 67 317 67zm653 1005h864q-38 301-160 531-121 231-313 387-192 157-442 240-250 84-538 84-480 0-813-212-332-211-544-547-211-336-307-752t-96-832q0-429 77-842 77-412 275-739 199-326 531-528 333-201 839-201 352 0 640 124 288 125 496 346t320 518q112 298 112 644 0 269-83 531t-263 467q-192 211-467 336t-563 125q-326 0-576-115t-435-384l-13 13q6 185 51 422t141 445q96 208 259 352t407 144q236 0 396-167 160-166 205-390z" id="HelveticaNeue-Bold-36" transform="scale(.01563)"/><path d="M3200 3731v749H698L256 2003h819q135 186 288 272 154 87 397 87 186 0 326-64 141-64 243-180 103-115 154-269 51-153 51-326 0-166-54-323t-154-276q-99-118-243-192-144-73-323-73-307 0-506 182-198 183-230 490H115q7-352 144-618 138-265 368-444Q858 90 1155 3q298-86 624-86 339-7 640 111 301 119 528 336 227 218 361 516 135 298 135 643 0 314-93 592-92 279-268 483-176 205-432 326-256 122-589 122-269 0-480-80t-397-265l-13 13 179 1017h1850z" id="HelveticaNeue-Bold-35" transform="scale(.01563)"/></defs><use xlink:href="#HelveticaNeue-Bold-32"/><use x="55.6" xlink:href="#HelveticaNeue-Bold-31"/><use x="111.2" xlink:href="#HelveticaNeue-Bold-2e"/><use x="139" xlink:href="#HelveticaNeue-Bold-36"/><use x="194.6" xlink:href="#HelveticaNeue-Bold-35"/></g><g style="fill:#fff" transform="matrix(.14 0 0 -.14 80.597 84.401)" id="text_8"><defs><path d="M1997 3341V1786H819l1159 1555h19zm0-2304V0h864v1037h595v749h-595v2694h-813L102 1869v-832h1895z" id="HelveticaNeue-Bold-34" transform="scale(.01563)"/><path d="M1043 2259q0 115 3 278 4 164 23 336 19 173 64 343t125 304q80 134 204 217 125 84 311 84 185 0 313-84 128-83 211-217 84-134 125-304 42-170 64-343 23-172 26-336 3-163 3-278 0-192-13-464-12-272-80-525-67-252-218-432-150-179-431-179-275 0-423 179-147 180-214 432-67 253-80 525t-13 464zm-909 0q0-672 131-1123 132-451 356-720t521-384q298-115 631-115 339 0 636 115 298 115 525 384 228 269 359 720t131 1123q0 653-131 1098t-359 713q-227 269-525 384-297 116-636 116-333 0-631-116-297-115-521-384-224-268-356-713-131-445-131-1098z" id="HelveticaNeue-Bold-30" transform="scale(.01563)"/></defs><use xlink:href="#HelveticaNeue-Bold-32"/><use x="55.6" xlink:href="#HelveticaNeue-Bold-34"/><use x="111.2" xlink:href="#HelveticaNeue-Bold-2e"/><use x="139" xlink:href="#HelveticaNeue-Bold-35"/><use x="194.6" xlink:href="#HelveticaNeue-Bold-30"/></g><g style="fill:#fff" transform="matrix(.14 0 0 -.14 146.06 275.024)" id="text_9"><defs><path d="M1728 2157q-173 0-304 73-131 74-215 192-83 119-125 269-41 151-41 311 0 153 45 300 45 148 134 263 90 115 218 185 128 71 288 71 173 0 307-71 135-70 227-189 93-118 141-269 48-150 48-303 0-167-45-317-44-150-134-266-90-115-224-182t-320-67zm-653-1005H211q39-294 160-525 122-230 314-390T1126-3q250-80 538-80 480 0 813 208t544 544q211 336 307 752t96 832q0 422-77 838t-275 745q-198 330-528 532t-842 202q-352 0-640-128t-496-349q-208-221-320-519-112-297-112-643 0-269 83-531 84-262 263-467 192-211 467-336t563-125q327 0 576 115 250 115 436 384l12-13q-12-185-54-422t-138-445q-96-208-256-352t-409-144q-237 0-397 166-160 167-205 391z" id="HelveticaNeue-Bold-39" transform="scale(.01563)"/></defs><use xlink:href="#HelveticaNeue-Bold-36"/><use x="55.6" xlink:href="#HelveticaNeue-Bold-2e"/><use x="83.4" xlink:href="#HelveticaNeue-Bold-39"/><use x="139" xlink:href="#HelveticaNeue-Bold-35"/></g><g style="fill:#fff" transform="matrix(.14 0 0 -.14 207.633 259.275)" id="text_10"><defs><path d="M1101 3264q0 154 54 269 55 115 151 192t220 118q125 42 260 42 211 0 342-64t204-160q74-96 100-202 26-105 26-195 0-288-192-439-192-150-480-150-276 0-481 150-204 151-204 439zm-826 83q0-333 166-583 167-249 493-338v-13q-403-96-624-384-220-288-220-717 0-365 144-628 144-262 384-435Q858 77 1162-3t630-80q314 0 614 86 301 87 538 259 237 173 381 435 144 263 144 621 0 423-218 714-217 291-621 381v13q327 108 490 358t163 582q0 167-77 375-76 208-252 390-176 183-464 311t-704 128q-276 0-545-77-268-77-483-231-214-153-349-384-134-230-134-531zm723-1990q0 345 230 527 231 183 564 183 160 0 297-51 138-51 243-147 106-96 167-228 61-131 61-291 0-166-58-307-57-141-163-240-105-99-243-154-138-54-304-54-160 0-307 54-147 55-253 154t-170 240q-64 141-64 314z" id="HelveticaNeue-Bold-38" transform="scale(.01563)"/></defs><use xlink:href="#HelveticaNeue-Bold-38"/><use x="55.6" xlink:href="#HelveticaNeue-Bold-2e"/><use x="83.4" xlink:href="#HelveticaNeue-Bold-34"/><use x="139" xlink:href="#HelveticaNeue-Bold-30"/></g><g style="fill:#fff" transform="matrix(.14 0 0 -.14 265.314 122.417)" id="text_11"><use xlink:href="#HelveticaNeue-Bold-32"/><use x="55.6" xlink:href="#HelveticaNeue-Bold-31"/><use x="111.2" xlink:href="#HelveticaNeue-Bold-2e"/><use x="139" xlink:href="#HelveticaNeue-Bold-30"/><use x="194.6" xlink:href="#HelveticaNeue-Bold-30"/></g><g style="fill:#fff" transform="matrix(.14 0 0 -.14 330.778 257.646)" id="text_12"><use xlink:href="#HelveticaNeue-Bold-38"/><use x="55.6" xlink:href="#HelveticaNeue-Bold-2e"/><use x="83.4" xlink:href="#HelveticaNeue-Bold-35"/><use x="139" xlink:href="#HelveticaNeue-Bold-35"/></g><g style="fill:#969696" transform="matrix(.18 0 0 -.18 11.907 20.323)" id="text_13"><defs><path d="M1286 0h429l1235 3302h-416L1510 403h-12L461 3302H13L1286 0z" id="HelveticaNeue-Light-76" transform="scale(.01563)"/><path d="M1709 378c-743 0-1088 646-1088 1312 0 684 320 1369 1088 1369 761 0 1062-723 1062-1369 0-672-365-1312-1062-1312zm1465 2924h-403v-569h-13c-160 365-569 665-1049 665-954 0-1491-755-1491-1664C218 794 653 38 1709 38c473 0 864 276 1049 679h13V269c0-807-320-1248-1062-1248-448 0-877 173-967 659H339c58-704 711-998 1370-998 1081 0 1459 601 1465 1587v3033z" id="HelveticaNeue-Light-67" transform="scale(.01563)"/><path d="M3027 1651c0-685-313-1408-1081-1408-858 0-1159 723-1159 1408 0 749 269 1408 1159 1408 768 0 1081-723 1081-1408zM384-1222h403V627h13C973 154 1453-96 1946-96c1004 0 1484 813 1484 1747 0 935-480 1747-1484 1747-532 0-992-275-1178-723h-13v627H384v-4524z" id="HelveticaNeue-Light-70" transform="scale(.01563)"/><path d="M1517-1222v339H890v5209h627v340H486v-5888h1031z" id="HelveticaNeue-Light-5b" transform="scale(.01563)"/><path d="M358 3597c0-512 410-922 922-922s922 410 922 922-410 921-922 921-922-409-922-921zm250 0c0 371 301 672 672 672s672-301 672-672-301-672-672-672-672 301-672 672z" id="HelveticaNeue-Light-b0" transform="scale(.01563)"/><path d="M26 4666v-340h627V-883H26v-339h1030v5888H26z" id="HelveticaNeue-Light-5d" transform="scale(.01563)"/></defs><use xlink:href="#HelveticaNeue-Light-61"/><use x="51.9" xlink:href="#HelveticaNeue-Light-76"/><use x="98.2" xlink:href="#HelveticaNeue-Light-65"/><use x="150.1" xlink:href="#HelveticaNeue-Light-72"/><use x="181.6" xlink:href="#HelveticaNeue-Light-61"/><use x="233.5" xlink:href="#HelveticaNeue-Light-67"/><use x="289.1" xlink:href="#HelveticaNeue-Light-65"/><use x="341" xlink:href="#HelveticaNeue-Light-20"/><use x="368.8" xlink:href="#HelveticaNeue-Light-74"/><use x="398.4" xlink:href="#HelveticaNeue-Light-65"/><use x="450.3" xlink:href="#HelveticaNeue-Light-6d"/><use x="533.6" xlink:href="#HelveticaNeue-Light-70"/><use x="591" xlink:href="#HelveticaNeue-Light-65"/><use x="642.9" xlink:href="#HelveticaNeue-Light-72"/><use x="674.4" xlink:href="#HelveticaNeue-Light-61"/><use x="726.3" xlink:href="#HelveticaNeue-Light-74"/><use x="755.9" xlink:href="#HelveticaNeue-Light-75"/><use x="809.6" xlink:href="#HelveticaNeue-Light-72"/><use x="841.1" xlink:href="#HelveticaNeue-Light-65"/><use x="893" xlink:href="#HelveticaNeue-Light-20"/><use x="920.8" xlink:href="#HelveticaNeue-Light-5b"/><use x="944.9" xlink:href="#HelveticaNeue-Light-b0"/><use x="984.9" xlink:href="#HelveticaNeue-Light-43"/><use x="1055.3" xlink:href="#HelveticaNeue-Light-5d"/></g></g></g><defs><clipPath id="p46bc749a20"><path d="M11.907 60.323h357.12v266.112H11.907z"/></clipPath></defs></svg>