<svg height="423.21" viewBox="0 0 497.474 317.408" width="663.299" xmlns="http://www.w3.org/2000/svg" xmlns:xlink="http://www.w3.org/1999/xlink"><defs><style>*{stroke-linecap:butt;stroke-linejoin:round}</style></defs><g id="figure_1"><path d="M0 317.408h497.474V0H0z" fill="#0d1117" id="patch_1"/><g id="axes_1"><path d="M50.704 273.312h357.12V7.2H50.704z" fill="none" id="patch_2"/><g id="matplotlib.axis_1"><g id="xtick_1"><g id="line2d_1"><defs><path d="M0 0v3.5" id="m057e5649aa" stroke="#71777e" stroke-width=".4"/></defs><use x="66.937" xlink:href="#m057e5649aa" y="273.312" fill="#71777e" stroke="#71777e" stroke-width=".4"/></g><g transform="matrix(.14 0 0 -.14 57.207 290.361)" fill="#71777e" id="text_1"><defs><path d="M42.484 34.188q0 14.109-3.734 21.156-3.734 7.062-10.969 7.062-7.078 0-10.89-7.062-3.797-7.047-3.797-21.157 0-13.671 3.75-20.937Q20.609 6 27.78 6q7.235 0 10.969 7 3.734 7.016 3.734 21.188zm9.422 0q0-17.297-6.25-26.704-6.25-9.39-17.875-9.39-12.062 0-18.062 9.734-6 9.75-6 26.36 0 17.03 6.14 26.578 6.157 9.547 17.922 9.547 11.625 0 17.875-9.5t6.25-26.626z" id="HelveticaWorld-Regular-48"/><path d="M19.094 0H8.687v10.594h10.407z" id="HelveticaWorld-Regular-46"/></defs><use xlink:href="#HelveticaWorld-Regular-48"/><use x="55.615" xlink:href="#HelveticaWorld-Regular-46"/><use x="83.398" xlink:href="#HelveticaWorld-Regular-48"/></g></g><g id="xtick_2"><use x="121.046" xlink:href="#m057e5649aa" y="273.312" fill="#71777e" stroke="#71777e" stroke-width=".4" id="line2d_2"/><g transform="matrix(.14 0 0 -.14 111.316 290.361)" fill="#71777e" id="text_2"><defs><path d="M14.703 40.922q5.813 4.39 13.625 4.39 9.469 0 16.281-6.296 6.813-6.297 6.813-16.22 0-10.78-6.578-17.796-6.563-7-18.422-7-10.313 0-16.266 5.047Q4.203 8.109 3.22 17.39h9.094q.671-5.672 4.437-8.672 3.766-3 10.453-3 6.485 0 10.64 4.484Q42 14.703 42 21.688q0 7.125-4.36 11.421-4.343 4.297-11.218 4.297-7.813 0-13.047-6.687l-7.563.39 5.266 37.594h36.438v-8.5H17.672z" id="HelveticaWorld-Regular-53"/></defs><use xlink:href="#HelveticaWorld-Regular-48"/><use x="55.615" xlink:href="#HelveticaWorld-Regular-46"/><use x="83.398" xlink:href="#HelveticaWorld-Regular-53"/></g></g><g id="xtick_3"><use x="175.155" xlink:href="#m057e5649aa" y="273.312" fill="#71777e" stroke="#71777e" stroke-width=".4" id="line2d_3"/><g transform="matrix(.14 0 0 -.14 165.425 290.361)" fill="#71777e" id="text_3"><defs><path d="M35.89 0h-9.374v49.906H10.109v6.985q8.594.28 12.782 2.75Q27.094 62.109 29 70.313h6.89z" id="HelveticaWorld-Regular-49"/></defs><use xlink:href="#HelveticaWorld-Regular-49"/><use x="55.615" xlink:href="#HelveticaWorld-Regular-46"/><use x="83.398" xlink:href="#HelveticaWorld-Regular-48"/></g></g><g id="xtick_4"><use x="229.264" xlink:href="#m057e5649aa" y="273.312" fill="#71777e" stroke="#71777e" stroke-width=".4" id="line2d_4"/><g transform="matrix(.14 0 0 -.14 219.534 290.361)" fill="#71777e" id="text_4"><use xlink:href="#HelveticaWorld-Regular-49"/><use x="55.615" xlink:href="#HelveticaWorld-Regular-46"/><use x="83.398" xlink:href="#HelveticaWorld-Regular-53"/></g></g><g id="xtick_5"><use x="283.373" xlink:href="#m057e5649aa" y="273.312" fill="#71777e" stroke="#71777e" stroke-width=".4" id="line2d_5"/><g transform="matrix(.14 0 0 -.14 273.643 290.361)" fill="#71777e" id="text_5"><defs><path d="M4.39 45.125q0 12.39 6.391 18.781 6.406 6.407 17.938 6.407 9.656 0 15.812-5.86 6.157-5.86 6.157-15.14 0-7.22-3.547-12.188-3.532-4.953-10.422-8.703l-12.11-6.64Q13.922 15.921 12.5 8.296h38.188V0H2.593q.39 9.906 4.297 16.5 3.906 6.594 12.203 11.375l12.593 7.328q5.032 2.89 7.329 5.984 2.297 3.094 2.297 8.516 0 5.375-3.766 9.031-3.75 3.672-10.156 3.672-7.078 0-10.594-4.672-3.516-4.656-3.61-12.609z" id="HelveticaWorld-Regular-50"/></defs><use xlink:href="#HelveticaWorld-Regular-50"/><use x="55.615" xlink:href="#HelveticaWorld-Regular-46"/><use x="83.398" xlink:href="#HelveticaWorld-Regular-48"/></g></g><g id="xtick_6"><use x="337.482" xlink:href="#m057e5649aa" y="273.312" fill="#71777e" stroke="#71777e" stroke-width=".4" id="line2d_6"/><g transform="matrix(.14 0 0 -.14 327.752 290.361)" fill="#71777e" id="text_6"><use xlink:href="#HelveticaWorld-Regular-50"/><use x="55.615" xlink:href="#HelveticaWorld-Regular-46"/><use x="83.398" xlink:href="#HelveticaWorld-Regular-53"/></g></g><g id="xtick_7"><use x="391.591" xlink:href="#m057e5649aa" y="273.312" fill="#71777e" stroke="#71777e" stroke-width=".4" id="line2d_7"/><g transform="matrix(.14 0 0 -.14 381.861 290.361)" fill="#71777e" id="text_7"><defs><path d="M22.406 39.984q2.203-.187 4.594-.187 6.203 0 9.781 2.86 3.594 2.859 3.594 8.656 0 4.687-3.344 7.89-3.343 3.203-9.64 3.203-6.985 0-10.235-4.11-3.234-4.093-3.437-10.983h-8.64q0 10.984 5.765 16.984 5.765 6.016 16.937 6.016 9.922 0 15.828-5.11 5.907-5.094 5.907-13.39 0-10.704-9.032-14.5v-.204q11.72-4 11.72-16.406 0-9.906-6.595-16.265-6.593-6.344-18.703-6.344-9.906 0-16.312 5.203Q4.204 8.5 3.422 21.484H12.5q.203-8.109 4-11.797Q20.313 6 27.484 6q6.938 0 11.141 3.86 4.203 3.859 4.203 9.718 0 6.406-4.016 9.672-4 3.266-12.39 3.266-2 0-4.016-.094z" id="HelveticaWorld-Regular-51"/></defs><use xlink:href="#HelveticaWorld-Regular-51"/><use x="55.615" xlink:href="#HelveticaWorld-Regular-46"/><use x="83.398" xlink:href="#HelveticaWorld-Regular-48"/></g></g><g transform="matrix(.14 0 0 -.14 209.292 307.31)" fill="#71777e" id="text_8"><defs><path d="M49.031 0H37.703l-12.89 19.672L12.203 0H1.125l18.266 26.906L2 52.296h11.188l12.109-18.405L37.5 52.297h10.688l-17.579-25.39z" id="HelveticaWorld-Regular-120"/><path d="M15.375 0H6.594v71.781h8.781z" id="HelveticaWorld-Regular-108"/><path d="M38.375 26.703q-.969-1.015-3.828-1.656-2.86-.625-10.672-1.656-5.766-.688-8.469-2.844-2.703-2.14-2.703-5.656 0-4.297 2.281-6.688 2.297-2.39 7.329-2.39 6.296 0 11.171 3.578 4.891 3.593 4.891 8.718zM6.203 36.375q.297 8.844 5.734 13.14 5.454 4.297 15.844 4.297 8.297 0 13.907-3.765 5.624-3.75 5.624-10.844V9.078Q47.313 6 50.094 6q1.125 0 2.89.39V0Q50.594-.984 48-.984q-4.5 0-6.703 1.921-2.188 1.938-2.281 6.047-7.516-8.5-18.891-8.5-7.422 0-11.922 4.204Q3.72 6.89 3.72 13.624q0 6.89 3.906 11.125Q11.531 29 19 29.89l15.516 1.891q4.203.64 4.203 6.203 0 4.11-3.047 6.297-3.047 2.203-9.25 2.203-5.516 0-8.485-2.437-2.953-2.438-3.53-7.672z" id="HelveticaWorld-Regular-97"/><path d="M43.406 26.313q0 10.5-3.718 15.046-3.704 4.547-10.579 4.547-6.984-.11-10.562-5.453Q14.984 35.11 14.984 25q0-10.297 4.297-14.594Q23.578 6.11 29.297 6.11q6.5 0 10.297 5.344 3.812 5.344 3.812 14.86zM6.594 0v71.781h8.781V45.703h.203q5.61 8.11 15.14 8.11 9.766 0 15.766-7.25t6-18.876q0-13.093-6.062-21.156Q40.375-1.516 29.5-1.516q-9.578 0-14.406 8.016h-.203V0z" id="HelveticaWorld-Regular-98"/><path d="M42.484 30.328q-.687 8.485-4.5 12.031-3.797 3.547-10.109 3.547-6.39 0-10.328-4.5-3.922-4.484-4.172-11.078zm8.391-13.922q-1.453-8.11-7.953-13.422-5.719-4.5-15.047-4.593-10.984.093-17.438 7.203Q4 12.704 4 24.704q0 13.78 6.64 21.437 6.641 7.672 18.47 7.672 10.593 0 16.546-7.922 5.953-7.907 5.953-22.594H13.375q0-8.203 3.813-12.703Q21 6.109 28.608 6.109q5.375 0 9.235 3.235 3.86 3.25 4.25 7.062z" id="HelveticaWorld-Regular-101"/></defs><use xlink:href="#HelveticaWorld-Regular-120"/><use x="50" xlink:href="#HelveticaWorld-Regular-32"/><use x="74.414" xlink:href="#HelveticaWorld-Regular-108"/><use x="96.436" xlink:href="#HelveticaWorld-Regular-97"/><use x="151.367" xlink:href="#HelveticaWorld-Regular-98"/><use x="207.861" xlink:href="#HelveticaWorld-Regular-101"/><use x="263.281" xlink:href="#HelveticaWorld-Regular-108"/></g></g><g id="matplotlib.axis_2"><g id="ytick_1"><path clip-path="url(#p1b62f09333)" d="M50.704 267.18h357.12" fill="none" stroke="#71777e" stroke-linecap="square" stroke-width=".3" id="line2d_8"/><g id="line2d_9"><defs><path d="M0 0h-3.5" id="maab8e22ba4" stroke="#71777e" stroke-width=".3"/></defs><use x="50.704" xlink:href="#maab8e22ba4" y="267.179" fill="#71777e" stroke="#71777e" stroke-width=".3"/></g><g transform="matrix(.14 0 0 -.14 24.244 272.204)" fill="#71777e" id="text_9"><use xlink:href="#HelveticaWorld-Regular-48"/><use x="55.615" xlink:href="#HelveticaWorld-Regular-46"/><use x="83.398" xlink:href="#HelveticaWorld-Regular-48"/></g></g><g id="ytick_2"><path clip-path="url(#p1b62f09333)" d="M50.704 228.928h357.12" fill="none" stroke="#71777e" stroke-linecap="square" stroke-width=".3" id="line2d_10"/><use x="50.704" xlink:href="#maab8e22ba4" y="228.928" fill="#71777e" stroke="#71777e" stroke-width=".3" id="line2d_11"/><g transform="matrix(.14 0 0 -.14 24.244 233.953)" fill="#71777e" id="text_10"><use xlink:href="#HelveticaWorld-Regular-48"/><use x="55.615" xlink:href="#HelveticaWorld-Regular-46"/><use x="83.398" xlink:href="#HelveticaWorld-Regular-50"/></g></g><g id="ytick_3"><path clip-path="url(#p1b62f09333)" d="M50.704 190.677h357.12" fill="none" stroke="#71777e" stroke-linecap="square" stroke-width=".3" id="line2d_12"/><use x="50.704" xlink:href="#maab8e22ba4" y="190.677" fill="#71777e" stroke="#71777e" stroke-width=".3" id="line2d_13"/><g transform="matrix(.14 0 0 -.14 24.244 195.702)" fill="#71777e" id="text_11"><defs><path d="M10.594 24.703h22.61v31.89h-.188zM42 17.093V0h-8.797v17.094H2.484v8.593L34.72 70.314H42v-45.61h10.297v-7.61z" id="HelveticaWorld-Regular-52"/></defs><use xlink:href="#HelveticaWorld-Regular-48"/><use x="55.615" xlink:href="#HelveticaWorld-Regular-46"/><use x="83.398" xlink:href="#HelveticaWorld-Regular-52"/></g></g><g id="ytick_4"><path clip-path="url(#p1b62f09333)" d="M50.704 152.426h357.12" fill="none" stroke="#71777e" stroke-linecap="square" stroke-width=".3" id="line2d_14"/><use x="50.704" xlink:href="#maab8e22ba4" y="152.426" fill="#71777e" stroke="#71777e" stroke-width=".3" id="line2d_15"/><g transform="matrix(.14 0 0 -.14 24.244 157.45)" fill="#71777e" id="text_12"><defs><path d="M14.11 21.578q0-6.875 4.093-11.234Q22.313 6 28.906 6q6.297 0 10.032 4.438 3.734 4.453 3.734 11.687 0 6.297-3.688 10.547-3.687 4.25-10.468 4.25-6.594 0-10.5-4.156-3.907-4.157-3.907-11.188zM41.702 51.61q-.984 5.375-3.984 8.078-3 2.72-8.125 2.72-8.11 0-12.36-7.923-4.25-7.906-4.343-18.109l.203-.188q5.61 8.641 16.687 8.641 8.844 0 15.438-5.86 6.593-5.859 6.593-16.452 0-10.5-6.25-17.47-6.25-6.952-16.843-6.952-12.219 0-18.563 8.687-6.344 8.703-6.344 25.938 0 16.593 6.485 27.093 6.5 10.5 19.484 10.5 8.407 0 14.219-5.015 5.813-5 6.297-13.688z" id="HelveticaWorld-Regular-54"/></defs><use xlink:href="#HelveticaWorld-Regular-48"/><use x="55.615" xlink:href="#HelveticaWorld-Regular-46"/><use x="83.398" xlink:href="#HelveticaWorld-Regular-54"/></g></g><g id="ytick_5"><path clip-path="url(#p1b62f09333)" d="M50.704 114.175h357.12" fill="none" stroke="#71777e" stroke-linecap="square" stroke-width=".3" id="line2d_16"/><use x="50.704" xlink:href="#maab8e22ba4" y="114.175" fill="#71777e" stroke="#71777e" stroke-width=".3" id="line2d_17"/><g transform="matrix(.14 0 0 -.14 24.244 119.2)" fill="#71777e" id="text_13"><defs><path d="M27.594 40.578q5.422 0 8.953 3.094 3.547 3.11 3.547 8.234 0 4.594-3.407 7.547-3.39 2.953-9.687 2.953-5.61 0-8.672-3.11-3.047-3.093-3.047-7.874 0-5.125 3.813-7.984 3.812-2.86 8.5-2.86zm.093-7.562q-6.78 0-10.64-3.766-3.86-3.766-3.86-9.234 0-6.297 3.907-10.157Q21 6 28.219 6q6.406 0 10.234 3.86 3.828 3.859 3.828 10.265 0 5.469-3.828 9.172-3.828 3.719-10.766 3.719zM49.22 52.203q0-10.594-9.032-14.797 6.204-2.781 8.86-7.36 2.656-4.562 2.656-9.733 0-10.016-6.453-16.125-6.438-6.094-17.375-6.094-9.563 0-16.813 5.25-7.25 5.25-7.25 17.062 0 11.922 11.907 16.907-9.516 3.796-9.516 13.671 0 8.297 5.64 13.813 5.641 5.516 15.641 5.516 10.016 0 15.875-5.204 5.86-5.203 5.86-12.906z" id="HelveticaWorld-Regular-56"/></defs><use xlink:href="#HelveticaWorld-Regular-48"/><use x="55.615" xlink:href="#HelveticaWorld-Regular-46"/><use x="83.398" xlink:href="#HelveticaWorld-Regular-56"/></g></g><g id="ytick_6"><path clip-path="url(#p1b62f09333)" d="M50.704 75.924h357.12" fill="none" stroke="#71777e" stroke-linecap="square" stroke-width=".3" id="line2d_18"/><use x="50.704" xlink:href="#maab8e22ba4" y="75.924" fill="#71777e" stroke="#71777e" stroke-width=".3" id="line2d_19"/><g transform="matrix(.14 0 0 -.14 24.244 80.948)" fill="#71777e" id="text_14"><use xlink:href="#HelveticaWorld-Regular-49"/><use x="55.615" xlink:href="#HelveticaWorld-Regular-46"/><use x="83.398" xlink:href="#HelveticaWorld-Regular-48"/></g></g><g id="ytick_7"><path clip-path="url(#p1b62f09333)" d="M50.704 37.673h357.12" fill="none" stroke="#71777e" stroke-linecap="square" stroke-width=".3" id="line2d_20"/><use x="50.704" xlink:href="#maab8e22ba4" y="37.673" fill="#71777e" stroke="#71777e" stroke-width=".3" id="line2d_21"/><g transform="matrix(.14 0 0 -.14 24.244 42.697)" fill="#71777e" id="text_15"><use xlink:href="#HelveticaWorld-Regular-49"/><use x="55.615" xlink:href="#HelveticaWorld-Regular-46"/><use x="83.398" xlink:href="#HelveticaWorld-Regular-50"/></g></g><g transform="matrix(0 -.14 -.14 0 17.25 160.2)" fill="#71777e" id="text_16"><defs><path d="M39.016 52.297h9.562L29.891.984q-.5-1.375-.985-2.593-4.25-11.329-7.328-15.547-3.078-4.235-9.953-4.235-3.61 0-5.906.782v8.015q2.484-.89 5.468-.89 3.22 0 4.704 2.03 1.5 2.032 4.421 9.938L.875 52.297h9.922L24.812 9.719H25z" id="HelveticaWorld-Regular-121"/></defs><use xlink:href="#HelveticaWorld-Regular-121"/><use x="49.609" xlink:href="#HelveticaWorld-Regular-32"/><use x="74.023" xlink:href="#HelveticaWorld-Regular-108"/><use x="96.045" xlink:href="#HelveticaWorld-Regular-97"/><use x="150.977" xlink:href="#HelveticaWorld-Regular-98"/><use x="207.471" xlink:href="#HelveticaWorld-Regular-101"/><use x="262.891" xlink:href="#HelveticaWorld-Regular-108"/></g></g><path clip-path="url(#p1b62f09333)" d="M66.937 256.683l3.28-8.807 3.278-3.154 3.28-3.902 3.28-2.42 3.278-8.739 3.28-.275 3.28-12.732 3.279-5.223 3.279 7.431 3.28-11.303 3.279 1.69 3.279-3.935 3.28-9.888 3.279 13.425 3.279-3.106 3.28-1.403 3.279-18.114 3.279-1.433 3.28-4.137 3.279-4.367 3.279 1.227 3.28 4.333 3.279-8.151 3.279 10.689 3.28-11.886 3.279 7.652 3.279-17.108 3.28 6.362 3.279.381 3.279 1.255 3.28-11.313 3.279 4.567 3.279-3.62 3.28 9.086 3.279-12.839 3.279-1.239 3.28-1.4 3.279-7.52 3.279 3.775 3.28 4.964 3.279-2.651 3.279-6.121 3.28 11.083 3.279-12.679 3.279-1.125 3.28 7.779 3.279.559 3.28-4.541 3.278-1.874 3.28-4.876 3.28 1.611 3.278-11.398 3.28 16.088 3.28-2.887 3.278.085 3.28-10.211 3.28 6.858 3.278-4.844 3.28 3.49 3.28.896 3.278.208 3.28-11.149 3.28 9.218 3.278-1.795 3.28-3.956 3.28-9.3 3.278 13.207 3.28-14.794 3.28 13.576 3.279-17.439 3.279 9.123 3.28-10.296 3.279 6.546 3.279-3.127 3.28 12.843 3.279-5.195 3.279 2.583 3.28-3.881 3.279 2.885 3.279-4.31 3.28-2.33 3.279 6.214 3.279-12.49 3.28 1.942 3.279 5.304 3.279-5.382 3.28 7.77 3.279-9.654 3.279-7.186 3.28 11.26 3.279-7.085 3.279 9.836 3.28-11.58 3.279 7.77 3.279 1.644 3.28-8.096 3.279 10.457 3.279-15.84 3.28 15.399" fill="none" stroke="#1f77b4" stroke-linecap="square" stroke-width="1.5" id="line2d_22"/><path clip-path="url(#p1b62f09333)" d="M66.937 254.216l3.28-.639 3.278-16.852 3.28-11.855 3.28 6.537 3.278-12.995 3.28-6.692 3.28-5.69 3.279.905 3.279-19.453 3.28 4.429 3.279-12.64 3.279-1.972 3.28 3.116 3.279-14.255 3.279 3.785 3.28-13.294 3.279 1.87 3.279-9.458 3.28.048 3.279-4.06 3.279.974 3.28-11.885 3.279 2.895 3.279 1.245 3.28-6.355 3.279 8.464 3.279-8.075 3.28-9.445 3.279 4.575 3.279-8.696 3.28 1.272 3.279 3.333 3.279-5.32 3.28-7.337 3.279-2.478 3.279-1.701 3.28-3.469 3.279-1.884 3.279 2.369 3.28-10.697 3.279 8.365 3.279-3.013 3.28-10.383 3.279.022 3.279.38 3.28 10.01 3.279-17.167 3.28 2.464 3.278-6.869 3.28 14.855 3.28-15.103 3.278 12.17 3.28-9.96 3.28 8.139 3.278-15.088 3.28-.43 3.28 3.374 3.278 1.94 3.28 5.335 3.28-13.123 3.278 3.582 3.28-6.196 3.28-3.798 3.278-3.104 3.28 1.294 3.28 15.168 3.278-7.617 3.28-8.014 3.28 9.76 3.279-7.584 3.279 8.042 3.28-3.653 3.279 2.62 3.279-15.66 3.28 10.078 3.279-3.127 3.279-11.934 3.28 3.502 3.279 12.102 3.279-3.289 3.28-9.471 3.279.124 3.279 5.78 3.28-14.015 3.279 5.44 3.279.823 3.28-1.7 3.279-3.334 3.279 7.356 3.28-2.28 3.279 2.981 3.279-.158 3.28-15.102 3.279 3.326 3.279 4.182 3.28 4.457 3.279-1.08 3.279 3.2 3.28-7.747" fill="none" stroke="#ff7f0e" stroke-linecap="square" stroke-width="1.5" id="line2d_23"/><path clip-path="url(#p1b62f09333)" d="M66.937 261.216l3.28-16.355 3.278-2.393 3.28-4.225 3.28-4.618 3.278-7.996 3.28-18.522 3.28-2.157 3.279-7.742 3.279-12.751 3.28-7.383 3.279 9.455 3.279-13.634 3.28 2.767 3.279-.03 3.279-18.585 3.28 4.09 3.279-5.335 3.279-7.878 3.28-8.45 3.279.2 3.279-8.188 3.28 8.058 3.279-13.31 3.279 8.549 3.28-17.727 3.279 2.123 3.279 6.175 3.28-16.757 3.279 1.471 3.279 6.536 3.28-1.728 3.279-8.258 3.279 7.066 3.28-5.76 3.279-6.372 3.279-1.186 3.28-3.8 3.279 1.524 3.279-7.888 3.28-7.22 3.279 12.404 3.279-9.467 3.28 5.598 3.279-12.91 3.279 4.454 3.28-4.878 3.279 5.71 3.28-.823 3.278-8.084 3.28 1.05 3.28-12.634 3.278 1.934 3.28-1.062 3.28-4.316 3.278 14.37 3.28-10.255 3.28-1.878 3.278-8.452 3.28 11.604 3.28-.199 3.278 1.533 3.28.473 3.28-18.57 3.278 3.88 3.28-3.266 3.28 8.587 3.278-6.847 3.28 8.992 3.28-9.045 3.279-10.368 3.279.989 3.28 9.371 3.279-12.83 3.279 13.068 3.28-14.598 3.279-.706 3.279 1.877 3.28 2.4 3.279-5.476 3.279 10.32 3.28-11.417 3.279 3.65 3.279 10.806 3.28-7.132 3.279 3.077 3.279-16.664 3.28 8.922 3.279-1.06 3.279-3.401 3.28 4.508 3.279 3.769 3.279-13.757 3.28 11.452 3.279-6.78 3.279 4.868 3.28 1.807 3.279-15.22 3.279-2.711 3.28-.353" fill="none" stroke="#2ca02c" stroke-linecap="square" stroke-width="1.5" id="line2d_24"/><g transform="matrix(.14 0 0 -.14 411.395 127.131)" fill="#1f77b4" id="text_17"><defs><path d="M49.219 0h-8.844v32.172q0 7.422-2.594 10.578-2.578 3.156-8.578 3.156-5.906 0-9.875-4.5-3.953-4.484-3.953-12.89V0H6.594v52.297h8.297v-7.375h.203q6.203 8.89 15.812 8.89 8.89 0 13.594-4.718 4.719-4.703 4.719-13.5z" id="HelveticaWorld-Regular-110"/><path d="M12.703 26.219q0-8.735 3.953-14.375 3.953-5.64 11.219-5.64 7.531 0 11.438 5.905 3.906 5.907 3.906 14.11 0 8.297-3.907 14.078-3.906 5.797-11.437 5.797-6.969 0-11.078-5.453-4.094-5.438-4.094-14.422zm-8.984 0q0 11.672 6.484 19.625 6.5 7.968 17.672 7.968 11.438 0 17.875-8.062 6.453-8.047 6.453-19.531 0-11.516-6.406-19.625-6.39-8.11-17.922-8.11-11.078 0-17.625 7.86-6.531 7.86-6.531 19.875z" id="HelveticaWorld-Regular-111"/><path d="M39.594 34.719q-1.89 11.187-12.39 11.187-6.5 0-10.454-5.203-3.953-5.203-3.953-14.484 0-10.11 3.656-15.11 3.672-5 10.64-5 4.688 0 8.11 3.438 3.422 3.437 4.39 8.953h8.5q-1.312-9.703-6.859-14.86-5.547-5.156-14.328-5.156-10.297 0-16.89 7.047-6.594 7.063-6.594 19.172 0 13.281 6.594 21.188 6.593 7.922 18.5 7.922 8.687 0 13.843-5.204 5.157-5.203 5.735-13.89z" id="HelveticaWorld-Regular-99"/><path d="M6.594 61.813v9.968h8.781v-9.969zM15.375 0H6.594v52.297h8.781z" id="HelveticaWorld-Regular-105"/><path d="M12.984 26.313q0-9.61 3.813-14.907Q20.609 6.11 27.094 6.11q6.312 0 10.312 4.579 4 4.593 4 13 0 11.03-3.5 16.625-3.484 5.593-10.61 5.593-7.171 0-10.75-4.765-3.562-4.766-3.562-14.828zM49.812 2.983q0-12.609-6.062-18.797-6.047-6.203-18.266-6.203-8.78 0-13.984 4.047Q6.297-13.922 5.516-6.39h8.796q.672-3.812 3.532-6.062 2.86-2.25 8.281-2.25 7.375 0 11.125 3.969 3.766 3.953 3.766 12.828v3.719h-.188q-4.937-7.329-13.922-7.329-11.187 0-17.093 8.25-5.907 8.25-5.907 20.953 0 11.625 5.953 18.875 5.97 7.25 15.829 7.25 9.906 0 15.625-8.89h.187v7.375h8.313z" id="HelveticaWorld-Regular-103"/></defs><use xlink:href="#HelveticaWorld-Regular-110"/><use x="55.176" xlink:href="#HelveticaWorld-Regular-111"/><use x="111.084" xlink:href="#HelveticaWorld-Regular-32"/><use x="135.498" xlink:href="#HelveticaWorld-Regular-98"/><use x="191.992" xlink:href="#HelveticaWorld-Regular-97"/><use x="246.924" xlink:href="#HelveticaWorld-Regular-108"/><use x="268.945" xlink:href="#HelveticaWorld-Regular-97"/><use x="323.877" xlink:href="#HelveticaWorld-Regular-110"/><use x="379.053" xlink:href="#HelveticaWorld-Regular-99"/><use x="430.322" xlink:href="#HelveticaWorld-Regular-105"/><use x="452.344" xlink:href="#HelveticaWorld-Regular-110"/><use x="507.52" xlink:href="#HelveticaWorld-Regular-103"/></g><g transform="matrix(.14 0 0 -.14 411.395 47.284)" fill="#ff7f0e" id="text_18"><defs><path d="M58.016 50.203q-1.625 7.313-6.782 11.094-5.14 3.797-13.343 3.797-10.594 0-17.047-7.703-6.438-7.688-6.438-20.766 0-15.14 6.094-22.547 6.11-7.39 17.688-7.39 7.609 0 13.093 5.046 5.5 5.063 7.407 14.688h9.421Q66.22 12.594 57.625 5.344t-20.906-7.25q-14.703 0-23.516 10.11Q4.391 18.311 4.391 36.28q0 17.328 9.203 27.36 9.203 10.047 24.297 10.047 12.5 0 20.265-6.454 7.766-6.437 9.235-17.03z" id="HelveticaWorld-Regular-67"/><path d="M17.828 39.11h22.453q7.813 0 11.203 3.203 3.407 3.203 3.407 9.203 0 5.468-2.938 8.718-2.922 3.25-10.062 3.25H17.828zm0-39.11H8.11v71.781h33.203q11.563 0 17.516-4.937 5.969-4.922 5.969-14.36 0-6.187-2.39-10.343-2.391-4.157-7.516-6.844 4.39-1.61 6.343-4.516 1.953-2.906 2.25-9l.625-13.375q.094-3.328 1.047-4.672.953-1.343 2.672-2.125V0H55.812q-.921 2.688-1.312 8.156-.39 5.469-.39 9.86 0 2.203-.391 4.5-.39 2.297-1.719 4.14-1.313 1.86-3.86 3-2.53 1.157-6.828 1.157H17.828z" id="HelveticaWorld-Regular-82"/><path d="M53.328 71.781h10.875L37.891 0H27.688L1.515 71.781h10.796l20.5-61.187h.204z" id="HelveticaWorld-Regular-86"/><path d="M28.906 23.188H4.391v8.984h24.515z" id="HelveticaWorld-Regular-45"/><path d="M3.719 68.797h48.578v-7.719Q42.28 50.875 33.984 33.484 25.687 16.11 23.391 0h-9.672q1.469 13.281 9.719 30.531 8.25 17.266 18.953 29.672H3.719z" id="HelveticaWorld-Regular-55"/></defs><use xlink:href="#HelveticaWorld-Regular-67"/><use x="72.314" xlink:href="#HelveticaWorld-Regular-82"/><use x="139.826" xlink:href="#HelveticaWorld-Regular-86"/><use x="198.027" xlink:href="#HelveticaWorld-Regular-45"/><use x="231.328" xlink:href="#HelveticaWorld-Regular-50"/><use x="286.943" xlink:href="#HelveticaWorld-Regular-55"/></g><g transform="matrix(.14 0 0 -.14 411.395 22.871)" fill="#2ca02c" id="text_19"><defs><path d="M5.906 64.594l10.5-3.797V71.78h6V60.797l10.5 3.797 2-5.516-10.781-3.36 6.688-9.234-4.938-3.375-6.484 9.375-6.5-9.375-4.875 3.375 6.687 9.235-10.797 3.36z" id="HelveticaWorld-Regular-42"/></defs><use xlink:href="#HelveticaWorld-Regular-67"/><use x="72.314" xlink:href="#HelveticaWorld-Regular-82"/><use x="139.826" xlink:href="#HelveticaWorld-Regular-86"/><use x="198.027" xlink:href="#HelveticaWorld-Regular-45"/><use x="231.328" xlink:href="#HelveticaWorld-Regular-50"/><use x="286.943" xlink:href="#HelveticaWorld-Regular-55"/><use x="342.559" xlink:href="#HelveticaWorld-Regular-42"/></g></g></g><defs><clipPath id="p1b62f09333"><path d="M50.704 7.2h357.12v266.112H50.704z"/></clipPath></defs></svg>