<svg height="469.696" viewBox="0 0 525.018 352.272" width="700.024" xmlns="http://www.w3.org/2000/svg" xmlns:xlink="http://www.w3.org/1999/xlink"><defs><style>*{stroke-linecap:butt;stroke-linejoin:round}</style></defs><g id="figure_1"><path d="M0 352.272h525.018V0H0z" style="fill:#0d1117" id="patch_1"/><g id="axes_1"><path d="M72.954 294.522h357.12V28.41H72.954z" style="fill:#0d1117" id="patch_2"/><g id="matplotlib.axis_1"><g id="xtick_1"><g id="line2d_1"><defs><path d="M0 0v3.5" id="meef880d3a4" style="stroke:#969696;stroke-width:.4"/></defs><use style="fill:#969696;stroke:#969696;stroke-width:.4" x="72.954" xlink:href="#meef880d3a4" y="294.522"/></g><g style="fill:#969696" transform="matrix(.14 0 0 -.14 63.225 311.519)" id="text_1"><defs><path d="M1779 4179c1024 0 1159-1190 1159-1965 0-780-135-1971-1159-1971S621 1434 621 2214c0 775 134 1965 1158 1965zm0 339C474 4518 218 3258 218 2208 218 1165 474-96 1779-96c1306 0 1562 1261 1562 2310 0 1044-256 2304-1562 2304z" id="HelveticaNeue-Light-30" transform="scale(.01563)"/><path d="M1158 0v678H621V0h537z" id="HelveticaNeue-Light-2e" transform="scale(.01563)"/></defs><use xlink:href="#HelveticaNeue-Light-30"/><use x="55.6" xlink:href="#HelveticaNeue-Light-2e"/><use x="83.4" xlink:href="#HelveticaNeue-Light-30"/></g></g><g id="xtick_2"><use style="fill:#969696;stroke:#969696;stroke-width:.4" x="132.474" xlink:href="#meef880d3a4" y="294.522" id="line2d_2"/><g style="fill:#969696" transform="matrix(.14 0 0 -.14 122.745 311.519)" id="text_2"><defs><path d="M230 1280C250 429 870-96 1702-96c858 0 1556 640 1556 1517 0 902-583 1549-1504 1549-346 0-724-154-948-416l-12 12 288 1485h1958v371H800L365 2099h345c218 339 602 531 999 531 665 0 1145-505 1145-1164 0-653-428-1223-1120-1223-614 0-1081 416-1100 1037H230z" id="HelveticaNeue-Light-35" transform="scale(.01563)"/></defs><use xlink:href="#HelveticaNeue-Light-30"/><use x="55.6" xlink:href="#HelveticaNeue-Light-2e"/><use x="83.4" xlink:href="#HelveticaNeue-Light-35"/></g></g><g id="xtick_3"><use style="fill:#969696;stroke:#969696;stroke-width:.4" x="191.994" xlink:href="#meef880d3a4" y="294.522" id="line2d_3"/><g style="fill:#969696" transform="matrix(.14 0 0 -.14 182.265 311.519)" id="text_3"><defs><path d="M621 3328h1184V0h403v4480h-326c-122-826-557-838-1261-864v-288z" id="HelveticaNeue-Light-31" transform="scale(.01563)"/></defs><use xlink:href="#HelveticaNeue-Light-31"/><use x="55.6" xlink:href="#HelveticaNeue-Light-2e"/><use x="83.4" xlink:href="#HelveticaNeue-Light-30"/></g></g><g id="xtick_4"><use style="fill:#969696;stroke:#969696;stroke-width:.4" x="251.514" xlink:href="#meef880d3a4" y="294.522" id="line2d_4"/><g style="fill:#969696" transform="matrix(.14 0 0 -.14 241.785 311.519)" id="text_4"><use xlink:href="#HelveticaNeue-Light-31"/><use x="55.6" xlink:href="#HelveticaNeue-Light-2e"/><use x="83.4" xlink:href="#HelveticaNeue-Light-35"/></g></g><g id="xtick_5"><use style="fill:#969696;stroke:#969696;stroke-width:.4" x="311.034" xlink:href="#meef880d3a4" y="294.522" id="line2d_5"/><g style="fill:#969696" transform="matrix(.14 0 0 -.14 301.305 311.519)" id="text_5"><defs><path d="M3181 371H691c109 602 909 999 1344 1293 583 378 1127 845 1127 1594 0 832-608 1260-1389 1260-973 0-1453-665-1434-1587h403c-12 659 276 1248 1012 1248 544 0 1004-333 1004-915 0-358-128-595-371-845C1626 1658 262 1331 230 0h2951v371z" id="HelveticaNeue-Light-32" transform="scale(.01563)"/></defs><use xlink:href="#HelveticaNeue-Light-32"/><use x="55.6" xlink:href="#HelveticaNeue-Light-2e"/><use x="83.4" xlink:href="#HelveticaNeue-Light-30"/></g></g><g id="xtick_6"><use style="fill:#969696;stroke:#969696;stroke-width:.4" x="370.554" xlink:href="#meef880d3a4" y="294.522" id="line2d_6"/><g style="fill:#969696" transform="matrix(.14 0 0 -.14 360.825 311.519)" id="text_6"><use xlink:href="#HelveticaNeue-Light-32"/><use x="55.6" xlink:href="#HelveticaNeue-Light-2e"/><use x="83.4" xlink:href="#HelveticaNeue-Light-35"/></g></g><g id="xtick_7"><use style="fill:#969696;stroke:#969696;stroke-width:.4" x="430.074" xlink:href="#meef880d3a4" y="294.522" id="line2d_7"/><g style="fill:#969696" transform="matrix(.14 0 0 -.14 420.345 311.519)" id="text_7"><defs><path d="M211 1427C147 467 813-96 1741-96c825 0 1542 486 1542 1363 0 589-339 1011-921 1107v13c480 115 755 506 755 992 0 794-685 1139-1389 1139-870 0-1408-627-1414-1472h403c-13 666 345 1133 1017 1133 538 0 980-256 980-845 0-563-493-819-909-812h-339v-340h339c595 0 1075-313 1075-947 0-640-557-992-1146-992-723 0-1145 474-1120 1184H211z" id="HelveticaNeue-Light-33" transform="scale(.01563)"/></defs><use xlink:href="#HelveticaNeue-Light-33"/><use x="55.6" xlink:href="#HelveticaNeue-Light-2e"/><use x="83.4" xlink:href="#HelveticaNeue-Light-30"/></g></g><g style="fill:#969696" transform="matrix(.14 0 0 -.14 214.953 342.399)" id="text_8"><defs><path d="M646 1651c0 685 314 1408 1082 1408 858 0 1158-723 1158-1408S2586 243 1728 243C960 243 646 966 646 1651zm2644 2919h-404V2675h-12c-173 474-653 723-1146 723-1005 0-1485-812-1485-1747C243 717 723-96 1728-96c480 0 1005 294 1178 723h12V0h372v4570z" id="HelveticaNeue-Light-64" transform="scale(.01563)"/><path d="M390 0h404v3302H390V0zm0 3923h404v647H390v-647z" id="HelveticaNeue-Light-69" transform="scale(.01563)"/><path d="M2765 2336c-26 717-551 1062-1210 1062-582 0-1241-256-1241-928 0-563 396-742 921-883l519-115c364-90 723-218 723-602 0-460-525-627-903-627-537 0-940 282-972 826H198C262 262 787-96 1555-96c615 0 1325 275 1325 992 0 576-480 845-941 915l-537 122c-276 70-685 198-685 557 0 428 422 569 781 569 460 0 844-224 864-723h403z" id="HelveticaNeue-Light-73" transform="scale(.01563)"/><path d="M1024 4294H621v-992H45v-339h576V704c-7-563 179-742 717-742 121 0 236 12 358 12v346c-115-13-230-19-346-19-288 19-326 173-326 435v2227h672v339h-672v992z" id="HelveticaNeue-Light-74" transform="scale(.01563)"/><path d="M2496 1280c6-646-538-1037-1152-1037-378 0-736 250-736 653 0 646 851 640 1536 762 109 19 288 51 339 147h13v-525zM749 2291c13 538 384 768 883 768 474 0 864-134 864-678 0-365-186-410-518-448-871-103-1773-135-1773-1063 0-665 499-966 1107-966 634 0 922 243 1203 672h13c0-346 64-576 474-576 108 0 172 6 262 26v339c-32-13-83-26-128-26-160 0-237 90-237 243v1754c0 883-633 1062-1216 1062-755 0-1299-332-1337-1107h403z" id="HelveticaNeue-Light-61" transform="scale(.01563)"/><path d="M378 0h403v1926c13 647 397 1133 1037 1133 652 0 838-429 838-998V0h403v2125c0 787-281 1273-1209 1273-468 0-909-268-1056-665h-13v569H378V0z" id="HelveticaNeue-Light-6e" transform="scale(.01563)"/><path d="M3117 2266c-90 755-634 1132-1338 1132-1011 0-1561-800-1561-1747S768-96 1779-96c736 0 1255 486 1363 1280h-403c-51-550-461-941-960-941-774 0-1158 704-1158 1408s384 1408 1158 1408c525 0 826-301 935-793h403z" id="HelveticaNeue-Light-63" transform="scale(.01563)"/><path d="M3162 1542c32 928-391 1856-1453 1856-1050 0-1491-876-1491-1747C218 710 659-96 1709-96c832 0 1267 435 1440 1184h-403c-128-499-448-845-1037-845-775 0-1082 711-1088 1299h2541zM621 1882c64 601 429 1177 1088 1177 653 0 1030-569 1049-1177H621z" id="HelveticaNeue-Light-65" transform="scale(.01563)"/><path d="M1517-1222v339H890v5209h627v340H486v-5888h1031z" id="HelveticaNeue-Light-5b" transform="scale(.01563)"/><path d="M384 0h403v1843c7 691 288 1216 986 1216 512 0 697-371 691-819V0h403v1869c0 614 199 1190 896 1190 576 0 781-294 781-838V0h403v2240c0 781-371 1158-1094 1158-435 0-851-211-1050-646-121 435-512 646-947 646-525 0-870-256-1082-652h-19v556H384V0z" id="HelveticaNeue-Light-6d" transform="scale(.01563)"/><path d="M26 4666v-340h627V-883H26v-339h1030v5888H26z" id="HelveticaNeue-Light-5d" transform="scale(.01563)"/></defs><use xlink:href="#HelveticaNeue-Light-64"/><use x="57.4" xlink:href="#HelveticaNeue-Light-69"/><use x="75.9" xlink:href="#HelveticaNeue-Light-73"/><use x="124" xlink:href="#HelveticaNeue-Light-74"/><use x="153.6" xlink:href="#HelveticaNeue-Light-61"/><use x="205.5" xlink:href="#HelveticaNeue-Light-6e"/><use x="259.2" xlink:href="#HelveticaNeue-Light-63"/><use x="311.1" xlink:href="#HelveticaNeue-Light-65"/><use x="363" xlink:href="#HelveticaNeue-Light-20"/><use x="390.8" xlink:href="#HelveticaNeue-Light-5b"/><use x="414.9" xlink:href="#HelveticaNeue-Light-6d"/><use x="498.2" xlink:href="#HelveticaNeue-Light-5d"/></g></g><g id="matplotlib.axis_2"><g id="ytick_1"><path clip-path="url(#pb191ff0e9b)" d="M72.954 258.9h357.12" style="fill:none;stroke:#969696;stroke-linecap:square;stroke-width:.3" id="line2d_8"/><g id="line2d_9"><defs><path d="M0 0h-3.5" id="md085f3509b" style="stroke:#969696;stroke-width:.3"/></defs><use style="fill:#969696;stroke:#969696;stroke-width:.3" x="72.954" xlink:href="#md085f3509b" y="258.9"/></g><g style="fill:#969696" transform="matrix(.14 0 0 -.14 46.496 263.898)" id="text_9"><use xlink:href="#HelveticaNeue-Light-30"/><use x="55.6" xlink:href="#HelveticaNeue-Light-2e"/><use x="83.4" xlink:href="#HelveticaNeue-Light-32"/></g></g><g id="ytick_2"><path clip-path="url(#pb191ff0e9b)" d="M72.954 216.5h357.12" style="fill:none;stroke:#969696;stroke-linecap:square;stroke-width:.3" id="line2d_10"/><use style="fill:#969696;stroke:#969696;stroke-width:.3" x="72.954" xlink:href="#md085f3509b" y="216.5" id="line2d_11"/><g style="fill:#969696" transform="matrix(.14 0 0 -.14 46.496 221.498)" id="text_10"><defs><path d="M192 1114h2067V0h371v1114h672v339h-672v3027h-364L192 1504v-390zm365 339 1689 2438h13V1453H557z" id="HelveticaNeue-Light-34" transform="scale(.01563)"/></defs><use xlink:href="#HelveticaNeue-Light-30"/><use x="55.6" xlink:href="#HelveticaNeue-Light-2e"/><use x="83.4" xlink:href="#HelveticaNeue-Light-34"/></g></g><g id="ytick_3"><path clip-path="url(#pb191ff0e9b)" d="M72.954 174.1h357.12" style="fill:none;stroke:#969696;stroke-linecap:square;stroke-width:.3" id="line2d_12"/><use style="fill:#969696;stroke:#969696;stroke-width:.3" x="72.954" xlink:href="#md085f3509b" y="174.1" id="line2d_13"/><g style="fill:#969696" transform="matrix(.14 0 0 -.14 46.496 179.099)" id="text_11"><defs><path d="M1856 2579c685 0 1082-531 1082-1184 0-621-436-1152-1076-1152-780 0-1120 519-1120 1152 0 659 410 1184 1114 1184zm1376 768c-96 781-589 1171-1376 1171-1466 0-1600-1702-1600-2233C256 538 736-96 1824-96c883 0 1517 646 1517 1517 0 877-583 1497-1479 1497-505 0-979-300-1190-742h-13c0 813 192 2003 1235 2003 519 0 864-339 935-832h403z" id="HelveticaNeue-Light-36" transform="scale(.01563)"/></defs><use xlink:href="#HelveticaNeue-Light-30"/><use x="55.6" xlink:href="#HelveticaNeue-Light-2e"/><use x="83.4" xlink:href="#HelveticaNeue-Light-36"/></g></g><g id="ytick_4"><path clip-path="url(#pb191ff0e9b)" d="M72.954 131.7h357.12" style="fill:none;stroke:#969696;stroke-linecap:square;stroke-width:.3" id="line2d_14"/><use style="fill:#969696;stroke:#969696;stroke-width:.3" x="72.954" xlink:href="#md085f3509b" y="131.701" id="line2d_15"/><g style="fill:#969696" transform="matrix(.14 0 0 -.14 46.496 136.699)" id="text_12"><defs><path d="M1779 243c-627 0-1139 339-1139 1011 0 660 525 986 1139 973 602 13 1139-326 1139-973 0-684-512-1011-1139-1011zm1357 3155c0 768-698 1120-1363 1120-659 0-1357-352-1357-1120 0-492 262-844 730-985v-13c-551-102-896-563-909-1146C237 352 941-96 1779-96c839 0 1543 448 1543 1350 0 602-340 1031-916 1146v13c455 134 730 499 730 985zm-1357-832c-473-12-960 231-960 832 0 512 467 781 960 781 538 0 954-269 954-781 0-576-461-844-954-832z" id="HelveticaNeue-Light-38" transform="scale(.01563)"/></defs><use xlink:href="#HelveticaNeue-Light-30"/><use x="55.6" xlink:href="#HelveticaNeue-Light-2e"/><use x="83.4" xlink:href="#HelveticaNeue-Light-38"/></g></g><g id="ytick_5"><path clip-path="url(#pb191ff0e9b)" d="M72.954 89.3h357.12" style="fill:none;stroke:#969696;stroke-linecap:square;stroke-width:.3" id="line2d_16"/><use style="fill:#969696;stroke:#969696;stroke-width:.3" x="72.954" xlink:href="#md085f3509b" y="89.301" id="line2d_17"/><g style="fill:#969696" transform="matrix(.14 0 0 -.14 46.496 94.3)" id="text_13"><use xlink:href="#HelveticaNeue-Light-31"/><use x="55.6" xlink:href="#HelveticaNeue-Light-2e"/><use x="83.4" xlink:href="#HelveticaNeue-Light-30"/></g></g><g id="ytick_6"><path clip-path="url(#pb191ff0e9b)" d="M72.954 46.901h357.12" style="fill:none;stroke:#969696;stroke-linecap:square;stroke-width:.3" id="line2d_18"/><use style="fill:#969696;stroke:#969696;stroke-width:.3" x="72.954" xlink:href="#md085f3509b" y="46.901" id="line2d_19"/><g style="fill:#969696" transform="matrix(.14 0 0 -.14 46.496 51.9)" id="text_14"><use xlink:href="#HelveticaNeue-Light-31"/><use x="55.6" xlink:href="#HelveticaNeue-Light-2e"/><use x="83.4" xlink:href="#HelveticaNeue-Light-32"/></g></g><g style="fill:#969696" transform="matrix(.14 0 0 -.14 7.2 17.407)" id="text_15"><defs><path d="M1286 0h429l1235 3302h-416L1510 403h-12L461 3302H13L1286 0z" id="HelveticaNeue-Light-76" transform="scale(.01563)"/><path d="M1779 3398c-1011 0-1561-800-1561-1747S768-96 1779-96s1562 800 1562 1747-551 1747-1562 1747zm0-339c775 0 1159-704 1159-1408S2554 243 1779 243c-774 0-1158 704-1158 1408s384 1408 1158 1408z" id="HelveticaNeue-Light-6f" transform="scale(.01563)"/><path d="M390 0h404v4570H390V0z" id="HelveticaNeue-Light-6c" transform="scale(.01563)"/><path d="M1709 378c-743 0-1088 646-1088 1312 0 684 320 1369 1088 1369 761 0 1062-723 1062-1369 0-672-365-1312-1062-1312zm1465 2924h-403v-569h-13c-160 365-569 665-1049 665-954 0-1491-755-1491-1664C218 794 653 38 1709 38c473 0 864 276 1049 679h13V269c0-807-320-1248-1062-1248-448 0-877 173-967 659H339c58-704 711-998 1370-998 1081 0 1459 601 1465 1587v3033z" id="HelveticaNeue-Light-67" transform="scale(.01563)"/><path d="M1651 0h506l1696 4570h-461L1920 480h-13L422 4570H-45L1651 0z" id="HelveticaNeue-Light-56" transform="scale(.01563)"/></defs><use xlink:href="#HelveticaNeue-Light-76"/><use x="46.3" xlink:href="#HelveticaNeue-Light-6f"/><use x="101.9" xlink:href="#HelveticaNeue-Light-6c"/><use x="120.4" xlink:href="#HelveticaNeue-Light-74"/><use x="150" xlink:href="#HelveticaNeue-Light-61"/><use x="201.9" xlink:href="#HelveticaNeue-Light-67"/><use x="257.5" xlink:href="#HelveticaNeue-Light-65"/><use x="309.4" xlink:href="#HelveticaNeue-Light-20"/><use x="337.2" xlink:href="#HelveticaNeue-Light-5b"/><use x="361.3" xlink:href="#HelveticaNeue-Light-56"/><use x="420.6" xlink:href="#HelveticaNeue-Light-5d"/></g></g><path clip-path="url(#pb191ff0e9b)" d="m72.954 287.796 3.607 1.549 3.608-1.029 3.607-5.034 3.607-22.143 3.607-7.085 3.608 1.77 3.607-7.09 3.607-.325 3.608-12.361 3.607-1.347 3.607 13.54 3.607-21.651 3.608 14.085 3.607-17.993 3.607 8.644 3.607-17.55 3.608 3.965 3.607 2.381 3.607-5.245 3.608 5.822 3.607-4.478 3.607-13.938 3.607-1.775 3.608-1.517 3.607 2.796 3.607-15.051 3.607-1.63 3.608 4.35 3.607-1.107 3.607-2.596 3.608 4.614 3.607 3.7 3.607-14.062 3.607 2.576 3.608 3.024 3.607-5.213 3.607-10.006 3.607-2.352 3.608 10.848 3.607-5.863 3.607 3.998 3.608-7.036 3.607 4.208 3.607-2.334 3.607-11.736 3.608 12.922 3.607-9.502 3.607 10.35 3.607-16.924 3.608-.062 3.607 10.608 3.607-14.486 3.608 16.382 3.607-6.819 3.607 3.026 3.607-7.254 3.608-8.208 3.607 11.138 3.607 2.95 3.607-8.29 3.608 3.567 3.607 1.501 3.607-11.146 3.608 5.22 3.607-8.65 3.607 9.295 3.607-16.45 3.608 11.54 3.607 4.825 3.607-11.766 3.607-6.972 3.608 9.679 3.607-11.53 3.607 9.023 3.608.977 3.607-4.728 3.607-8.53 3.607.405 3.608 9.802 3.607-6.864 3.607 4.976 3.607-1.21 3.608-5.962 3.607 7.353 3.607-7.287 3.608-.004 3.607-5.173 3.607 16.841 3.607-13.492 3.608-4.673 3.607-1.317 3.607 19.757 3.607-18.442 3.608-2.93 3.607.079 3.607 16.715 3.608-17.883 3.607 1.343 3.607 1.027" style="fill:none;stroke:#1f77b4;stroke-linecap:square;stroke-width:1.5" id="line2d_20"/><path clip-path="url(#pb191ff0e9b)" d="m72.954 291.124 3.607-4.104 3.608-20.892 3.607-10.907 3.607 6.058 3.607-13.247 3.608-5.042 3.607-17.078 3.607 12.48 3.608-20.753 3.607-3.317 3.607 6.877 3.607-19.946 3.608 9.838 3.607-20.583 3.607.547 3.607-13.289 3.608 14.013 3.607-20.55 3.607 12.465 3.608-9.693 3.607-5.49 3.607-14.891 3.607 5.154 3.608 3.144 3.607-2.81 3.607-16.771 3.607 11.075 3.608-.72 3.607-6.246 3.607-9 3.608-1.923 3.607-7.942 3.607 2.837 3.607 3.395 3.608-4.942 3.607-10.828 3.607 1.89 3.607-9.162 3.608 10.448 3.607-5.88 3.607-2.819 3.608-7.283 3.607 13.059 3.607-7.328 3.607-12.42 3.608 16.675 3.607-18.189 3.607 7.016 3.607-10.365 3.608 15.838 3.607-9.033 3.607 4.603 3.608-13.604 3.607 6.627 3.607-10.461 3.607-6.453 3.608 16.01 3.607-16.926 3.607 15.82 3.607-8.039 3.608-2.239 3.607-2.428 3.607-11.487 3.608 3.129 3.607 8.793 3.607-.255 3.607-13.637 3.608-1.425 3.607 6.838 3.607 2.53 3.607-14.773 3.608 13.433 3.607 1.881 3.607-15.71 3.608.53 3.607 2.17 3.607-7.034 3.607-.166 3.608 2.918 3.607-3.213 3.607 12.192 3.607 1.445 3.608-11.998 3.607-1.717 3.607 10.848 3.608-5.592 3.607-11.646 3.607 6.673 3.607-1.07 3.608 7.446 3.607-7.725 3.607-.622 3.607 8.545 3.608-19.587 3.607 8.058 3.607 11.342 3.608-16.87 3.607-4.975 3.607 7.627" style="fill:none;stroke:#ff7f0e;stroke-linecap:square;stroke-width:1.5" id="line2d_21"/><path clip-path="url(#pb191ff0e9b)" d="m72.954 294.522 3.607-7.174 3.608-19.689 3.607 1.238 3.607-16.515 3.607-8.481 3.608-15.19 3.607 11.697 3.607-15.893 3.608-11.676 3.607 5.82 3.607-10.386 3.607 1.24 3.608-19.462 3.607 8.35 3.607-11.477 3.607-14.902 3.608 3.937 3.607-13.724 3.607-1.11 3.608-7.23 3.607 12.793 3.607-2.627 3.607-3.566 3.608-20.435 3.607 1.591 3.607-.356 3.607 3.898 3.608-13.874 3.607 4.581 3.607-11.194 3.608 2.535 3.607-3.69 3.607-8.591 3.607 12.243 3.608-12.76 3.607 5.702 3.607-15.268 3.607 4.517 3.608-12.787 3.607 14.952 3.607-18.61 3.608 1.42 3.607 4.813 3.607-8.957 3.607 2.603 3.608-2.925 3.607-7.252 3.607 16.259 3.607-18.003 3.608 7.962 3.607-.413 3.607-15.739 3.608 2.98 3.607 4.773 3.607-.129 3.607-11.073 3.608 15.366 3.607-14.545 3.607-3.048 3.607-1.522 3.608 8.83 3.607-11.31 3.607 10.885 3.608-4.106 3.607-2.346 3.607-3.782 3.607 7.96 3.608-7.349 3.607 7.535 3.607-16.84 3.607-3.324 3.608 14.09 3.607-12.981 3.607-3.474 3.608-4.376 3.607 1.975 3.607 7.964 3.607-12.695 3.608-.78 3.607 9.087 3.607-6.164 3.607-4.254 3.608 8.44 3.607-9.043 3.607 2.628 3.608 7.845 3.607-10.827 3.607 3.405 3.607 9.35 3.608-7.053 3.607 6 3.607-9.254 3.607.3 3.608-.598 3.607-4.135 3.607 9.15 3.608-17.862 3.607 4.637 3.607-3.61" style="fill:none;stroke:#2ca02c;stroke-linecap:square;stroke-width:1.5" id="line2d_22"/><g style="fill:#1f77b4" transform="matrix(.14 0 0 -.14 440.788 128.423)" id="text_16"><defs><path d="M3027 1651c0-685-313-1408-1081-1408-858 0-1159 723-1159 1408s301 1408 1159 1408c768 0 1081-723 1081-1408zM384 0h371v627h13C954 179 1414-96 1946-96c1004 0 1484 813 1484 1747 0 935-480 1747-1484 1747-493 0-973-249-1146-723h-13v1895H384V0z" id="HelveticaNeue-Light-62" transform="scale(.01563)"/></defs><use xlink:href="#HelveticaNeue-Light-6e"/><use x="53.7" xlink:href="#HelveticaNeue-Light-6f"/><use x="109.3" xlink:href="#HelveticaNeue-Light-20"/><use x="137.1" xlink:href="#HelveticaNeue-Light-62"/><use x="194.5" xlink:href="#HelveticaNeue-Light-61"/><use x="246.4" xlink:href="#HelveticaNeue-Light-6c"/><use x="264.9" xlink:href="#HelveticaNeue-Light-61"/><use x="316.8" xlink:href="#HelveticaNeue-Light-6e"/><use x="370.5" xlink:href="#HelveticaNeue-Light-63"/><use x="422.4" xlink:href="#HelveticaNeue-Light-69"/><use x="440.9" xlink:href="#HelveticaNeue-Light-6e"/><use x="494.6" xlink:href="#HelveticaNeue-Light-67"/></g><g style="fill:#ff7f0e" transform="matrix(.14 0 0 -.14 440.788 53.958)" id="text_17"><defs><path d="M4237 3187c-115 960-973 1479-1837 1479-1440 0-2157-1133-2157-2381S960-96 2400-96c1069 0 1779 717 1901 1837h-435c-84-813-621-1466-1466-1466-1210 0-1722 1011-1722 2010 0 998 512 2009 1722 2009 666 0 1248-403 1402-1107h435z" id="HelveticaNeue-Light-43" transform="scale(.01563)"/><path d="M461 0h435v2029h1651c826 32 877-679 915-1319 13-192 13-531 122-710h480c-192 230-192 858-211 1171-32 544-205 954-800 1031v12c589 116 889 589 889 1165 0 826-633 1191-1388 1191H461V0zm435 4198h1626c652 0 985-352 985-908 0-557-454-890-985-890H896v1798z" id="HelveticaNeue-Light-52" transform="scale(.01563)"/><path d="M1984 1574v372H384v-372h1600z" id="HelveticaNeue-Light-2d" transform="scale(.01563)"/><path d="M326 4051h2477C1562 2637 1069 1517 960 0h435c103 2086 1255 3469 1811 4051v371H326v-371z" id="HelveticaNeue-Light-37" transform="scale(.01563)"/></defs><use xlink:href="#HelveticaNeue-Light-43"/><use x="70.4" xlink:href="#HelveticaNeue-Light-52"/><use x="137.1" xlink:href="#HelveticaNeue-Light-56"/><use x="196.4" xlink:href="#HelveticaNeue-Light-2d"/><use x="233.4" xlink:href="#HelveticaNeue-Light-32"/><use x="289" xlink:href="#HelveticaNeue-Light-37"/></g><g style="fill:#2ca02c" transform="matrix(.14 0 0 -.14 440.788 33.099)" id="text_18"><defs><path d="m909 3558-467-627 204-147 468 640 467-640 205 147-461 627 755 250-96 237-736-263v788H998v-788l-736 263-89-237 736-250z" id="HelveticaNeue-Light-2a" transform="scale(.01563)"/></defs><use xlink:href="#HelveticaNeue-Light-43"/><use x="70.4" xlink:href="#HelveticaNeue-Light-52"/><use x="137.1" xlink:href="#HelveticaNeue-Light-56"/><use x="196.4" xlink:href="#HelveticaNeue-Light-2d"/><use x="233.4" xlink:href="#HelveticaNeue-Light-32"/><use x="289" xlink:href="#HelveticaNeue-Light-37"/><use x="344.6" xlink:href="#HelveticaNeue-Light-2a"/></g></g></g><defs><clipPath id="pb191ff0e9b"><path d="M72.954 28.41h357.12v266.112H72.954z"/></clipPath></defs></svg>