<svg height="449.132" viewBox="0 0 497.359 336.849" width="663.146" xmlns="http://www.w3.org/2000/svg" xmlns:xlink="http://www.w3.org/1999/xlink"><defs><style>*{stroke-linecap:butt;stroke-linejoin:round}</style></defs><g id="figure_1"><path d="M0 336.849h497.36V0H0z" style="fill:#0d1117" id="patch_1"/><g id="axes_1"><path d="M50.59 292.753h357.12V26.641H50.59z" style="fill:none" id="patch_2"/><g id="matplotlib.axis_1"><g id="xtick_1"><g id="line2d_1"><defs><path d="M0 0v3.5" id="m8a37857c1d" style="stroke:#969696;stroke-width:.4"/></defs><use style="fill:#969696;stroke:#969696;stroke-width:.4" x="50.589" xlink:href="#m8a37857c1d" y="292.753"/></g><g style="fill:#969696" transform="matrix(.14 0 0 -.14 40.86 309.802)" id="text_1"><defs><path d="M2719 2188q0 903-239 1354-239 452-702 452-453 0-697-452-243-451-243-1354 0-875 240-1340 241-464 700-464 463 0 702 448 239 449 239 1356zm603 0q0-1107-400-1709-400-601-1144-601-772 0-1156 623-384 624-384 1687 0 1090 393 1701 394 611 1147 611 744 0 1144-608t400-1704z" id="HelveticaWorld-Regular-30" transform="scale(.01563)"/><path d="M1222 0H556v678h666V0z" id="HelveticaWorld-Regular-2e" transform="scale(.01563)"/></defs><use xlink:href="#HelveticaWorld-Regular-30"/><use x="55.615" xlink:href="#HelveticaWorld-Regular-2e"/><use x="83.398" xlink:href="#HelveticaWorld-Regular-30"/></g></g><g id="xtick_2"><use style="fill:#969696;stroke:#969696;stroke-width:.4" x="110.109" xlink:href="#m8a37857c1d" y="292.753" id="line2d_2"/><g style="fill:#969696" transform="matrix(.14 0 0 -.14 100.38 309.802)" id="text_2"><defs><path d="M941 2619q372 281 872 281 606 0 1042-403t436-1038q0-690-421-1139-420-448-1179-448-660 0-1041 323-381 324-444 918h582q43-363 284-555t669-192q415 0 681 287 266 288 266 735 0 456-279 731-278 275-718 275-500 0-835-428l-484 25 337 2406h2332v-544H1131L941 2619z" id="HelveticaWorld-Regular-35" transform="scale(.01563)"/></defs><use xlink:href="#HelveticaWorld-Regular-30"/><use x="55.615" xlink:href="#HelveticaWorld-Regular-2e"/><use x="83.398" xlink:href="#HelveticaWorld-Regular-35"/></g></g><g id="xtick_3"><use style="fill:#969696;stroke:#969696;stroke-width:.4" x="169.629" xlink:href="#m8a37857c1d" y="292.753" id="line2d_3"/><g style="fill:#969696" transform="matrix(.14 0 0 -.14 159.9 309.802)" id="text_3"><defs><path d="M2297 0h-600v3194H647v447q550 18 818 176 269 158 391 683h441V0z" id="HelveticaWorld-Regular-31" transform="scale(.01563)"/></defs><use xlink:href="#HelveticaWorld-Regular-31"/><use x="55.615" xlink:href="#HelveticaWorld-Regular-2e"/><use x="83.398" xlink:href="#HelveticaWorld-Regular-30"/></g></g><g id="xtick_4"><use style="fill:#969696;stroke:#969696;stroke-width:.4" x="229.149" xlink:href="#m8a37857c1d" y="292.753" id="line2d_4"/><g style="fill:#969696" transform="matrix(.14 0 0 -.14 219.42 309.802)" id="text_4"><use xlink:href="#HelveticaWorld-Regular-31"/><use x="55.615" xlink:href="#HelveticaWorld-Regular-2e"/><use x="83.398" xlink:href="#HelveticaWorld-Regular-35"/></g></g><g id="xtick_5"><use style="fill:#969696;stroke:#969696;stroke-width:.4" x="288.669" xlink:href="#m8a37857c1d" y="292.753" id="line2d_5"/><g style="fill:#969696" transform="matrix(.14 0 0 -.14 278.94 309.802)" id="text_5"><defs><path d="M281 2888q0 793 409 1202 410 410 1148 410 618 0 1012-375t394-969q0-462-227-780-226-317-667-557l-775-425q-684-375-775-863h2444V0H166q25 634 275 1056t781 728l806 469q322 185 469 383t147 545q0 344-241 578-240 235-650 235-453 0-678-299-225-298-231-807H281z" id="HelveticaWorld-Regular-32" transform="scale(.01563)"/></defs><use xlink:href="#HelveticaWorld-Regular-32"/><use x="55.615" xlink:href="#HelveticaWorld-Regular-2e"/><use x="83.398" xlink:href="#HelveticaWorld-Regular-30"/></g></g><g id="xtick_6"><use style="fill:#969696;stroke:#969696;stroke-width:.4" x="348.189" xlink:href="#m8a37857c1d" y="292.753" id="line2d_6"/><g style="fill:#969696" transform="matrix(.14 0 0 -.14 338.46 309.802)" id="text_6"><use xlink:href="#HelveticaWorld-Regular-32"/><use x="55.615" xlink:href="#HelveticaWorld-Regular-2e"/><use x="83.398" xlink:href="#HelveticaWorld-Regular-35"/></g></g><g id="xtick_7"><use style="fill:#969696;stroke:#969696;stroke-width:.4" x="407.709" xlink:href="#m8a37857c1d" y="292.753" id="line2d_7"/><g style="fill:#969696" transform="matrix(.14 0 0 -.14 397.98 309.802)" id="text_7"><defs><path d="M1434 2559q141-12 294-12 397 0 626 183 230 183 230 554 0 300-214 505t-617 205q-447 0-655-263-207-262-220-703H325q0 703 369 1087 369 385 1084 385 635 0 1013-327 378-326 378-857 0-685-578-928v-13q750-256 750-1050 0-634-422-1041-422-406-1197-406-634 0-1044 333-409 333-459 1164h581q13-519 256-755 244-236 703-236 444 0 713 247t269 622q0 410-257 619-256 209-793 209-128 0-257-6v484z" id="HelveticaWorld-Regular-33" transform="scale(.01563)"/></defs><use xlink:href="#HelveticaWorld-Regular-33"/><use x="55.615" xlink:href="#HelveticaWorld-Regular-2e"/><use x="83.398" xlink:href="#HelveticaWorld-Regular-30"/></g></g><g style="fill:#969696" transform="matrix(.14 0 0 -.14 209.177 326.75)" id="text_8"><defs><path d="M3138 0h-725l-825 1259L781 0H72l1169 1722L128 3347h716l775-1178 781 1178h684L1959 1722 3138 0z" id="HelveticaWorld-Regular-78" transform="scale(.01563)"/><path d="M984 0H422v4594h562V0z" id="HelveticaWorld-Regular-6c" transform="scale(.01563)"/><path d="M2456 1709q-62-65-245-106-183-40-683-106-369-44-542-182-173-137-173-362 0-275 146-428 147-153 469-153 403 0 715 229 313 230 313 558v550zM397 2328q19 566 367 841 349 275 1014 275 531 0 890-241 360-240 360-694V581q0-197 178-197 72 0 185 25V0q-153-63-319-63-288 0-429 123-140 124-146 387Q2016-97 1288-97q-475 0-763 269-287 269-287 700 0 441 250 712 250 272 728 329l993 121q269 41 269 397 0 263-195 403-195 141-592 141-353 0-543-156-189-156-226-491H397z" id="HelveticaWorld-Regular-61" transform="scale(.01563)"/><path d="M2778 1684q0 672-238 963-237 291-677 291-447-7-676-349-228-342-228-989 0-659 275-934t641-275q416 0 659 342 244 342 244 951zM422 0v4594h562V2925h13q359 519 969 519 625 0 1009-464t384-1208q0-838-388-1354Q2584-97 1888-97q-613 0-922 513h-13V0H422z" id="HelveticaWorld-Regular-62" transform="scale(.01563)"/><path d="M2719 1941q-44 543-288 770-243 227-647 227-409 0-661-288-251-287-267-709h1863zm537-891q-93-519-509-859-366-288-963-294-703 6-1116 461-412 455-412 1223 0 882 425 1372 425 491 1182 491 678 0 1059-507 381-506 381-1446H856q0-525 244-813 244-287 731-287 344 0 591 207 247 208 272 452h562z" id="HelveticaWorld-Regular-65" transform="scale(.01563)"/></defs><use xlink:href="#HelveticaWorld-Regular-78"/><use x="50" xlink:href="#HelveticaWorld-Regular-20"/><use x="74.414" xlink:href="#HelveticaWorld-Regular-6c"/><use x="96.436" xlink:href="#HelveticaWorld-Regular-61"/><use x="151.367" xlink:href="#HelveticaWorld-Regular-62"/><use x="207.861" xlink:href="#HelveticaWorld-Regular-65"/><use x="263.281" xlink:href="#HelveticaWorld-Regular-6c"/></g></g><g id="matplotlib.axis_2"><g id="ytick_1"><path clip-path="url(#p9b414dbe50)" d="M50.59 257.236h357.12" style="fill:none;stroke:#969696;stroke-linecap:square;stroke-width:.3" id="line2d_8"/><g id="line2d_9"><defs><path d="M0 0h-3.5" id="mf0d3ce1582" style="stroke:#969696;stroke-width:.3"/></defs><use style="fill:#969696;stroke:#969696;stroke-width:.3" x="50.589" xlink:href="#mf0d3ce1582" y="257.236"/></g><g style="fill:#969696" transform="matrix(.14 0 0 -.14 24.13 262.261)" id="text_9"><use xlink:href="#HelveticaWorld-Regular-30"/><use x="55.615" xlink:href="#HelveticaWorld-Regular-2e"/><use x="83.398" xlink:href="#HelveticaWorld-Regular-32"/></g></g><g id="ytick_2"><path clip-path="url(#p9b414dbe50)" d="M50.59 215.16h357.12" style="fill:none;stroke:#969696;stroke-linecap:square;stroke-width:.3" id="line2d_10"/><use style="fill:#969696;stroke:#969696;stroke-width:.3" x="50.589" xlink:href="#mf0d3ce1582" y="215.16" id="line2d_11"/><g style="fill:#969696" transform="matrix(.14 0 0 -.14 24.13 220.185)" id="text_10"><defs><path d="M678 1581h1447v2041h-12L678 1581zm2010-487V0h-563v1094H159v550l2063 2856h466V1581h659v-487h-659z" id="HelveticaWorld-Regular-34" transform="scale(.01563)"/></defs><use xlink:href="#HelveticaWorld-Regular-30"/><use x="55.615" xlink:href="#HelveticaWorld-Regular-2e"/><use x="83.398" xlink:href="#HelveticaWorld-Regular-34"/></g></g><g id="ytick_3"><path clip-path="url(#p9b414dbe50)" d="M50.59 173.084h357.12" style="fill:none;stroke:#969696;stroke-linecap:square;stroke-width:.3" id="line2d_12"/><use style="fill:#969696;stroke:#969696;stroke-width:.3" x="50.589" xlink:href="#mf0d3ce1582" y="173.084" id="line2d_13"/><g style="fill:#969696" transform="matrix(.14 0 0 -.14 24.13 178.109)" id="text_11"><defs><path d="M903 1381q0-440 262-719 263-278 685-278 403 0 642 284 239 285 239 748 0 403-236 675t-670 272q-422 0-672-266t-250-716zm1766 1922q-63 344-255 517-192 174-520 174-519 0-791-507-272-506-278-1159l13-12q359 553 1068 553 566 0 988-375t422-1053q0-672-400-1118-400-445-1078-445-782 0-1188 556-406 557-406 1660 0 1062 415 1734 416 672 1247 672 538 0 910-321 372-320 403-876h-550z" id="HelveticaWorld-Regular-36" transform="scale(.01563)"/></defs><use xlink:href="#HelveticaWorld-Regular-30"/><use x="55.615" xlink:href="#HelveticaWorld-Regular-2e"/><use x="83.398" xlink:href="#HelveticaWorld-Regular-36"/></g></g><g id="ytick_4"><path clip-path="url(#p9b414dbe50)" d="M50.59 131.008h357.12" style="fill:none;stroke:#969696;stroke-linecap:square;stroke-width:.3" id="line2d_14"/><use style="fill:#969696;stroke:#969696;stroke-width:.3" x="50.589" xlink:href="#mf0d3ce1582" y="131.008" id="line2d_15"/><g style="fill:#969696" transform="matrix(.14 0 0 -.14 24.13 136.032)" id="text_12"><defs><path d="M1766 2597q347 0 573 198 227 199 227 527 0 294-218 483-217 189-620 189-359 0-555-199-195-198-195-504 0-328 244-511t544-183zm6-484q-434 0-681-241t-247-591q0-403 250-650t712-247q410 0 655 247t245 657q0 350-245 587-245 238-689 238zm1378 1228q0-678-578-947 397-178 567-471 170-292 170-623 0-641-413-1032-412-390-1112-390-612 0-1076 336T244 1306q0 763 762 1082-609 243-609 875 0 531 361 884t1001 353q641 0 1016-333t375-826z" id="HelveticaWorld-Regular-38" transform="scale(.01563)"/></defs><use xlink:href="#HelveticaWorld-Regular-30"/><use x="55.615" xlink:href="#HelveticaWorld-Regular-2e"/><use x="83.398" xlink:href="#HelveticaWorld-Regular-38"/></g></g><g id="ytick_5"><path clip-path="url(#p9b414dbe50)" d="M50.59 88.932h357.12" style="fill:none;stroke:#969696;stroke-linecap:square;stroke-width:.3" id="line2d_16"/><use style="fill:#969696;stroke:#969696;stroke-width:.3" x="50.589" xlink:href="#mf0d3ce1582" y="88.932" id="line2d_17"/><g style="fill:#969696" transform="matrix(.14 0 0 -.14 24.13 93.956)" id="text_13"><use xlink:href="#HelveticaWorld-Regular-31"/><use x="55.615" xlink:href="#HelveticaWorld-Regular-2e"/><use x="83.398" xlink:href="#HelveticaWorld-Regular-30"/></g></g><g id="ytick_6"><path clip-path="url(#p9b414dbe50)" d="M50.59 46.855h357.12" style="fill:none;stroke:#969696;stroke-linecap:square;stroke-width:.3" id="line2d_18"/><use style="fill:#969696;stroke:#969696;stroke-width:.3" x="50.589" xlink:href="#mf0d3ce1582" y="46.855" id="line2d_19"/><g style="fill:#969696" transform="matrix(.14 0 0 -.14 24.13 51.88)" id="text_14"><use xlink:href="#HelveticaWorld-Regular-31"/><use x="55.615" xlink:href="#HelveticaWorld-Regular-2e"/><use x="83.398" xlink:href="#HelveticaWorld-Regular-32"/></g></g><g style="fill:#969696" transform="matrix(.14 0 0 -.14 7.2 17.25)" id="text_15"><defs><path d="M2497 3347h612L1913 63q-32-88-63-166-272-725-469-995-197-271-637-271-231 0-378 50v513q159-57 350-57 206 0 301 130 96 130 283 636L56 3347h635l897-2725h12l897 2725z" id="HelveticaWorld-Regular-79" transform="scale(.01563)"/></defs><use xlink:href="#HelveticaWorld-Regular-79"/><use x="49.609" xlink:href="#HelveticaWorld-Regular-20"/><use x="74.023" xlink:href="#HelveticaWorld-Regular-6c"/><use x="96.045" xlink:href="#HelveticaWorld-Regular-61"/><use x="150.977" xlink:href="#HelveticaWorld-Regular-62"/><use x="207.471" xlink:href="#HelveticaWorld-Regular-65"/><use x="262.891" xlink:href="#HelveticaWorld-Regular-6c"/></g></g><path clip-path="url(#p9b414dbe50)" d="m50.59 287.767 3.606-9.688 3.608-3.47 3.607-4.291 3.607-2.662 3.607-9.613 3.608-.303 3.607-14.005 3.607-5.746 3.608 8.175 3.607-12.434 3.607 1.86 3.607-4.33 3.608-10.876 3.607 14.768 3.607-3.416 3.607-1.545 3.608-19.925 3.607-1.576 3.607-4.55 3.608-4.805 3.607 1.35 3.607 4.767 3.607-8.967 3.608 11.758 3.607-13.075 3.607 8.418 3.607-18.819 3.608 6.999 3.607.419 3.607 1.38 3.608-12.444 3.607 5.023 3.607-3.98 3.607 9.993 3.608-14.123 3.607-1.363 3.607-1.539 3.607-8.272 3.608 4.152 3.607 5.46 3.607-2.916 3.608-6.734 3.607 12.192 3.607-13.947 3.607-1.237 3.608 8.556 3.607.615 3.607-4.995 3.607-2.06 3.608-5.365 3.607 1.773 3.607-12.539 3.608 17.697 3.607-3.175 3.607.094 3.607-11.233 3.608 7.544 3.607-5.329 3.607 3.84 3.607.985 3.608.229 3.607-12.264 3.607 10.14 3.608-1.974 3.607-4.352 3.607-10.23 3.607 14.527 3.608-16.273 3.607 14.933 3.607-19.182 3.607 10.036 3.608-11.326 3.607 7.2 3.607-3.44 3.608 14.128 3.607-5.715 3.607 2.842 3.607-4.27 3.608 3.174 3.607-4.74 3.607-2.565 3.607 6.836 3.608-13.739 3.607 2.137 3.607 5.834 3.608-5.92 3.607 8.546 3.607-10.619 3.607-7.904 3.608 12.386 3.607-7.794 3.607 10.82 3.607-12.738 3.608 8.548 3.607 1.807 3.607-8.905 3.608 11.502 3.607-17.424 3.607 16.939" style="fill:none;stroke:#1f77b4;stroke-linecap:square;stroke-width:1.5" id="line2d_20"/><path clip-path="url(#p9b414dbe50)" d="m50.59 285.053 3.606-.702 3.608-18.538 3.607-13.04 3.607 7.19 3.607-14.294 3.608-7.361 3.607-6.26 3.607.997 3.608-21.399 3.607 4.871 3.607-13.904 3.607-2.169 3.608 3.428 3.607-15.68 3.607 4.163 3.607-14.623 3.608 2.057 3.607-10.405 3.607.054 3.608-4.467 3.607 1.072 3.607-13.073 3.607 3.185 3.608 1.368 3.607-6.99 3.607 9.31 3.607-8.882 3.608-10.39 3.607 5.033 3.607-9.565 3.608 1.398 3.607 3.667 3.607-5.852 3.607-8.071 3.608-2.726 3.607-1.871 3.607-3.816 3.607-2.072 3.608 2.606 3.607-11.767 3.607 9.201 3.608-3.313L205.702 102l3.607.024 3.607.419 3.608 11.01 3.607-18.884 3.607 2.71 3.607-7.555 3.608 16.34 3.607-16.613 3.607 13.386 3.608-10.956 3.607 8.954 3.607-16.596 3.607-.474 3.608 3.712 3.607 2.135 3.607 5.867 3.607-14.435 3.608 3.94 3.607-6.815 3.607-4.178 3.608-3.415L285.062 72l3.607 16.685 3.607-8.379 3.608-8.815 3.607 10.736 3.607-8.342 3.607 8.846 3.608-4.018 3.607 2.882 3.607-17.226 3.608 11.086 3.607-3.44 3.607-13.128 3.607 3.853 3.608 13.312 3.607-3.618 3.607-10.418 3.607.136 3.608 6.359 3.607-15.417 3.607 5.983 3.608.907 3.607-1.871 3.607-3.667 3.607 8.092 3.608-2.51 3.607 3.281 3.607-.174 3.607-16.612 3.608 3.658 3.607 4.6 3.607 4.903 3.608-1.188 3.607 3.52 3.607-8.521" style="fill:none;stroke:#ff7f0e;stroke-linecap:square;stroke-width:1.5" id="line2d_21"/><path clip-path="url(#p9b414dbe50)" d="m50.59 292.753 3.606-17.99 3.608-2.632 3.607-4.648 3.607-5.08 3.607-8.796 3.608-20.374 3.607-2.372 3.607-8.517 3.608-14.026 3.607-8.122 3.607 10.401 3.607-14.997 3.608 3.044 3.607-.033 3.607-20.444 3.607 4.5 3.608-5.869 3.607-8.666 3.607-9.295 3.608.22 3.607-9.007 3.607 8.864 3.607-14.641 3.608 9.404 3.607-19.5 3.607 2.336 3.607 6.791 3.608-18.432 3.607 1.618 3.607 7.19 3.608-1.9 3.607-9.085 3.607 7.773 3.607-6.337 3.608-7.008 3.607-1.305 3.607-4.18 3.607 1.676 3.608-8.677 3.607-7.942 3.607 13.645 3.608-10.414 3.607 6.158 3.607-14.201 3.607 4.9 3.608-5.366 3.607 6.282 3.607-.906 3.607-8.893 3.608 1.154 3.607-13.897 3.607 2.129 3.608-1.17 3.607-4.746 3.607 15.806 3.607-11.28 3.608-2.066 3.607-9.297 3.607 12.764 3.607-.219 3.608 1.686 3.607.52 3.607-20.427 3.608 4.269 3.607-3.593 3.607 9.446 3.607-7.532 3.608 9.892 3.607-9.95 3.607-11.405 3.607 1.088 3.608 10.308 3.607-14.113 3.607 14.375 3.608-16.058 3.607-.777 3.607 2.065 3.607 2.64 3.608-6.023 3.607 11.351 3.607-12.558 3.607 4.014 3.608 11.888 3.607-7.845 3.607 3.384 3.608-18.33 3.607 9.813 3.607-1.165 3.607-3.741 3.608 4.958 3.607 4.146 3.607-15.132 3.607 12.596 3.608-7.457 3.607 5.355 3.607 1.988 3.608-16.743 3.607-2.982 3.607-.388" style="fill:none;stroke:#2ca02c;stroke-linecap:square;stroke-width:1.5" id="line2d_22"/><g style="fill:#1f77b4" transform="matrix(.14 0 0 -.14 411.28 144.912)" id="text_16"><defs><path d="M3150 0h-566v2059q0 475-166 677-165 202-549 202-378 0-632-288-253-287-253-825V0H422v3347h531v-472h13q397 569 1012 569 569 0 870-302 302-301 302-864V0z" id="HelveticaWorld-Regular-6e" transform="scale(.01563)"/><path d="M813 1678q0-559 253-920t718-361q482 0 732 378t250 903q0 531-250 901-250 371-732 371-446 0-709-349-262-348-262-923zm-575 0q0 747 415 1256 416 510 1131 510 732 0 1144-516 413-515 413-1250 0-737-410-1256Q2522-97 1784-97q-709 0-1128 503-418 503-418 1272z" id="HelveticaWorld-Regular-6f" transform="scale(.01563)"/><path d="M2534 2222q-121 716-793 716-416 0-669-333t-253-927q0-647 234-967 235-320 681-320 300 0 519 220t281 573h544q-84-621-439-951T1722-97q-659 0-1081 451-422 452-422 1227 0 850 422 1356 422 507 1184 507 556 0 886-333t367-889h-544z" id="HelveticaWorld-Regular-63" transform="scale(.01563)"/><path d="M422 3956v638h562v-638H422zM984 0H422v3347h562V0z" id="HelveticaWorld-Regular-69" transform="scale(.01563)"/><path d="M831 1684q0-615 244-954t659-339q404 0 660 293 256 294 256 832 0 706-224 1064-223 358-679 358-459 0-688-305-228-305-228-949zM3188 191q0-807-388-1203-387-397-1169-397-562 0-895 259T353-409h563q43-244 226-388t530-144q472 0 712 254 241 253 241 821v238h-12Q2297-97 1722-97q-716 0-1094 528T250 1772q0 744 381 1208 382 464 1013 464 634 0 1000-569h12v472h532V191z" id="HelveticaWorld-Regular-67" transform="scale(.01563)"/></defs><use xlink:href="#HelveticaWorld-Regular-6e"/><use x="55.176" xlink:href="#HelveticaWorld-Regular-6f"/><use x="111.084" xlink:href="#HelveticaWorld-Regular-20"/><use x="135.498" xlink:href="#HelveticaWorld-Regular-62"/><use x="191.992" xlink:href="#HelveticaWorld-Regular-61"/><use x="246.924" xlink:href="#HelveticaWorld-Regular-6c"/><use x="268.945" xlink:href="#HelveticaWorld-Regular-61"/><use x="323.877" xlink:href="#HelveticaWorld-Regular-6e"/><use x="379.053" xlink:href="#HelveticaWorld-Regular-63"/><use x="430.322" xlink:href="#HelveticaWorld-Regular-69"/><use x="452.344" xlink:href="#HelveticaWorld-Regular-6e"/><use x="507.52" xlink:href="#HelveticaWorld-Regular-67"/></g><g style="fill:#ff7f0e" transform="matrix(.14 0 0 -.14 411.28 57.07)" id="text_17"><defs><path d="M3713 3213q-104 468-434 710-329 243-854 243-678 0-1091-493-412-492-412-1329 0-969 390-1443 391-473 1132-473 487 0 838 323 352 324 474 940h603q-121-885-671-1349T2350-122q-941 0-1505 647T281 2322q0 1109 589 1751 589 643 1555 643 800 0 1297-413 497-412 591-1090h-600z" id="HelveticaWorld-Regular-43" transform="scale(.01563)"/><path d="M1141 2503h1437q500 0 717 205 218 205 218 589 0 350-188 558-187 208-644 208H1141V2503zm0-2503H519v4594h2125q740 0 1121-316 382-315 382-919 0-396-153-662t-481-438q281-103 406-289t144-576l40-856q6-213 67-299t171-136V0h-769q-59 172-84 522t-25 631q0 141-25 288t-110 265q-84 119-247 192-162 74-437 74H1141V0z" id="HelveticaWorld-Regular-52" transform="scale(.01563)"/><path d="M3413 4594h696L2425 0h-653L97 4594h691L2100 678h13l1300 3916z" id="HelveticaWorld-Regular-56" transform="scale(.01563)"/><path d="M1850 1484H281v575h1569v-575z" id="HelveticaWorld-Regular-2d" transform="scale(.01563)"/><path d="M238 4403h3109v-494q-641-653-1172-1766Q1644 1031 1497 0H878q94 850 622 1954 528 1105 1213 1899H238v550z" id="HelveticaWorld-Regular-37" transform="scale(.01563)"/></defs><use xlink:href="#HelveticaWorld-Regular-43"/><use x="72.314" xlink:href="#HelveticaWorld-Regular-52"/><use x="139.826" xlink:href="#HelveticaWorld-Regular-56"/><use x="198.027" xlink:href="#HelveticaWorld-Regular-2d"/><use x="231.328" xlink:href="#HelveticaWorld-Regular-32"/><use x="286.943" xlink:href="#HelveticaWorld-Regular-37"/></g><g style="fill:#2ca02c" transform="matrix(.14 0 0 -.14 411.28 30.217)" id="text_18"><defs><path d="m378 4134 672-243v703h384v-703l672 243 128-353-690-215 428-591-316-216-415 600-416-600-312 216 428 591-691 215 128 353z" id="HelveticaWorld-Regular-2a" transform="scale(.01563)"/></defs><use xlink:href="#HelveticaWorld-Regular-43"/><use x="72.314" xlink:href="#HelveticaWorld-Regular-52"/><use x="139.826" xlink:href="#HelveticaWorld-Regular-56"/><use x="198.027" xlink:href="#HelveticaWorld-Regular-2d"/><use x="231.328" xlink:href="#HelveticaWorld-Regular-32"/><use x="286.943" xlink:href="#HelveticaWorld-Regular-37"/><use x="342.559" xlink:href="#HelveticaWorld-Regular-2a"/></g></g></g><defs><clipPath id="p9b414dbe50"><path d="M50.589 26.641h357.12v266.112H50.589z"/></clipPath></defs></svg>