<svg height="472.743" viewBox="0 0 553.04 354.557" width="737.387" xmlns="http://www.w3.org/2000/svg" xmlns:xlink="http://www.w3.org/1999/xlink"><defs><style>*{stroke-linecap:butt;stroke-linejoin:round}</style></defs><g id="figure_1"><path d="M0 354.557h553.04V0H0z" style="fill:#fff" id="patch_1"/><g id="axes_1"><path d="M87.963 293.258h357.12V27.146H87.962z" style="fill:none" id="patch_2"/><g id="matplotlib.axis_1"><g id="xtick_1"><g id="line2d_1"><defs><path d="M0 0v3.5" id="m4b5f415ca1" style="stroke:#969696;stroke-width:.4"/></defs><use style="fill:#969696;stroke:#969696;stroke-width:.4" x="87.963" xlink:href="#m4b5f415ca1" y="293.258"/></g><g style="fill:#969696" transform="matrix(.14 0 0 -.14 76.83 310.896)" id="text_1"><defs><path d="M2034 4250q-487 0-733-480-245-479-245-1442 0-959 245-1439 246-480 733-480 491 0 736 480 246 480 246 1439 0 963-246 1442-245 480-736 480zm0 500q785 0 1199-621 414-620 414-1801 0-1178-414-1799Q2819-91 2034-91q-784 0-1198 620-414 621-414 1799 0 1181 414 1801 414 621 1198 621z" id="DejaVuSans-30" transform="scale(.01563)"/><path d="M684 794h660V0H684v794z" id="DejaVuSans-2e" transform="scale(.01563)"/></defs><use xlink:href="#DejaVuSans-30"/><use x="63.623" xlink:href="#DejaVuSans-2e"/><use x="95.41" xlink:href="#DejaVuSans-30"/></g></g><g id="xtick_2"><use style="fill:#969696;stroke:#969696;stroke-width:.4" x="147.482" xlink:href="#m4b5f415ca1" y="293.258" id="line2d_2"/><g style="fill:#969696" transform="matrix(.14 0 0 -.14 136.35 310.896)" id="text_2"><defs><path d="M691 4666h2478v-532H1269V2991q137 47 274 70 138 23 276 23 781 0 1237-428 457-428 457-1159 0-753-469-1171Q2575-91 1722-91q-294 0-599 50Q819 9 494 109v635q281-153 581-228t634-75q541 0 856 284 316 284 316 772 0 487-316 771-315 285-856 285-253 0-505-56-251-56-513-175v2344z" id="DejaVuSans-35" transform="scale(.01563)"/></defs><use xlink:href="#DejaVuSans-30"/><use x="63.623" xlink:href="#DejaVuSans-2e"/><use x="95.41" xlink:href="#DejaVuSans-35"/></g></g><g id="xtick_3"><use style="fill:#969696;stroke:#969696;stroke-width:.4" x="207.002" xlink:href="#m4b5f415ca1" y="293.258" id="line2d_3"/><g style="fill:#969696" transform="matrix(.14 0 0 -.14 195.87 310.896)" id="text_3"><defs><path d="M794 531h1031v3560L703 3866v575l1116 225h631V531h1031V0H794v531z" id="DejaVuSans-31" transform="scale(.01563)"/></defs><use xlink:href="#DejaVuSans-31"/><use x="63.623" xlink:href="#DejaVuSans-2e"/><use x="95.41" xlink:href="#DejaVuSans-30"/></g></g><g id="xtick_4"><use style="fill:#969696;stroke:#969696;stroke-width:.4" x="266.522" xlink:href="#m4b5f415ca1" y="293.258" id="line2d_4"/><g style="fill:#969696" transform="matrix(.14 0 0 -.14 255.39 310.896)" id="text_4"><use xlink:href="#DejaVuSans-31"/><use x="63.623" xlink:href="#DejaVuSans-2e"/><use x="95.41" xlink:href="#DejaVuSans-35"/></g></g><g id="xtick_5"><use style="fill:#969696;stroke:#969696;stroke-width:.4" x="326.043" xlink:href="#m4b5f415ca1" y="293.258" id="line2d_5"/><g style="fill:#969696" transform="matrix(.14 0 0 -.14 314.91 310.896)" id="text_5"><defs><path d="M1228 531h2203V0H469v531q359 372 979 998 621 627 780 809 303 340 423 576 121 236 121 464 0 372-261 606-261 235-680 235-297 0-627-103-329-103-704-313v638q381 153 712 231 332 78 607 78 725 0 1156-363 431-362 431-968 0-288-108-546-107-257-392-607-78-91-497-524-418-433-1181-1211z" id="DejaVuSans-32" transform="scale(.01563)"/></defs><use xlink:href="#DejaVuSans-32"/><use x="63.623" xlink:href="#DejaVuSans-2e"/><use x="95.41" xlink:href="#DejaVuSans-30"/></g></g><g id="xtick_6"><use style="fill:#969696;stroke:#969696;stroke-width:.4" x="385.563" xlink:href="#m4b5f415ca1" y="293.258" id="line2d_6"/><g style="fill:#969696" transform="matrix(.14 0 0 -.14 374.43 310.896)" id="text_6"><use xlink:href="#DejaVuSans-32"/><use x="63.623" xlink:href="#DejaVuSans-2e"/><use x="95.41" xlink:href="#DejaVuSans-35"/></g></g><g id="xtick_7"><use style="fill:#969696;stroke:#969696;stroke-width:.4" x="445.082" xlink:href="#m4b5f415ca1" y="293.258" id="line2d_7"/><g style="fill:#969696" transform="matrix(.14 0 0 -.14 433.95 310.896)" id="text_7"><defs><path d="M2597 2516q453-97 707-404 255-306 255-756 0-690-475-1069Q2609-91 1734-91q-293 0-604 58T488 141v609q262-153 574-231 313-78 654-78 593 0 904 234t311 681q0 413-289 645-289 233-804 233h-544v519h569q465 0 712 186t247 536q0 359-255 551-254 193-729 193-260 0-557-57-297-56-653-174v562q360 100 674 150t592 50q719 0 1137-327 419-326 419-882 0-388-222-655t-631-370z" id="DejaVuSans-33" transform="scale(.01563)"/></defs><use xlink:href="#DejaVuSans-33"/><use x="63.623" xlink:href="#DejaVuSans-2e"/><use x="95.41" xlink:href="#DejaVuSans-30"/></g></g><g style="fill:#969696" transform="matrix(.14 0 0 -.14 222.356 344.446)" id="text_8"><defs><path d="M2906 2969v1894h575V0h-575v525q-181-312-458-464-276-152-664-152-634 0-1033 506-398 507-398 1332t398 1331q399 506 1033 506 388 0 664-152 277-151 458-463zM947 1747q0-634 261-995t717-361q456 0 718 361 263 361 263 995t-263 995q-262 361-718 361t-717-361q-261-361-261-995z" id="DejaVuSans-64" transform="scale(.01563)"/><path d="M603 3500h575V0H603v3500zm0 1363h575v-729H603v729z" id="DejaVuSans-69" transform="scale(.01563)"/><path d="M2834 3397v-544q-243 125-506 187-262 63-544 63-428 0-642-131t-214-394q0-200 153-314t616-217l197-44q612-131 870-370t258-667q0-488-386-773Q2250-91 1575-91q-281 0-586 55T347 128v594q319-166 628-249 309-82 613-82 406 0 624 139 219 139 219 392 0 234-158 359-157 125-692 241l-200 47q-534 112-772 345-237 233-237 639 0 494 350 762 350 269 994 269 318 0 599-47 282-46 519-140z" id="DejaVuSans-73" transform="scale(.01563)"/><path d="M1172 4494v-994h1184v-447H1172V1153q0-428 117-550t477-122h590V0h-590q-666 0-919 248-253 249-253 905v1900H172v447h422v994h578z" id="DejaVuSans-74" transform="scale(.01563)"/><path d="M2194 1759q-697 0-966-159t-269-544q0-306 202-486 202-179 548-179 479 0 768 339t289 901v128h-572zm1147 238V0h-575v531q-197-318-491-470T1556-91q-537 0-855 302-317 302-317 808 0 590 395 890 396 300 1180 300h807v57q0 397-261 614t-733 217q-300 0-585-72-284-72-546-216v532q315 122 612 182 297 61 578 61 760 0 1135-394 375-393 375-1193z" id="DejaVuSans-61" transform="scale(.01563)"/><path d="M3513 2113V0h-575v2094q0 497-194 743-194 247-581 247-466 0-735-297-269-296-269-809V0H581v3500h578v-544q207 316 486 472 280 156 646 156 603 0 912-373 310-373 310-1098z" id="DejaVuSans-6e" transform="scale(.01563)"/><path d="M3122 3366v-538q-244 135-489 202t-495 67q-560 0-870-355-309-354-309-995t309-996q310-354 870-354 250 0 495 67t489 202V134Q2881 22 2623-34q-257-57-548-57-791 0-1257 497-465 497-465 1341 0 856 470 1346 471 491 1290 491 265 0 518-55 253-54 491-163z" id="DejaVuSans-63" transform="scale(.01563)"/><path d="M3597 1894v-281H953q38-594 358-905t892-311q331 0 642 81t618 244V178Q3153 47 2828-22t-659-69q-838 0-1327 487-489 488-489 1320 0 859 464 1363 464 505 1252 505 706 0 1117-455 411-454 411-1235zm-575 169q-6 471-264 752-258 282-683 282-481 0-770-272t-333-766l2050 4z" id="DejaVuSans-65" transform="scale(.01563)"/><path d="M550 4863h1325v-447h-750V-397h750v-447H550v5707z" id="DejaVuSans-5b" transform="scale(.01563)"/><path d="M3328 2828q216 388 516 572t706 184q547 0 844-383 297-382 297-1088V0h-578v2094q0 503-179 746-178 244-543 244-447 0-707-297-259-296-259-809V0h-578v2094q0 506-178 748t-550 242q-441 0-701-298-259-298-259-808V0H581v3500h578v-544q197 322 472 475t653 153q382 0 649-194 267-193 395-562z" id="DejaVuSans-6d" transform="scale(.01563)"/><path d="M1947 4863V-844H622v447h747v4813H622v447h1325z" id="DejaVuSans-5d" transform="scale(.01563)"/></defs><use xlink:href="#DejaVuSans-64"/><use x="63.477" xlink:href="#DejaVuSans-69"/><use x="91.26" xlink:href="#DejaVuSans-73"/><use x="143.359" xlink:href="#DejaVuSans-74"/><use x="182.568" xlink:href="#DejaVuSans-61"/><use x="243.848" xlink:href="#DejaVuSans-6e"/><use x="307.227" xlink:href="#DejaVuSans-63"/><use x="362.207" xlink:href="#DejaVuSans-65"/><use x="423.73" xlink:href="#DejaVuSans-20"/><use x="455.518" xlink:href="#DejaVuSans-5b"/><use x="494.531" xlink:href="#DejaVuSans-6d"/><use x="591.943" xlink:href="#DejaVuSans-5d"/></g></g><g id="matplotlib.axis_2"><g id="ytick_1"><path clip-path="url(#pdc6a92bcc0)" d="M87.963 257.742h357.12" style="fill:none;stroke:#969696;stroke-linecap:square;stroke-width:.3" id="line2d_8"/><g id="line2d_9"><defs><path d="M0 0h-3.5" id="m3ffb394036" style="stroke:#969696;stroke-width:.3"/></defs><use style="fill:#969696;stroke:#969696;stroke-width:.3" x="87.963" xlink:href="#m3ffb394036" y="257.742"/></g><g style="fill:#969696" transform="matrix(.14 0 0 -.14 58.698 263.06)" id="text_9"><use xlink:href="#DejaVuSans-30"/><use x="63.623" xlink:href="#DejaVuSans-2e"/><use x="95.41" xlink:href="#DejaVuSans-32"/></g></g><g id="ytick_2"><path clip-path="url(#pdc6a92bcc0)" d="M87.963 215.666h357.12" style="fill:none;stroke:#969696;stroke-linecap:square;stroke-width:.3" id="line2d_10"/><use style="fill:#969696;stroke:#969696;stroke-width:.3" x="87.963" xlink:href="#m3ffb394036" y="215.666" id="line2d_11"/><g style="fill:#969696" transform="matrix(.14 0 0 -.14 58.698 220.984)" id="text_10"><defs><path d="M2419 4116 825 1625h1594v2491zm-166 550h794V1625h666v-525h-666V0h-628v1100H313v609l1940 2957z" id="DejaVuSans-34" transform="scale(.01563)"/></defs><use xlink:href="#DejaVuSans-30"/><use x="63.623" xlink:href="#DejaVuSans-2e"/><use x="95.41" xlink:href="#DejaVuSans-34"/></g></g><g id="ytick_3"><path clip-path="url(#pdc6a92bcc0)" d="M87.963 173.59h357.12" style="fill:none;stroke:#969696;stroke-linecap:square;stroke-width:.3" id="line2d_12"/><use style="fill:#969696;stroke:#969696;stroke-width:.3" x="87.963" xlink:href="#m3ffb394036" y="173.589" id="line2d_13"/><g style="fill:#969696" transform="matrix(.14 0 0 -.14 58.698 178.908)" id="text_11"><defs><path d="M2113 2584q-425 0-674-291-248-290-248-796 0-503 248-796 249-292 674-292t673 292q248 293 248 796 0 506-248 796-248 291-673 291zm1253 1979v-575q-238 112-480 171-242 60-480 60-625 0-955-422-329-422-376-1275 184 272 462 417 279 145 613 145 703 0 1111-427 408-426 408-1160 0-719-425-1154Q2819-91 2113-91q-810 0-1238 620-428 621-428 1799 0 1106 525 1764t1409 658q238 0 480-47t505-140z" id="DejaVuSans-36" transform="scale(.01563)"/></defs><use xlink:href="#DejaVuSans-30"/><use x="63.623" xlink:href="#DejaVuSans-2e"/><use x="95.41" xlink:href="#DejaVuSans-36"/></g></g><g id="ytick_4"><path clip-path="url(#pdc6a92bcc0)" d="M87.963 131.513h357.12" style="fill:none;stroke:#969696;stroke-linecap:square;stroke-width:.3" id="line2d_14"/><use style="fill:#969696;stroke:#969696;stroke-width:.3" x="87.963" xlink:href="#m3ffb394036" y="131.513" id="line2d_15"/><g style="fill:#969696" transform="matrix(.14 0 0 -.14 58.698 136.832)" id="text_12"><defs><path d="M2034 2216q-450 0-708-241-257-241-257-662 0-422 257-663 258-241 708-241t709 242q260 243 260 662 0 421-258 662-257 241-711 241zm-631 268q-406 100-633 378-226 279-226 679 0 559 398 884 399 325 1092 325 697 0 1094-325t397-884q0-400-227-679-226-278-629-378 456-106 710-416 255-309 255-755 0-679-414-1042Q2806-91 2034-91q-771 0-1186 362-414 363-414 1042 0 446 256 755 257 310 713 416zm-231 997q0-362 226-565 227-203 636-203 407 0 636 203 230 203 230 565 0 363-230 566-229 203-636 203-409 0-636-203-226-203-226-566z" id="DejaVuSans-38" transform="scale(.01563)"/></defs><use xlink:href="#DejaVuSans-30"/><use x="63.623" xlink:href="#DejaVuSans-2e"/><use x="95.41" xlink:href="#DejaVuSans-38"/></g></g><g id="ytick_5"><path clip-path="url(#pdc6a92bcc0)" d="M87.963 89.437h357.12" style="fill:none;stroke:#969696;stroke-linecap:square;stroke-width:.3" id="line2d_16"/><use style="fill:#969696;stroke:#969696;stroke-width:.3" x="87.963" xlink:href="#m3ffb394036" y="89.437" id="line2d_17"/><g style="fill:#969696" transform="matrix(.14 0 0 -.14 58.698 94.756)" id="text_13"><use xlink:href="#DejaVuSans-31"/><use x="63.623" xlink:href="#DejaVuSans-2e"/><use x="95.41" xlink:href="#DejaVuSans-30"/></g></g><g id="ytick_6"><path clip-path="url(#pdc6a92bcc0)" d="M87.963 47.36h357.12" style="fill:none;stroke:#969696;stroke-linecap:square;stroke-width:.3" id="line2d_18"/><use style="fill:#969696;stroke:#969696;stroke-width:.3" x="87.963" xlink:href="#m3ffb394036" y="47.361" id="line2d_19"/><g style="fill:#969696" transform="matrix(.14 0 0 -.14 58.698 52.68)" id="text_14"><use xlink:href="#DejaVuSans-31"/><use x="63.623" xlink:href="#DejaVuSans-2e"/><use x="95.41" xlink:href="#DejaVuSans-32"/></g></g><g style="fill:#969696" transform="matrix(.14 0 0 -.14 7.2 17.838)" id="text_15"><defs><path d="M191 3500h609L1894 563l1094 2937h609L2284 0h-781L191 3500z" id="DejaVuSans-76" transform="scale(.01563)"/><path d="M1959 3097q-462 0-731-361t-269-989q0-628 267-989 268-361 733-361 460 0 728 362 269 363 269 988 0 622-269 986-268 364-728 364zm0 487q750 0 1178-488 429-487 429-1349 0-859-429-1349Q2709-91 1959-91q-753 0-1180 489-426 490-426 1349 0 862 426 1349 427 488 1180 488z" id="DejaVuSans-6f" transform="scale(.01563)"/><path d="M603 4863h575V0H603v4863z" id="DejaVuSans-6c" transform="scale(.01563)"/><path d="M2906 1791q0 625-258 968-257 344-723 344-462 0-720-344-258-343-258-968 0-622 258-966t720-344q466 0 723 344 258 344 258 966zm575-1357q0-893-397-1329-396-436-1215-436-303 0-572 45t-522 139v559q253-137 500-202 247-66 503-66 566 0 847 295t281 892v285q-178-310-456-463T1784 0Q1141 0 747 490 353 981 353 1791q0 812 394 1302 394 491 1037 491 388 0 666-153t456-462v531h575V434z" id="DejaVuSans-67" transform="scale(.01563)"/><path d="M1831 0 50 4666h659L2188 738l1481 3928h656L2547 0h-716z" id="DejaVuSans-56" transform="scale(.01563)"/></defs><use xlink:href="#DejaVuSans-76"/><use x="59.18" xlink:href="#DejaVuSans-6f"/><use x="120.361" xlink:href="#DejaVuSans-6c"/><use x="148.145" xlink:href="#DejaVuSans-74"/><use x="187.354" xlink:href="#DejaVuSans-61"/><use x="248.633" xlink:href="#DejaVuSans-67"/><use x="312.109" xlink:href="#DejaVuSans-65"/><use x="373.633" xlink:href="#DejaVuSans-20"/><use x="405.42" xlink:href="#DejaVuSans-5b"/><use x="444.434" xlink:href="#DejaVuSans-56"/><use x="512.842" xlink:href="#DejaVuSans-5d"/></g></g><path clip-path="url(#pdc6a92bcc0)" d="m87.963 288.272 3.607-9.688 3.607-3.469 3.607-4.292 3.608-2.662 3.607-9.613 3.607-.302 3.607-14.006 3.608-5.746 3.607 8.175 3.607-12.433 3.608 1.86 3.607-4.33 3.607-10.876 3.607 14.767 3.608-3.416 3.607-1.544 3.607-19.925 3.607-1.577 3.608-4.55 3.607-4.804 3.607 1.35 3.607 4.766 3.608-8.966 3.607 11.757 3.607-13.074 3.608 8.418 3.607-18.82 3.607 6.999 3.607.42 3.608 1.38 3.607-12.445 3.607 5.023 3.607-3.98 3.608 9.993 3.607-14.122 3.607-1.363 3.608-1.54 3.607-8.272 3.607 4.152 3.607 5.46 3.608-2.916 3.607-6.733 3.607 12.192 3.608-13.947 3.607-1.238 3.607 8.557 3.607.615 3.608-4.995 3.607-2.061 3.607-5.365 3.607 1.773 3.608-12.538 3.607 17.697 3.607-3.176 3.608.094 3.607-11.233 3.607 7.545 3.607-5.33 3.608 3.84 3.607.986 3.607.228 3.607-12.263 3.608 10.14 3.607-1.975 3.607-4.352 3.608-10.23 3.607 14.528 3.607-16.274 3.607 14.934 3.608-19.182 3.607 10.035 3.607-11.326 3.607 7.201 3.608-3.44 3.607 14.128 3.607-5.716 3.608 2.842 3.607-4.27 3.607 3.174 3.607-4.74 3.608-2.565 3.607 6.837 3.607-13.74 3.607 2.137 3.608 5.834 3.607-5.92 3.607 8.546 3.607-10.618 3.608-7.904 3.607 12.385 3.607-7.794 3.608 10.82 3.607-12.738 3.607 8.548 3.607 1.808 3.608-8.906 3.607 11.502 3.607-17.424 3.607 16.94" style="fill:none;stroke:#1f77b4;stroke-linecap:square;stroke-width:1.5" id="line2d_20"/><path clip-path="url(#pdc6a92bcc0)" d="m87.963 285.558 3.607-.702 3.607-18.538 3.607-13.04 3.608 7.19 3.607-14.294 3.607-7.36 3.607-6.26 3.608.996 3.607-21.399 3.607 4.872 3.608-13.905 3.607-2.168 3.607 3.427 3.607-15.68 3.608 4.163 3.607-14.623 3.607 2.058 3.607-10.405 3.608.053 3.607-4.467 3.607 1.073 3.607-13.074 3.608 3.185 3.607 1.369 3.607-6.99 3.608 9.31 3.607-8.883 3.607-10.39 3.607 5.033 3.608-9.565 3.607 1.398 3.607 3.667 3.607-5.852 3.608-8.07 3.607-2.726 3.607-1.872 3.608-3.815 3.607-2.073 3.607 2.606 3.607-11.767 3.608 9.201 3.607-3.313 3.607-11.422 3.608.024 3.607.419 3.607 11.01 3.607-18.884 3.608 2.711 3.607-7.555 3.607 16.34 3.607-16.614 3.608 13.387 3.607-10.956 3.607 8.953 3.608-16.596 3.607-.473 3.607 3.711 3.607 2.135 3.608 5.867 3.607-14.434 3.607 3.94 3.607-6.816 3.608-4.178 3.607-3.414 3.607 1.423 3.608 16.684 3.607-8.378 3.607-8.816 3.607 10.736 3.608-8.342 3.607 8.846 3.607-4.018 3.607 2.883 3.608-17.227 3.607 11.086 3.607-3.44 3.608-13.127 3.607 3.852 3.607 13.312 3.607-3.618 3.608-10.418 3.607.137 3.607 6.358 3.607-15.416 3.608 5.983 3.607.906 3.607-1.871 3.607-3.667 3.608 8.092 3.607-2.509 3.607 3.28 3.608-.174 3.607-16.612 3.607 3.658 3.607 4.6 3.608 4.904 3.607-1.188 3.607 3.519L445.082 54" style="fill:none;stroke:#ff7f0e;stroke-linecap:square;stroke-width:1.5" id="line2d_21"/><path clip-path="url(#pdc6a92bcc0)" d="m87.963 293.258 3.607-17.99 3.607-2.632 3.607-4.647 3.608-5.08 3.607-8.797 3.607-20.373 3.607-2.373 3.608-8.517 3.607-14.026 3.607-8.121 3.608 10.4 3.607-14.997 3.607 3.044 3.607-.032 3.608-20.444 3.607 4.499 3.607-5.869 3.607-8.666 3.608-9.295 3.607.22 3.607-9.007 3.607 8.864 3.608-14.64 3.607 9.403 3.607-19.5 3.608 2.336 3.607 6.792 3.607-18.432 3.607 1.618 3.608 7.19 3.607-1.901 3.607-9.085 3.607 7.773 3.608-6.337 3.607-7.008 3.607-1.304 3.608-4.181 3.607 1.677 3.607-8.677 3.607-7.943 3.608 13.645 3.607-10.413 3.607 6.157 3.608-14.2 3.607 4.899 3.607-5.366 3.607 6.282 3.608-.906 3.607-8.893 3.607 1.155 3.607-13.897 3.608 2.128 3.607-1.17 3.607-4.746 3.608 15.807 3.607-11.28 3.607-2.067 3.607-9.297 3.608 12.764 3.607-.218 3.607 1.686 3.607.52 3.608-20.428 3.607 4.27 3.607-3.594 3.608 9.446 3.607-7.532 3.607 9.892 3.607-9.95 3.608-11.405 3.607 1.088 3.607 10.309 3.607-14.114 3.608 14.376 3.607-16.059 3.607-.776 3.608 2.064 3.607 2.64 3.607-6.023 3.607 11.352 3.608-12.558 3.607 4.014 3.607 11.887 3.607-7.845 3.608 3.384 3.607-18.33 3.607 9.814 3.607-1.165 3.608-3.742 3.607 4.959 3.607 4.146 3.608-15.133 3.607 12.597 3.607-7.458 3.607 5.355 3.608 1.988 3.607-16.743 3.607-2.981 3.607-.389" style="fill:none;stroke:#2ca02c;stroke-linecap:square;stroke-width:1.5" id="line2d_22"/><g style="fill:#1f77b4" transform="matrix(.14 0 0 -.14 455.796 145.796)" id="text_16"><defs><path d="M3116 1747q0 634-261 995t-717 361q-457 0-718-361t-261-995q0-634 261-995t718-361q456 0 717 361t261 995zM1159 2969q182 312 458 463 277 152 661 152 638 0 1036-506 399-506 399-1331T3314 415Q2916-91 2278-91q-384 0-661 152-276 152-458 464V0H581v4863h578V2969z" id="DejaVuSans-62" transform="scale(.01563)"/></defs><use xlink:href="#DejaVuSans-6e"/><use x="63.379" xlink:href="#DejaVuSans-6f"/><use x="124.561" xlink:href="#DejaVuSans-20"/><use x="156.348" xlink:href="#DejaVuSans-62"/><use x="219.824" xlink:href="#DejaVuSans-61"/><use x="281.104" xlink:href="#DejaVuSans-6c"/><use x="308.887" xlink:href="#DejaVuSans-61"/><use x="370.166" xlink:href="#DejaVuSans-6e"/><use x="433.545" xlink:href="#DejaVuSans-63"/><use x="488.525" xlink:href="#DejaVuSans-69"/><use x="516.309" xlink:href="#DejaVuSans-6e"/><use x="579.688" xlink:href="#DejaVuSans-67"/></g><g style="fill:#ff7f0e" transform="matrix(.14 0 0 -.14 455.796 57.863)" id="text_17"><defs><path d="M4122 4306v-665q-319 297-680 443-361 147-767 147-800 0-1225-489t-425-1414q0-922 425-1411t1225-489q406 0 767 147t680 444V359q-331-225-702-338-370-112-782-112-1060 0-1670 648-609 649-609 1771 0 1125 609 1773 610 649 1670 649 418 0 788-111 371-111 696-333z" id="DejaVuSans-43" transform="scale(.01563)"/><path d="M2841 2188q203-69 395-294t386-619L4263 0h-679l-596 1197q-232 469-449 622t-592 153h-688V0H628v4666h1425q800 0 1194-335 394-334 394-1009 0-441-205-732-205-290-595-402zM1259 4147V2491h794q456 0 689 211t233 620q0 409-233 617t-689 208h-794z" id="DejaVuSans-52" transform="scale(.01563)"/><path d="M313 2009h1684v-512H313v512z" id="DejaVuSans-2d" transform="scale(.01563)"/><path d="M525 4666h3000v-269L1831 0h-659l1594 4134H525v532z" id="DejaVuSans-37" transform="scale(.01563)"/></defs><use xlink:href="#DejaVuSans-43"/><use x="69.824" xlink:href="#DejaVuSans-52"/><use x="133.807" xlink:href="#DejaVuSans-56"/><use x="196.34" xlink:href="#DejaVuSans-2d"/><use x="232.424" xlink:href="#DejaVuSans-32"/><use x="296.047" xlink:href="#DejaVuSans-37"/></g><g style="fill:#2ca02c" transform="matrix(.14 0 0 -.14 455.796 31.01)" id="text_18"><defs><path d="m3009 3897-1121-606 1121-610-181-306-1050 634V1831h-356v1178L372 2375l-181 306 1122 610-1122 606 181 309 1050-634v1178h356V3572l1050 634 181-309z" id="DejaVuSans-2a" transform="scale(.01563)"/></defs><use xlink:href="#DejaVuSans-43"/><use x="69.824" xlink:href="#DejaVuSans-52"/><use x="133.807" xlink:href="#DejaVuSans-56"/><use x="196.34" xlink:href="#DejaVuSans-2d"/><use x="232.424" xlink:href="#DejaVuSans-32"/><use x="296.047" xlink:href="#DejaVuSans-37"/><use x="359.67" xlink:href="#DejaVuSans-2a"/></g></g></g><defs><clipPath id="pdc6a92bcc0"><path d="M87.963 27.146h357.12v266.112H87.963z"/></clipPath></defs></svg>