<svg height="409.245" viewBox="0 0 480.43 306.934" width="640.574" xmlns="http://www.w3.org/2000/svg" xmlns:xlink="http://www.w3.org/1999/xlink"><defs><style>*{stroke-linecap:butt;stroke-linejoin:round}</style></defs><g id="figure_1"><path d="M0 306.934h480.43V0H0z" fill="#fff" id="patch_1"/><g id="axes_1"><path d="M33.66 279.786h357.12V13.674H33.66z" fill="none" id="patch_2"/><g id="matplotlib.axis_1"><g id="xtick_1"><g id="line2d_1"><defs><path d="M0 0v3.5" id="madff503ffd" stroke="#969696" stroke-width=".8"/></defs><use x="33.66" xlink:href="#madff503ffd" y="279.786" fill="#969696" stroke="#969696" stroke-width=".8"/></g><g id="text_1"><defs><path d="M42.484 34.188q0 14.109-3.734 21.156-3.734 7.062-10.969 7.062-7.078 0-10.89-7.062-3.797-7.047-3.797-21.157 0-13.671 3.75-20.937Q20.609 6 27.78 6q7.235 0 10.969 7 3.734 7.016 3.734 21.188zm9.422 0q0-17.297-6.25-26.704-6.25-9.39-17.875-9.39-12.062 0-18.062 9.734-6 9.75-6 26.36 0 17.03 6.14 26.578 6.157 9.547 17.922 9.547 11.625 0 17.875-9.5t6.25-26.626z" id="HelveticaWorld-Regular-48"/><path d="M19.094 0H8.687v10.594h10.407z" id="HelveticaWorld-Regular-46"/></defs><g transform="matrix(.14 0 0 -.14 23.93 296.835)" fill="#969696"><use xlink:href="#HelveticaWorld-Regular-48"/><use x="55.615" xlink:href="#HelveticaWorld-Regular-46"/><use x="83.398" xlink:href="#HelveticaWorld-Regular-48"/></g></g></g><g id="xtick_2"><use x="93.18" xlink:href="#madff503ffd" y="279.786" fill="#969696" stroke="#969696" stroke-width=".8" id="line2d_2"/><g id="text_2"><defs><path d="M14.703 40.922q5.813 4.39 13.625 4.39 9.469 0 16.281-6.296 6.813-6.297 6.813-16.22 0-10.78-6.578-17.796-6.563-7-18.422-7-10.313 0-16.266 5.047Q4.203 8.109 3.22 17.39h9.094q.671-5.672 4.437-8.672 3.766-3 10.453-3 6.485 0 10.64 4.484Q42 14.703 42 21.688q0 7.125-4.36 11.421-4.343 4.297-11.218 4.297-7.813 0-13.047-6.687l-7.563.39 5.266 37.594h36.438v-8.5H17.672z" id="HelveticaWorld-Regular-53"/></defs><g transform="matrix(.14 0 0 -.14 83.45 296.835)" fill="#969696"><use xlink:href="#HelveticaWorld-Regular-48"/><use x="55.615" xlink:href="#HelveticaWorld-Regular-46"/><use x="83.398" xlink:href="#HelveticaWorld-Regular-53"/></g></g></g><g id="xtick_3"><use x="152.7" xlink:href="#madff503ffd" y="279.786" fill="#969696" stroke="#969696" stroke-width=".8" id="line2d_3"/><g id="text_3"><defs><path d="M35.89 0h-9.374v49.906H10.109v6.985q8.594.28 12.782 2.75Q27.094 62.109 29 70.313h6.89z" id="HelveticaWorld-Regular-49"/></defs><g transform="matrix(.14 0 0 -.14 142.97 296.835)" fill="#969696"><use xlink:href="#HelveticaWorld-Regular-49"/><use x="55.615" xlink:href="#HelveticaWorld-Regular-46"/><use x="83.398" xlink:href="#HelveticaWorld-Regular-48"/></g></g></g><g id="xtick_4"><use x="212.22" xlink:href="#madff503ffd" y="279.786" fill="#969696" stroke="#969696" stroke-width=".8" id="line2d_4"/><g transform="matrix(.14 0 0 -.14 202.49 296.835)" fill="#969696" id="text_4"><use xlink:href="#HelveticaWorld-Regular-49"/><use x="55.615" xlink:href="#HelveticaWorld-Regular-46"/><use x="83.398" xlink:href="#HelveticaWorld-Regular-53"/></g></g><g id="xtick_5"><use x="271.74" xlink:href="#madff503ffd" y="279.786" fill="#969696" stroke="#969696" stroke-width=".8" id="line2d_5"/><g id="text_5"><defs><path d="M4.39 45.125q0 12.39 6.391 18.781 6.406 6.407 17.938 6.407 9.656 0 15.812-5.86 6.157-5.86 6.157-15.14 0-7.22-3.547-12.188-3.532-4.953-10.422-8.703l-12.11-6.64Q13.922 15.921 12.5 8.296h38.188V0H2.593q.39 9.906 4.297 16.5 3.906 6.594 12.203 11.375l12.593 7.328q5.032 2.89 7.329 5.984 2.297 3.094 2.297 8.516 0 5.375-3.766 9.031-3.75 3.672-10.156 3.672-7.078 0-10.594-4.672-3.516-4.656-3.61-12.609z" id="HelveticaWorld-Regular-50"/></defs><g transform="matrix(.14 0 0 -.14 262.01 296.835)" fill="#969696"><use xlink:href="#HelveticaWorld-Regular-50"/><use x="55.615" xlink:href="#HelveticaWorld-Regular-46"/><use x="83.398" xlink:href="#HelveticaWorld-Regular-48"/></g></g></g><g id="xtick_6"><use x="331.26" xlink:href="#madff503ffd" y="279.786" fill="#969696" stroke="#969696" stroke-width=".8" id="line2d_6"/><g transform="matrix(.14 0 0 -.14 321.53 296.835)" fill="#969696" id="text_6"><use xlink:href="#HelveticaWorld-Regular-50"/><use x="55.615" xlink:href="#HelveticaWorld-Regular-46"/><use x="83.398" xlink:href="#HelveticaWorld-Regular-53"/></g></g><g id="xtick_7"><use x="390.78" xlink:href="#madff503ffd" y="279.786" fill="#969696" stroke="#969696" stroke-width=".8" id="line2d_7"/><g id="text_7"><defs><path d="M22.406 39.984q2.203-.187 4.594-.187 6.203 0 9.781 2.86 3.594 2.859 3.594 8.656 0 4.687-3.344 7.89-3.343 3.203-9.64 3.203-6.985 0-10.235-4.11-3.234-4.093-3.437-10.983h-8.64q0 10.984 5.765 16.984 5.765 6.016 16.937 6.016 9.922 0 15.828-5.11 5.907-5.094 5.907-13.39 0-10.704-9.032-14.5v-.204q11.72-4 11.72-16.406 0-9.906-6.595-16.265-6.593-6.344-18.703-6.344-9.906 0-16.312 5.203Q4.204 8.5 3.422 21.484H12.5q.203-8.109 4-11.797Q20.313 6 27.484 6q6.938 0 11.141 3.86 4.203 3.859 4.203 9.718 0 6.406-4.016 9.672-4 3.266-12.39 3.266-2 0-4.016-.094z" id="HelveticaWorld-Regular-51"/></defs><g transform="matrix(.14 0 0 -.14 381.05 296.835)" fill="#969696"><use xlink:href="#HelveticaWorld-Regular-51"/><use x="55.615" xlink:href="#HelveticaWorld-Regular-46"/><use x="83.398" xlink:href="#HelveticaWorld-Regular-48"/></g></g></g></g><g id="matplotlib.axis_2"><g id="ytick_1"><path clip-path="url(#pc801d52b10)" d="M33.66 244.27h357.12" fill="none" stroke="#969696" stroke-linecap="square" stroke-width=".2" id="line2d_8"/><g transform="matrix(.14 0 0 -.14 7.2 249.294)" fill="#969696" id="text_8"><use xlink:href="#HelveticaWorld-Regular-48"/><use x="55.615" xlink:href="#HelveticaWorld-Regular-46"/><use x="83.398" xlink:href="#HelveticaWorld-Regular-50"/></g></g><g id="ytick_2"><path clip-path="url(#pc801d52b10)" d="M33.66 202.193h357.12" fill="none" stroke="#969696" stroke-linecap="square" stroke-width=".2" id="line2d_9"/><g id="text_9"><defs><path d="M10.594 24.703h22.61v31.89h-.188zM42 17.093V0h-8.797v17.094H2.484v8.593L34.72 70.314H42v-45.61h10.297v-7.61z" id="HelveticaWorld-Regular-52"/></defs><g transform="matrix(.14 0 0 -.14 7.2 207.218)" fill="#969696"><use xlink:href="#HelveticaWorld-Regular-48"/><use x="55.615" xlink:href="#HelveticaWorld-Regular-46"/><use x="83.398" xlink:href="#HelveticaWorld-Regular-52"/></g></g></g><g id="ytick_3"><path clip-path="url(#pc801d52b10)" d="M33.66 160.117h357.12" fill="none" stroke="#969696" stroke-linecap="square" stroke-width=".2" id="line2d_10"/><g id="text_10"><defs><path d="M14.11 21.578q0-6.875 4.093-11.234Q22.313 6 28.906 6q6.297 0 10.032 4.438 3.734 4.453 3.734 11.687 0 6.297-3.688 10.547-3.687 4.25-10.468 4.25-6.594 0-10.5-4.156-3.907-4.157-3.907-11.188zM41.702 51.61q-.984 5.375-3.984 8.078-3 2.72-8.125 2.72-8.11 0-12.36-7.923-4.25-7.906-4.343-18.109l.203-.188q5.61 8.641 16.687 8.641 8.844 0 15.438-5.86 6.593-5.859 6.593-16.452 0-10.5-6.25-17.47-6.25-6.952-16.843-6.952-12.219 0-18.563 8.687-6.344 8.703-6.344 25.938 0 16.593 6.485 27.093 6.5 10.5 19.484 10.5 8.407 0 14.219-5.015 5.813-5 6.297-13.688z" id="HelveticaWorld-Regular-54"/></defs><g transform="matrix(.14 0 0 -.14 7.2 165.141)" fill="#969696"><use xlink:href="#HelveticaWorld-Regular-48"/><use x="55.615" xlink:href="#HelveticaWorld-Regular-46"/><use x="83.398" xlink:href="#HelveticaWorld-Regular-54"/></g></g></g><g id="ytick_4"><path clip-path="url(#pc801d52b10)" d="M33.66 118.04h357.12" fill="none" stroke="#969696" stroke-linecap="square" stroke-width=".2" id="line2d_11"/><g id="text_11"><defs><path d="M27.594 40.578q5.422 0 8.953 3.094 3.547 3.11 3.547 8.234 0 4.594-3.407 7.547-3.39 2.953-9.687 2.953-5.61 0-8.672-3.11-3.047-3.093-3.047-7.874 0-5.125 3.813-7.984 3.812-2.86 8.5-2.86zm.093-7.562q-6.78 0-10.64-3.766-3.86-3.766-3.86-9.234 0-6.297 3.907-10.157Q21 6 28.219 6q6.406 0 10.234 3.86 3.828 3.859 3.828 10.265 0 5.469-3.828 9.172-3.828 3.719-10.766 3.719zM49.22 52.203q0-10.594-9.032-14.797 6.204-2.781 8.86-7.36 2.656-4.562 2.656-9.733 0-10.016-6.453-16.125-6.438-6.094-17.375-6.094-9.563 0-16.813 5.25-7.25 5.25-7.25 17.062 0 11.922 11.907 16.907-9.516 3.796-9.516 13.671 0 8.297 5.64 13.813 5.641 5.516 15.641 5.516 10.016 0 15.875-5.204 5.86-5.203 5.86-12.906z" id="HelveticaWorld-Regular-56"/></defs><g transform="matrix(.14 0 0 -.14 7.2 123.065)" fill="#969696"><use xlink:href="#HelveticaWorld-Regular-48"/><use x="55.615" xlink:href="#HelveticaWorld-Regular-46"/><use x="83.398" xlink:href="#HelveticaWorld-Regular-56"/></g></g></g><g id="ytick_5"><path clip-path="url(#pc801d52b10)" d="M33.66 75.964h357.12" fill="none" stroke="#969696" stroke-linecap="square" stroke-width=".2" id="line2d_12"/><g transform="matrix(.14 0 0 -.14 7.2 80.989)" fill="#969696" id="text_12"><use xlink:href="#HelveticaWorld-Regular-49"/><use x="55.615" xlink:href="#HelveticaWorld-Regular-46"/><use x="83.398" xlink:href="#HelveticaWorld-Regular-48"/></g></g><g id="ytick_6"><path clip-path="url(#pc801d52b10)" d="M33.66 33.888h357.12" fill="none" stroke="#969696" stroke-linecap="square" stroke-width=".2" id="line2d_13"/><g transform="matrix(.14 0 0 -.14 7.2 38.913)" fill="#969696" id="text_13"><use xlink:href="#HelveticaWorld-Regular-49"/><use x="55.615" xlink:href="#HelveticaWorld-Regular-46"/><use x="83.398" xlink:href="#HelveticaWorld-Regular-50"/></g></g></g><path clip-path="url(#pc801d52b10)" d="M33.66 274.8l3.607-9.688 3.608-3.47 3.607-4.292 3.607-2.661 3.607-9.614 3.608-.302 3.607-14.005 3.607-5.746 3.607 8.175 3.608-12.434 3.607 1.86 3.607-4.33 3.608-10.876 3.607 14.767 3.607-3.416 3.607-1.544 3.608-19.925 3.607-1.577 3.607-4.55 3.607-4.804 3.608 1.35 3.607 4.766 3.607-8.966 3.608 11.758 3.607-13.075 3.607 8.418 3.607-18.82 3.608 7 3.607.419 3.607 1.38 3.607-12.444 3.608 5.023 3.607-3.98 3.607 9.993 3.608-14.123 3.607-1.363 3.607-1.54 3.607-8.272 3.608 4.153 3.607 5.46 3.607-2.916 3.607-6.734 3.608 12.192 3.607-13.947 3.607-1.237 3.608 8.556 3.607.615 3.607-4.995 3.607-2.06 3.608-5.365 3.607 1.773 3.607-12.539 3.607 17.697 3.608-3.175 3.607.094 3.607-11.233 3.608 7.544 3.607-5.329 3.607 3.839 3.607.986 3.608.228 3.607-12.263 3.607 10.14 3.607-1.974 3.608-4.352 3.607-10.23 3.607 14.527 3.608-16.273 3.607 14.933 3.607-19.182 3.607 10.035 3.608-11.325 3.607 7.2 3.607-3.44 3.607 14.128 3.608-5.715 3.607 2.842 3.607-4.27 3.608 3.174 3.607-4.74 3.607-2.565 3.607 6.836 3.608-13.74 3.607 2.137 3.607 5.834 3.607-5.919 3.608 8.546 3.607-10.619 3.607-7.904 3.608 12.386 3.607-7.794 3.607 10.82 3.607-12.738 3.608 8.548 3.607 1.807 3.607-8.905 3.607 11.502 3.608-17.424 3.607 16.939" fill="none" stroke="#1f77b4" stroke-linecap="square" stroke-width="1.5" id="line2d_14"/><path clip-path="url(#pc801d52b10)" d="M33.66 272.086l3.607-.702 3.608-18.538 3.607-13.04 3.607 7.19 3.607-14.294 3.608-7.361 3.607-6.26 3.607.996 3.607-21.398 3.608 4.871 3.607-13.904 3.607-2.169 3.608 3.428 3.607-15.68 3.607 4.163 3.607-14.623 3.608 2.057 3.607-10.405 3.607.054 3.607-4.467 3.608 1.072 3.607-13.073 3.607 3.184 3.608 1.37 3.607-6.991 3.607 9.31 3.607-8.882 3.608-10.39 3.607 5.033 3.607-9.566 3.607 1.399 3.608 3.667 3.607-5.853 3.607-8.07 3.608-2.726 3.607-1.871 3.607-3.816 3.607-2.072 3.608 2.606 3.607-11.767 3.607 9.2 3.607-3.312 3.608-11.422 3.607.024 3.607.418 3.608 11.01 3.607-18.883 3.607 2.71 3.607-7.555 3.608 16.34 3.607-16.613 3.607 13.386 3.607-10.956 3.608 8.953 3.607-16.595 3.607-.474 3.608 3.712 3.607 2.134 3.607 5.868 3.607-14.435 3.608 3.94 3.607-6.815 3.607-4.179 3.607-3.414 3.608 1.423 3.607 16.685 3.607-8.379 3.608-8.815 3.607 10.736 3.607-8.342 3.607 8.846 3.608-4.018 3.607 2.882 3.607-17.226 3.607 11.085 3.608-3.439 3.607-13.128 3.607 3.853 3.608 13.312 3.607-3.618 3.607-10.418 3.607.136 3.608 6.359 3.607-15.417 3.607 5.983 3.607.907 3.608-1.872 3.607-3.667 3.607 8.093 3.608-2.51 3.607 3.28 3.607-.173 3.607-16.612 3.608 3.658 3.607 4.6 3.607 4.903 3.607-1.188 3.608 3.52 3.607-8.522" fill="none" stroke="#ff7f0e" stroke-linecap="square" stroke-width="1.5" id="line2d_15"/><path clip-path="url(#pc801d52b10)" d="M33.66 279.786l3.607-17.99 3.608-2.633 3.607-4.647 3.607-5.08 3.607-8.796 3.608-20.374 3.607-2.372 3.607-8.517 3.607-14.026 3.608-8.122 3.607 10.4 3.607-14.996 3.608 3.044 3.607-.033 3.607-20.444 3.607 4.5 3.608-5.87 3.607-8.665 3.607-9.295 3.607.22 3.608-9.007 3.607 8.864 3.607-14.641 3.608 9.404 3.607-19.5 3.607 2.335 3.607 6.792 3.608-18.432 3.607 1.618 3.607 7.19 3.607-1.9 3.608-9.085 3.607 7.773 3.607-6.337 3.608-7.008 3.607-1.305 3.607-4.18 3.607 1.676 3.608-8.677 3.607-7.942 3.607 13.645 3.607-10.414 3.608 6.158 3.607-14.201 3.607 4.9 3.608-5.367 3.607 6.282 3.607-.905 3.607-8.893 3.608 1.154 3.607-13.897 3.607 2.128 3.607-1.169 3.608-4.746 3.607 15.806 3.607-11.28 3.608-2.066 3.607-9.297 3.607 12.764 3.607-.219 3.608 1.686 3.607.52 3.607-20.427 3.607 4.269 3.608-3.593 3.607 9.446 3.607-7.532 3.608 9.892 3.607-9.95 3.607-11.405 3.607 1.087 3.608 10.309L296.99 34.3l3.607 14.375 3.607-16.058 3.608-.777 3.607 2.065 3.607 2.64 3.608-6.023 3.607 11.351 3.607-12.558 3.607 4.014 3.608 11.888 3.607-7.845 3.607 3.384 3.607-18.33 3.608 9.813 3.607-1.165 3.607-3.741 3.608 4.958 3.607 4.146 3.607-15.132 3.607 12.596 3.608-7.457 3.607 5.355 3.607 1.988 3.607-16.743 3.608-2.982 3.607-.388" fill="none" stroke="#2ca02c" stroke-linecap="square" stroke-width="1.5" id="line2d_16"/><g id="text_14"><defs><path d="M49.219 0h-8.844v32.172q0 7.422-2.594 10.578-2.578 3.156-8.578 3.156-5.906 0-9.875-4.5-3.953-4.484-3.953-12.89V0H6.594v52.297h8.297v-7.375h.203q6.203 8.89 15.812 8.89 8.89 0 13.594-4.718 4.719-4.703 4.719-13.5z" id="HelveticaWorld-Regular-110"/><path d="M12.703 26.219q0-8.735 3.953-14.375 3.953-5.64 11.219-5.64 7.531 0 11.438 5.905 3.906 5.907 3.906 14.11 0 8.297-3.907 14.078-3.906 5.797-11.437 5.797-6.969 0-11.078-5.453-4.094-5.438-4.094-14.422zm-8.984 0q0 11.672 6.484 19.625 6.5 7.968 17.672 7.968 11.438 0 17.875-8.062 6.453-8.047 6.453-19.531 0-11.516-6.406-19.625-6.39-8.11-17.922-8.11-11.078 0-17.625 7.86-6.531 7.86-6.531 19.875z" id="HelveticaWorld-Regular-111"/><path d="M43.406 26.313q0 10.5-3.718 15.046-3.704 4.547-10.579 4.547-6.984-.11-10.562-5.453Q14.984 35.11 14.984 25q0-10.297 4.297-14.594Q23.578 6.11 29.297 6.11q6.5 0 10.297 5.344 3.812 5.344 3.812 14.86zM6.594 0v71.781h8.781V45.703h.203q5.61 8.11 15.14 8.11 9.766 0 15.766-7.25t6-18.876q0-13.093-6.062-21.156Q40.375-1.516 29.5-1.516q-9.578 0-14.406 8.016h-.203V0z" id="HelveticaWorld-Regular-98"/><path d="M38.375 26.703q-.969-1.015-3.828-1.656-2.86-.625-10.672-1.656-5.766-.688-8.469-2.844-2.703-2.14-2.703-5.656 0-4.297 2.281-6.688 2.297-2.39 7.329-2.39 6.296 0 11.171 3.578 4.891 3.593 4.891 8.718zM6.203 36.375q.297 8.844 5.734 13.14 5.454 4.297 15.844 4.297 8.297 0 13.907-3.765 5.624-3.75 5.624-10.844V9.078Q47.313 6 50.094 6q1.125 0 2.89.39V0Q50.594-.984 48-.984q-4.5 0-6.703 1.921-2.188 1.938-2.281 6.047-7.516-8.5-18.891-8.5-7.422 0-11.922 4.204Q3.72 6.89 3.72 13.624q0 6.89 3.906 11.125Q11.531 29 19 29.89l15.516 1.891q4.203.64 4.203 6.203 0 4.11-3.047 6.297-3.047 2.203-9.25 2.203-5.516 0-8.485-2.437-2.953-2.438-3.53-7.672z" id="HelveticaWorld-Regular-97"/><path d="M15.375 0H6.594v71.781h8.781z" id="HelveticaWorld-Regular-108"/><path d="M39.594 34.719q-1.89 11.187-12.39 11.187-6.5 0-10.454-5.203-3.953-5.203-3.953-14.484 0-10.11 3.656-15.11 3.672-5 10.64-5 4.688 0 8.11 3.438 3.422 3.437 4.39 8.953h8.5q-1.312-9.703-6.859-14.86-5.547-5.156-14.328-5.156-10.297 0-16.89 7.047-6.594 7.063-6.594 19.172 0 13.281 6.594 21.188 6.593 7.922 18.5 7.922 8.687 0 13.843-5.204 5.157-5.203 5.735-13.89z" id="HelveticaWorld-Regular-99"/><path d="M6.594 61.813v9.968h8.781v-9.969zM15.375 0H6.594v52.297h8.781z" id="HelveticaWorld-Regular-105"/><path d="M12.984 26.313q0-9.61 3.813-14.907Q20.609 6.11 27.094 6.11q6.312 0 10.312 4.579 4 4.593 4 13 0 11.03-3.5 16.625-3.484 5.593-10.61 5.593-7.171 0-10.75-4.765-3.562-4.766-3.562-14.828zM49.812 2.983q0-12.609-6.062-18.797-6.047-6.203-18.266-6.203-8.78 0-13.984 4.047Q6.297-13.922 5.516-6.39h8.796q.672-3.812 3.532-6.062 2.86-2.25 8.281-2.25 7.375 0 11.125 3.969 3.766 3.953 3.766 12.828v3.719h-.188q-4.937-7.329-13.922-7.329-11.187 0-17.093 8.25-5.907 8.25-5.907 20.953 0 11.625 5.953 18.875 5.97 7.25 15.829 7.25 9.906 0 15.625-8.89h.187v7.375h8.313z" id="HelveticaWorld-Regular-103"/></defs><g transform="matrix(.14 0 0 -.14 394.351 131.944)" fill="#1f77b4"><use xlink:href="#HelveticaWorld-Regular-110"/><use x="55.176" xlink:href="#HelveticaWorld-Regular-111"/><use x="111.084" xlink:href="#HelveticaWorld-Regular-32"/><use x="135.498" xlink:href="#HelveticaWorld-Regular-98"/><use x="191.992" xlink:href="#HelveticaWorld-Regular-97"/><use x="246.924" xlink:href="#HelveticaWorld-Regular-108"/><use x="268.945" xlink:href="#HelveticaWorld-Regular-97"/><use x="323.877" xlink:href="#HelveticaWorld-Regular-110"/><use x="379.053" xlink:href="#HelveticaWorld-Regular-99"/><use x="430.322" xlink:href="#HelveticaWorld-Regular-105"/><use x="452.344" xlink:href="#HelveticaWorld-Regular-110"/><use x="507.52" xlink:href="#HelveticaWorld-Regular-103"/></g></g><g id="text_15"><defs><path d="M58.016 50.203q-1.625 7.313-6.782 11.094-5.14 3.797-13.343 3.797-10.594 0-17.047-7.703-6.438-7.688-6.438-20.766 0-15.14 6.094-22.547 6.11-7.39 17.688-7.39 7.609 0 13.093 5.046 5.5 5.063 7.407 14.688h9.421Q66.22 12.594 57.625 5.344t-20.906-7.25q-14.703 0-23.516 10.11Q4.391 18.311 4.391 36.28q0 17.328 9.203 27.36 9.203 10.047 24.297 10.047 12.5 0 20.265-6.454 7.766-6.437 9.235-17.03z" id="HelveticaWorld-Regular-67"/><path d="M17.828 39.11h22.453q7.813 0 11.203 3.203 3.407 3.203 3.407 9.203 0 5.468-2.938 8.718-2.922 3.25-10.062 3.25H17.828zm0-39.11H8.11v71.781h33.203q11.563 0 17.516-4.937 5.969-4.922 5.969-14.36 0-6.187-2.39-10.343-2.391-4.157-7.516-6.844 4.39-1.61 6.343-4.516 1.953-2.906 2.25-9l.625-13.375q.094-3.328 1.047-4.672.953-1.343 2.672-2.125V0H55.812q-.921 2.688-1.312 8.156-.39 5.469-.39 9.86 0 2.203-.391 4.5-.39 2.297-1.719 4.14-1.313 1.86-3.86 3-2.53 1.157-6.828 1.157H17.828z" id="HelveticaWorld-Regular-82"/><path d="M53.328 71.781h10.875L37.891 0H27.688L1.515 71.781h10.796l20.5-61.187h.204z" id="HelveticaWorld-Regular-86"/><path d="M28.906 23.188H4.391v8.984h24.515z" id="HelveticaWorld-Regular-45"/><path d="M3.719 68.797h48.578v-7.719Q42.28 50.875 33.984 33.484 25.687 16.11 23.391 0h-9.672q1.469 13.281 9.719 30.531 8.25 17.266 18.953 29.672H3.719z" id="HelveticaWorld-Regular-55"/></defs><g transform="matrix(.14 0 0 -.14 394.351 44.103)" fill="#ff7f0e"><use xlink:href="#HelveticaWorld-Regular-67"/><use x="72.314" xlink:href="#HelveticaWorld-Regular-82"/><use x="139.826" xlink:href="#HelveticaWorld-Regular-86"/><use x="198.027" xlink:href="#HelveticaWorld-Regular-45"/><use x="231.328" xlink:href="#HelveticaWorld-Regular-50"/><use x="286.943" xlink:href="#HelveticaWorld-Regular-55"/></g></g><g id="text_16"><defs><path d="M5.906 64.594l10.5-3.797V71.78h6V60.797l10.5 3.797 2-5.516-10.781-3.36 6.688-9.234-4.938-3.375-6.484 9.375-6.5-9.375-4.875 3.375 6.687 9.235-10.797 3.36z" id="HelveticaWorld-Regular-42"/></defs><g transform="matrix(.14 0 0 -.14 394.351 17.25)" fill="#2ca02c"><use xlink:href="#HelveticaWorld-Regular-67"/><use x="72.314" xlink:href="#HelveticaWorld-Regular-82"/><use x="139.826" xlink:href="#HelveticaWorld-Regular-86"/><use x="198.027" xlink:href="#HelveticaWorld-Regular-45"/><use x="231.328" xlink:href="#HelveticaWorld-Regular-50"/><use x="286.943" xlink:href="#HelveticaWorld-Regular-55"/><use x="342.559" xlink:href="#HelveticaWorld-Regular-42"/></g></g></g></g><defs><clipPath id="pc801d52b10"><path d="M33.66 13.674h357.12v266.112H33.66z"/></clipPath></defs></svg>