<svg height="420.565" viewBox="0 0 505.928 315.424" width="674.571" xmlns="http://www.w3.org/2000/svg" xmlns:xlink="http://www.w3.org/1999/xlink"><defs><style>*{stroke-linecap:butt;stroke-linejoin:round}</style></defs><g id="figure_1"><path d="M0 315.424h505.928V0H0z" fill="none" id="patch_1"/><g id="axes_1"><path d="M32.964 291.175h372v-277.2h-372z" fill="none" id="patch_2"/><g id="matplotlib.axis_1"><g id="xtick_1"><g id="text_1"><defs><path d="M31.781 66.406q-7.61 0-11.453-7.5Q16.5 51.422 16.5 36.375q0-14.984 3.828-22.484 3.844-7.5 11.453-7.5 7.672 0 11.5 7.5 3.844 7.5 3.844 22.484 0 15.047-3.844 22.531-3.828 7.5-11.5 7.5zm0 7.813q12.266 0 18.735-9.703 6.468-9.688 6.468-28.141 0-18.406-6.468-28.11-6.47-9.687-18.735-9.687-12.25 0-18.718 9.688-6.47 9.703-6.47 28.109 0 18.453 6.47 28.14Q19.53 74.22 31.78 74.22z" id="DejaVuSans-48"/><path d="M10.688 12.406H21V0H10.687z" id="DejaVuSans-46"/></defs><g transform="matrix(.14 0 0 -.14 21.832 305.313)"><use xlink:href="#DejaVuSans-48"/><use x="63.623" xlink:href="#DejaVuSans-46"/><use x="95.41" xlink:href="#DejaVuSans-48"/></g></g></g><g id="xtick_2"><g id="text_2"><defs><path d="M10.797 72.906h38.719v-8.312H19.828v-17.86q2.14.735 4.281 1.094 2.157.36 4.313.36 12.203 0 19.328-6.688 7.14-6.688 7.14-18.11 0-11.765-7.328-18.296-7.328-6.516-20.656-6.516-4.593 0-9.36.781-4.75.782-9.827 2.344v9.922q4.39-2.39 9.078-3.563 4.687-1.171 9.906-1.171 8.453 0 13.375 4.437 4.938 4.438 4.938 12.063 0 7.609-4.938 12.047-4.922 4.453-13.375 4.453-3.953 0-7.89-.875-3.922-.875-8.016-2.735z" id="DejaVuSans-53"/></defs><g transform="matrix(.14 0 0 -.14 83.832 305.313)"><use xlink:href="#DejaVuSans-48"/><use x="63.623" xlink:href="#DejaVuSans-46"/><use x="95.41" xlink:href="#DejaVuSans-53"/></g></g></g><g id="xtick_3"><g id="text_3"><defs><path d="M12.406 8.297h16.11v55.625l-17.532-3.516v8.985l17.438 3.515h9.86V8.296H54.39V0H12.406z" id="DejaVuSans-49"/></defs><g transform="matrix(.14 0 0 -.14 145.832 305.313)"><use xlink:href="#DejaVuSans-49"/><use x="63.623" xlink:href="#DejaVuSans-46"/><use x="95.41" xlink:href="#DejaVuSans-48"/></g></g></g><g id="xtick_4"><g transform="matrix(.14 0 0 -.14 207.832 305.313)" id="text_4"><use xlink:href="#DejaVuSans-49"/><use x="63.623" xlink:href="#DejaVuSans-46"/><use x="95.41" xlink:href="#DejaVuSans-53"/></g></g><g id="xtick_5"><g id="text_5"><defs><path d="M19.188 8.297h34.421V0H7.33v8.297q5.609 5.812 15.296 15.594 9.703 9.797 12.188 12.64 4.734 5.313 6.609 9 1.89 3.688 1.89 7.25 0 5.813-4.078 9.469-4.078 3.672-10.625 3.672-4.64 0-9.797-1.61-5.14-1.609-11-4.89v9.969Q13.767 71.78 18.938 73q5.188 1.219 9.485 1.219 11.328 0 18.062-5.672 6.735-5.656 6.735-15.125 0-4.5-1.688-8.531-1.672-4.016-6.125-9.485-1.218-1.422-7.765-8.187-6.532-6.766-18.453-18.922z" id="DejaVuSans-50"/></defs><g transform="matrix(.14 0 0 -.14 269.832 305.313)"><use xlink:href="#DejaVuSans-50"/><use x="63.623" xlink:href="#DejaVuSans-46"/><use x="95.41" xlink:href="#DejaVuSans-48"/></g></g></g><g id="xtick_6"><g transform="matrix(.14 0 0 -.14 331.832 305.313)" id="text_6"><use xlink:href="#DejaVuSans-50"/><use x="63.623" xlink:href="#DejaVuSans-46"/><use x="95.41" xlink:href="#DejaVuSans-53"/></g></g><g id="xtick_7"><g id="text_7"><defs><path d="M40.578 39.313Q47.656 37.797 51.625 33q3.984-4.781 3.984-11.813 0-10.78-7.422-16.703-7.421-5.906-21.093-5.906-4.578 0-9.438.906-4.86.907-10.031 2.72v9.515q4.094-2.39 8.969-3.61 4.89-1.218 10.218-1.218 9.266 0 14.125 3.656 4.86 3.656 4.86 10.64 0 6.454-4.516 10.079-4.515 3.64-12.562 3.64h-8.5v8.11h8.89q7.266 0 11.125 2.906 3.86 2.906 3.86 8.375 0 5.61-3.985 8.61-3.968 3.015-11.39 3.015-4.063 0-8.703-.89-4.641-.876-10.203-2.72v8.782q5.624 1.562 10.53 2.344 4.907.78 9.25.78 11.235 0 17.766-5.109 6.547-5.093 6.547-13.78 0-6.063-3.468-10.235-3.47-4.172-9.86-5.782z" id="DejaVuSans-51"/></defs><g transform="matrix(.14 0 0 -.14 393.832 305.313)"><use xlink:href="#DejaVuSans-51"/><use x="63.623" xlink:href="#DejaVuSans-46"/><use x="95.41" xlink:href="#DejaVuSans-48"/></g></g></g></g><g id="matplotlib.axis_2"><g id="ytick_1"><path clip-path="url(#pdd38867248)" d="M32.964 254.178h372" fill="none" stroke="#000" stroke-dasharray="5,5" stroke-opacity=".3" stroke-width=".5" id="line2d_8"/><g transform="matrix(.14 0 0 -.14 7.2 259.497)" id="text_8"><use xlink:href="#DejaVuSans-48"/><use x="63.623" xlink:href="#DejaVuSans-46"/><use x="95.41" xlink:href="#DejaVuSans-50"/></g></g><g id="ytick_2"><path clip-path="url(#pdd38867248)" d="M32.964 210.349h372" fill="none" stroke="#000" stroke-dasharray="5,5" stroke-opacity=".3" stroke-width=".5" id="line2d_10"/><g id="text_9"><defs><path d="M37.797 64.313L12.89 25.39h24.906zm-2.594 8.593H47.61V25.391h10.407v-8.203H47.609V0h-9.812v17.188H4.89v9.515z" id="DejaVuSans-52"/></defs><g transform="matrix(.14 0 0 -.14 7.2 215.668)"><use xlink:href="#DejaVuSans-48"/><use x="63.623" xlink:href="#DejaVuSans-46"/><use x="95.41" xlink:href="#DejaVuSans-52"/></g></g></g><g id="ytick_3"><path clip-path="url(#pdd38867248)" d="M32.964 166.52h372" fill="none" stroke="#000" stroke-dasharray="5,5" stroke-opacity=".3" stroke-width=".5" id="line2d_12"/><g id="text_10"><defs><path d="M33.016 40.375q-6.641 0-10.532-4.547-3.875-4.531-3.875-12.437 0-7.86 3.875-12.438 3.891-4.562 10.532-4.562 6.64 0 10.515 4.562 3.875 4.578 3.875 12.438 0 7.906-3.875 12.437-3.875 4.547-10.515 4.547zm19.578 30.922v-8.984q-3.719 1.75-7.5 2.671-3.782.938-7.5.938-9.766 0-14.922-6.594-5.14-6.594-5.875-19.922 2.875 4.25 7.219 6.516 4.359 2.266 9.578 2.266 10.984 0 17.36-6.672 6.374-6.657 6.374-18.125 0-11.235-6.64-18.032-6.641-6.78-17.672-6.78-12.657 0-19.344 9.687-6.688 9.703-6.688 28.109 0 17.281 8.204 27.563 8.203 10.28 22.015 10.28 3.719 0 7.5-.734t7.89-2.187z" id="DejaVuSans-54"/></defs><g transform="matrix(.14 0 0 -.14 7.2 171.838)"><use xlink:href="#DejaVuSans-48"/><use x="63.623" xlink:href="#DejaVuSans-46"/><use x="95.41" xlink:href="#DejaVuSans-54"/></g></g></g><g id="ytick_4"><path clip-path="url(#pdd38867248)" d="M32.964 122.69h372" fill="none" stroke="#000" stroke-dasharray="5,5" stroke-opacity=".3" stroke-width=".5" id="line2d_14"/><g id="text_11"><defs><path d="M31.781 34.625q-7.031 0-11.062-3.766-4.016-3.765-4.016-10.343 0-6.594 4.016-10.36Q24.75 6.391 31.78 6.391q7.032 0 11.078 3.78 4.063 3.798 4.063 10.345 0 6.578-4.031 10.343-4.016 3.766-11.11 3.766zm-9.86 4.188q-6.343 1.562-9.89 5.906Q8.5 49.079 8.5 55.329q0 8.733 6.219 13.812 6.234 5.078 17.062 5.078 10.89 0 17.094-5.078 6.203-5.079 6.203-13.813 0-6.25-3.547-10.61-3.531-4.343-9.828-5.906 7.125-1.656 11.094-6.5 3.984-4.828 3.984-11.796 0-10.61-6.468-16.282-6.47-5.656-18.532-5.656-12.047 0-18.531 5.656-6.469 5.672-6.469 16.282 0 6.968 4 11.797 4.016 4.843 11.14 6.5zM18.314 54.39q0-5.657 3.53-8.828 3.548-3.172 9.938-3.172 6.36 0 9.938 3.172 3.593 3.171 3.593 8.828 0 5.672-3.593 8.843-3.578 3.172-9.938 3.172-6.39 0-9.937-3.172-3.532-3.172-3.532-8.843z" id="DejaVuSans-56"/></defs><g transform="matrix(.14 0 0 -.14 7.2 128.009)"><use xlink:href="#DejaVuSans-48"/><use x="63.623" xlink:href="#DejaVuSans-46"/><use x="95.41" xlink:href="#DejaVuSans-56"/></g></g></g><g id="ytick_5"><path clip-path="url(#pdd38867248)" d="M32.964 78.86h372" fill="none" stroke="#000" stroke-dasharray="5,5" stroke-opacity=".3" stroke-width=".5" id="line2d_16"/><g transform="matrix(.14 0 0 -.14 7.2 84.18)" id="text_12"><use xlink:href="#DejaVuSans-49"/><use x="63.623" xlink:href="#DejaVuSans-46"/><use x="95.41" xlink:href="#DejaVuSans-48"/></g></g><g id="ytick_6"><path clip-path="url(#pdd38867248)" d="M32.964 35.031h372" fill="none" stroke="#000" stroke-dasharray="5,5" stroke-opacity=".3" stroke-width=".5" id="line2d_18"/><g transform="matrix(.14 0 0 -.14 7.2 40.35)" id="text_13"><use xlink:href="#DejaVuSans-49"/><use x="63.623" xlink:href="#DejaVuSans-46"/><use x="95.41" xlink:href="#DejaVuSans-50"/></g></g></g><path clip-path="url(#pdd38867248)" d="M32.964 285.98l3.758-10.091 3.758-3.613 3.757-4.472 3.758-2.772 3.757-10.014 3.758-.315 3.757-14.59 3.758-5.984 3.758 8.516 3.757-12.952 3.758 1.937 3.757-4.51 3.758-11.33 3.757 15.383 3.758-3.558 3.758-1.609 3.757-20.755 3.758-1.643 3.757-4.74 3.758-5.004 3.757 1.406 3.758 4.966 3.758-9.34 3.757 12.247 3.758-13.619 3.757 8.769 3.758-19.604 3.757 7.29 3.758.437 3.758 1.438 3.757-12.963 3.758 5.232 3.757-4.146 3.758 10.41 3.758-14.711 3.757-1.42 3.758-1.603 3.757-8.617 3.758 4.325 3.757 5.687 3.758-3.037 3.758-7.014 3.757 12.7 3.758-14.528 3.757-1.29 3.758 8.913 3.757.641 3.758-5.203 3.758-2.147 3.757-5.587 3.758 1.846 3.757-13.06 3.758 18.434 3.757-3.308 3.758.098 3.758-11.701 3.757 7.859 3.758-5.552 3.757 4 3.758 1.027 3.757.237 3.758-12.774 3.758 10.562 3.757-2.056 3.758-4.534 3.757-10.656 3.758 15.133 3.758-16.951 3.757 15.555 3.758-19.981 3.757 10.453 3.758-11.797 3.757 7.5 3.758-3.583 3.758 14.716 3.757-5.953 3.758 2.96 3.757-4.447 3.758 3.306 3.757-4.938 3.758-2.672 3.758 7.121 3.757-14.311 3.758 2.225 3.757 6.077 3.758-6.165 3.757 8.901 3.758-11.06 3.758-8.234 3.757 12.902 3.758-8.12 3.757 11.272 3.758-13.269 3.757 8.904 3.758 1.883 3.758-9.277 3.757 11.982 3.758-18.15 3.757 17.644" fill="none" stroke="#1f77b4" stroke-linecap="square" stroke-width="1.5" id="line2d_20"/><path clip-path="url(#pdd38867248)" d="M32.964 283.153l3.758-.73 3.758-19.311 3.757-13.584 3.758 7.49 3.757-14.89 3.758-7.667 3.757-6.52 3.758 1.037 3.758-22.29 3.757 5.074 3.758-14.483 3.757-2.26 3.758 3.571 3.757-16.333 3.758 4.336 3.758-15.232 3.757 2.143 3.758-10.838 3.757.056 3.758-4.654 3.757 1.117 3.758-13.618 3.758 3.317 3.757 1.426 3.758-7.281 3.757 9.698 3.758-9.253 3.757-10.822 3.758 5.242 3.758-9.964 3.757 1.457 3.758 3.82 3.757-6.096 3.758-8.407 3.758-2.84 3.757-1.949 3.758-3.974 3.757-2.159 3.758 2.714 3.757-12.257 3.758 9.585 3.758-3.452 3.757-11.897 3.758.025 3.757.436 3.758 11.468 3.757-19.67 3.758 2.824 3.758-7.87 3.757 17.02 3.758-17.306 3.757 13.945 3.758-11.413 3.757 9.327 3.758-17.288 3.758-.493 3.757 3.866 3.758 2.224 3.757 6.112 3.758-15.036 3.757 4.104 3.758-7.1 3.758-4.352 3.757-3.557 3.758 1.483 3.757 17.38 3.758-8.728 3.758-9.183 3.757 11.184 3.758-8.69 3.757 9.215 3.758-4.186 3.757 3.003 3.758-17.945 3.758 11.548 3.757-3.582 3.758-13.675 3.757 4.013 3.758 13.866 3.757-3.768 3.758-10.853 3.758.143 3.757 6.623 3.758-16.059 3.757 6.232 3.758.945 3.757-1.95 3.758-3.82 3.758 8.43 3.757-2.614 3.758 3.417 3.757-.181 3.758-17.304 3.757 3.81 3.758 4.792 3.758 5.108 3.757-1.238 3.758 3.666 3.757-8.876" fill="none" stroke="#ff7f0e" stroke-linecap="square" stroke-width="1.5" id="line2d_21"/><path clip-path="url(#pdd38867248)" d="M32.964 291.175l3.758-18.74 3.758-2.742 3.757-4.841 3.758-5.292 3.757-9.162 3.758-21.223 3.757-2.471 3.758-8.872 3.758-14.61 3.757-8.46 3.758 10.834 3.757-15.622 3.758 3.17 3.757-.034 3.758-21.296 3.758 4.687 3.757-6.113 3.758-9.027 3.757-9.682 3.758.23 3.757-9.383 3.758 9.233 3.758-15.251 3.757 9.796 3.758-20.312 3.757 2.432 3.758 7.075 3.757-19.2 3.758 1.685 3.758 7.49 3.757-1.98 3.758-9.463 3.757 8.097 3.758-6.601 3.758-7.3 3.757-1.36 3.758-4.354 3.757 1.746 3.758-9.038 3.757-8.273 3.758 14.213 3.758-10.847 3.757 6.414 3.758-14.793 3.757 5.103 3.758-5.589 3.757 6.544 3.758-.944 3.758-9.263 3.757 1.202 3.758-14.475 3.757 2.216 3.758-1.217 3.757-4.945 3.758 16.465 3.758-11.75 3.757-2.152 3.758-9.685 3.757 13.296 3.758-.227 3.757 1.756 3.758.542 3.758-21.28 3.757 4.448 3.758-3.743 3.757 9.84 3.758-7.846 3.758 10.304 3.757-10.364 3.758-11.88 3.757 1.132 3.758 10.738 3.757-14.701 3.758 14.974 3.758-16.727 3.757-.81 3.758 2.152 3.757 2.75 3.758-6.274 3.757 11.824 3.758-13.081 3.758 4.18 3.757 12.384 3.758-8.172 3.757 3.525 3.758-19.094 3.757 10.223 3.758-1.214 3.758-3.898 3.757 5.166 3.758 4.318 3.757-15.762 3.758 13.12 3.757-7.767 3.758 5.578 3.758 2.07 3.757-17.44 3.758-3.106 3.757-.404" fill="none" stroke="#2ca02c" stroke-linecap="square" stroke-width="1.5" id="line2d_22"/><g id="text_14"><defs><path d="M54.89 33.016V0h-8.984v32.719q0 7.765-3.031 11.61-3.031 3.858-9.078 3.858-7.281 0-11.484-4.64-4.204-4.625-4.204-12.64V0H9.08v54.688h9.03v-8.5q3.235 4.937 7.594 7.374Q30.078 56 35.797 56q9.422 0 14.25-5.828 4.844-5.828 4.844-17.156z" id="DejaVuSans-110"/><path d="M30.61 48.39q-7.22 0-11.422-5.64-4.204-5.64-4.204-15.453 0-9.813 4.172-15.453 4.188-5.64 11.453-5.64 7.188 0 11.375 5.655 4.203 5.672 4.203 15.438 0 9.719-4.203 15.406-4.187 5.688-11.375 5.688zm0 7.61q11.718 0 18.406-7.625 6.703-7.61 6.703-21.078 0-13.422-6.703-21.078-6.688-7.64-18.407-7.64-11.765 0-18.437 7.64-6.656 7.656-6.656 21.078 0 13.469 6.656 21.078Q18.844 56 30.609 56z" id="DejaVuSans-111"/><path d="M48.688 27.297q0 9.906-4.079 15.547-4.078 5.64-11.203 5.64-7.14 0-11.218-5.64-4.079-5.64-4.079-15.547 0-9.906 4.078-15.547 4.079-5.64 11.22-5.64 7.124 0 11.202 5.64t4.078 15.547zM18.108 46.39q2.844 4.875 7.157 7.234Q29.594 56 35.594 56q9.968 0 16.187-7.906 6.235-7.907 6.235-20.797T51.78 6.484q-6.218-7.906-16.187-7.906-6 0-10.328 2.375-4.313 2.375-7.157 7.25V0H9.08v75.984h9.03z" id="DejaVuSans-98"/><path d="M34.281 27.484q-10.89 0-15.093-2.484-4.204-2.484-4.204-8.5 0-4.781 3.157-7.594 3.156-2.797 8.562-2.797 7.485 0 12 5.297 4.516 5.297 4.516 14.078v2zm17.922 3.72V0H43.22v8.297Q40.14 3.328 35.547.953q-4.594-2.375-11.234-2.375-8.391 0-13.36 4.719Q6 8.016 6 15.922q0 9.219 6.172 13.906 6.187 4.688 18.437 4.688h12.61v.89q0 6.203-4.078 9.594-4.078 3.39-11.453 3.39-4.688 0-9.141-1.124-4.438-1.125-8.531-3.375v8.312q4.921 1.906 9.562 2.844 4.64.953 9.031.953 11.875 0 17.735-6.156 5.86-6.14 5.86-18.64z" id="DejaVuSans-97"/><path d="M9.422 75.984h8.984V0H9.422z" id="DejaVuSans-108"/><path d="M48.781 52.594v-8.407q-3.812 2.11-7.64 3.157-3.828 1.047-7.735 1.047-8.75 0-13.593-5.547-4.829-5.532-4.829-15.547 0-10.016 4.829-15.563 4.843-5.53 13.593-5.53 3.907 0 7.735 1.046 3.828 1.047 7.64 3.156V2.094Q45.016.344 40.984-.531q-4.015-.89-8.562-.89-12.36 0-19.64 7.765-7.266 7.765-7.266 20.953 0 13.375 7.343 21.031Q20.22 56 33.016 56q4.14 0 8.093-.86 3.953-.843 7.672-2.546z" id="DejaVuSans-99"/><path d="M9.422 54.688h8.984V0H9.422zm0 21.296h8.984v-11.39H9.422z" id="DejaVuSans-105"/><path d="M45.406 27.984q0 9.766-4.031 15.125-4.016 5.375-11.297 5.375-7.219 0-11.25-5.375-4.031-5.359-4.031-15.125 0-9.718 4.031-15.093t11.25-5.375q7.281 0 11.297 5.375 4.031 5.375 4.031 15.093zm8.985-21.203q0-13.953-6.203-20.765Q42-20.797 29.203-20.797q-4.734 0-8.937.703-4.203.703-8.157 2.172v8.735q3.954-2.141 7.813-3.157 3.86-1.031 7.86-1.031 8.843 0 13.234 4.61 4.39 4.609 4.39 13.937v4.453q-2.781-4.844-7.125-7.234Q33.938 0 27.875 0 17.828 0 11.672 7.656q-6.156 7.672-6.156 20.328 0 12.688 6.156 20.344Q17.828 56 27.875 56q6.063 0 10.406-2.39 4.344-2.391 7.125-7.22v8.297h8.985z" id="DejaVuSans-103"/></defs><g transform="matrix(.14 0 0 -.14 408.684 137.408)" fill="#1f77b4"><use xlink:href="#DejaVuSans-110"/><use x="63.379" xlink:href="#DejaVuSans-111"/><use x="124.561" xlink:href="#DejaVuSans-32"/><use x="156.348" xlink:href="#DejaVuSans-98"/><use x="219.824" xlink:href="#DejaVuSans-97"/><use x="281.104" xlink:href="#DejaVuSans-108"/><use x="308.887" xlink:href="#DejaVuSans-97"/><use x="370.166" xlink:href="#DejaVuSans-110"/><use x="433.545" xlink:href="#DejaVuSans-99"/><use x="488.525" xlink:href="#DejaVuSans-105"/><use x="516.309" xlink:href="#DejaVuSans-110"/><use x="579.688" xlink:href="#DejaVuSans-103"/></g></g><g id="text_15"><defs><path d="M64.406 67.281v-10.39q-4.984 4.64-10.625 6.922-5.64 2.296-11.984 2.296-12.5 0-19.14-7.64-6.641-7.64-6.641-22.094 0-14.406 6.64-22.047 6.64-7.64 19.14-7.64 6.345 0 11.985 2.296 5.64 2.297 10.625 6.938V5.609Q59.234 2.094 53.437.33q-5.78-1.75-12.218-1.75-16.563 0-26.094 10.124-9.516 10.14-9.516 27.672 0 17.578 9.516 27.703 9.531 10.14 26.094 10.14 6.531 0 12.312-1.734 5.797-1.734 10.875-5.203z" id="DejaVuSans-67"/><path d="M44.39 34.188q3.172-1.079 6.172-4.594 3-3.516 6.032-9.672L66.609 0H56l-9.313 18.703q-3.624 7.328-7.015 9.719-3.39 2.39-9.25 2.39h-10.75V0h-9.86v72.906h22.266q12.5 0 18.656-5.234 6.157-5.219 6.157-15.766 0-6.89-3.203-11.437-3.204-4.532-9.297-6.282zM19.673 64.797V38.922h12.406q7.125 0 10.766 3.297 3.64 3.297 3.64 9.687 0 6.39-3.64 9.64-3.64 3.25-10.766 3.25z" id="DejaVuSans-82"/><path d="M28.61 0L.78 72.906h10.297l23.11-61.375 23.14 61.375h10.25L39.797 0z" id="DejaVuSans-86"/><path d="M4.89 31.39h26.313v-8H4.891z" id="DejaVuSans-45"/><path d="M8.203 72.906h46.875v-4.203L28.61 0H18.312L43.22 64.594H8.203z" id="DejaVuSans-55"/></defs><g transform="matrix(.14 0 0 -.14 408.684 45.81)" fill="#ff7f0e"><use xlink:href="#DejaVuSans-67"/><use x="69.824" xlink:href="#DejaVuSans-82"/><use x="133.807" xlink:href="#DejaVuSans-86"/><use x="196.34" xlink:href="#DejaVuSans-45"/><use x="232.424" xlink:href="#DejaVuSans-50"/><use x="296.047" xlink:href="#DejaVuSans-55"/></g></g><g id="text_16"><defs><path d="M47.016 60.89L29.5 51.423l17.516-9.531-2.828-4.782-16.407 9.907V28.609H22.22v18.407L5.812 37.109l-2.828 4.782 17.532 9.53-17.532 9.47 2.829 4.828 16.406-9.906v18.406h5.562V55.813l16.407 9.906z" id="DejaVuSans-42"/></defs><g transform="matrix(.14 0 0 -.14 408.684 17.838)" fill="#2ca02c"><use xlink:href="#DejaVuSans-67"/><use x="69.824" xlink:href="#DejaVuSans-82"/><use x="133.807" xlink:href="#DejaVuSans-86"/><use x="202.215" xlink:href="#DejaVuSans-50"/><use x="265.838" xlink:href="#DejaVuSans-55"/><use x="329.461" xlink:href="#DejaVuSans-42"/></g></g></g></g><defs><clipPath id="pdd38867248"><path d="M32.964 13.975h372v277.2h-372z"/></clipPath></defs></svg>