<svg xmlns="http://www.w3.org/2000/svg" width="176.245" height="56.331" viewBox="0 0 46.631 14.904"><defs><path d="M11.103 13.893h197.096v120.971H11.103z" id="a"/></defs><g transform="translate(-11.643 -5.343)" stroke-width=".265" stroke="#000" fill="none" word-spacing="0" letter-spacing="0" font-family="Commando" font-size="19.756" font-weight="700" aria-label="dufte" style="line-height:0%;-inkscape-font-specification:'Commando Bold';white-space:pre;shape-inside:url(#a)"><path stroke="#969696" fill="#969696" font-family="'Helvetica LT Std'" d="M21.989 5.653h-2.766v5.037h-.04c-.434-.671-1.264-1.64-3.042-1.64-2.311 0-4.366 1.779-4.366 5.414 0 2.884 1.304 5.65 4.425 5.65 1.146 0 2.371-.415 3.043-1.6h.04v1.323h2.706zM14.62 14.66c0-1.66.593-3.22 2.35-3.22 1.897 0 2.372 1.7 2.372 3.378 0 1.561-.692 3.023-2.45 3.023-1.778 0-2.272-1.936-2.272-3.18zm19.321-5.333h-2.766v6.065c0 1.877-1.225 2.39-2.133 2.39-.85 0-1.798-.315-1.798-1.935v-6.52h-2.766v6.915c0 2.687 1.501 3.872 3.576 3.872 1.462 0 2.568-.632 3.2-1.758h.04v1.481h2.647zm5.789 1.976h1.797V9.327H39.73v-.415c0-.869.02-1.165.968-1.165h.77V5.515c-.236-.02-.612-.04-1.422-.04-1.896 0-3.081.83-3.081 3.003v.85h-1.522v1.975h1.522v8.534h2.765z" style="-inkscape-font-specification:'Helvetica LT Std Bold'"/><path stroke="#969696" fill="#969696" font-family="'Helvetica LT Std'" d="M45.518 6.483h-2.766v2.844h-1.423v1.976h1.423v6.381c0 1.363.434 2.272 2.825 2.272h.355c.435 0 .87-.02 1.304-.04v-2.094c-.197.02-.395.04-.573.04-1.126 0-1.145-.237-1.145-.85v-5.71h1.718V9.328h-1.718z" style="-inkscape-font-specification:'Helvetica LT Std Bold'"/><path stroke="#1f77b4" fill="#1f77b4" d="M55.178 16.755c-.217.751-1.007 1.146-1.778 1.146-2.232 0-2.39-1.778-2.47-2.568h7.211v-.494c0-4.8-2.864-5.788-4.938-5.788-4.604 0-5.038 4.05-5.038 5.314 0 4.327 2.272 5.749 5.235 5.749 1.798 0 3.892-.83 4.623-3.359zm-4.168-3.22c.158-1.383.85-2.212 2.153-2.212.889 0 1.976.513 2.134 2.212z"/></g></svg>