<svg xmlns="http://www.w3.org/2000/svg" width="116.501" height="70.189" viewBox="0 0 30.824 18.57"><defs><path d="M11.103 13.893h197.096v120.971H11.103z" id="a"/></defs><g style="line-height:0%;-inkscape-font-specification:'Commando Bold';white-space:pre;shape-inside:url(#a)" transform="translate(-11.563 -7.589)" aria-label="dufte" font-weight="400" font-size="19.756" font-family="cookie" letter-spacing="0" word-spacing="0" fill="#999" stroke="none" stroke-width="0" font-style="italic"><path style="-inkscape-font-specification:'cookie Italic'" d="M16.714 19.936q-.671 0-.988-.296-.118-.158 0-.83.139-.672.415-1.758-.81 1.422-1.52 2.153-.692.731-1.542.731-.83 0-1.264-.73-.435-.732-.119-2.332.316-1.6 1.462-2.825t2.608-1.225q.711 0 1.363.553 1.087-3.852 1.442-4.346.178-.217.692-.632.533-.415.83-.415.296 0 .118.928-.217 1.087-.573 1.877l-1.205 2.588q-.691 2.134-1.264 5.018-.119.534 0 .534.355-.02 1.106-.83.77-.81 1.6-2.094.85-1.304.968-1.304.139 0 .099.158-.099.553-.909 1.758-2.232 3.32-3.319 3.32zm-1.205-6.4q-.533 0-1.245.849-.691.85-.928 1.975-.217 1.107-.08 1.818.159.711.594.711.889 0 2.746-3.556.316-1.086.355-1.284-.474-.514-1.442-.514z"/><path style="-inkscape-font-specification:'cookie Italic'" d="M19.223 18.119l.573-2.213q.415-2.114.652-2.311.237-.198.81-.573.593-.395.81-.395.237 0 .277.079.04.079 0 .316-.178.85-.712 1.718-.671 1.818-.908 2.984-.218 1.165.158 1.165.454 0 1.225-.79.77-.79 1.679-2.351.573-1.976.711-2.134.158-.158.672-.573.513-.414.79-.414.296 0 .138.75-.04.198-.257.77-.217.574-.414.83-.316.554-.89 3.418-.118.534 0 .534.336-.02 1.087-.83.77-.83 1.6-2.114.85-1.284.968-1.284.139 0 .1.158-.1.553-.91 1.758-2.232 3.32-3.299 3.32-.77 0-1.106-.317-.099-.138.04-.85.138-.71.375-1.58-.909 1.344-1.68 2.055-.77.691-1.56.691-.77 0-.949-.415-.177-.415.02-1.402z"/><path style="-inkscape-font-specification:'cookie Italic'" d="M29.872 15.669q1.126-.257 1.916-.652.81-.395.85-.395.118 0 .079.197-.04.198-.494.494-.949.613-2.292 1.047.118 1.956-.316 4.15-.356 1.836-1.106 3.516-.435.948-1.067 1.54-.613.593-1.344.593-.632 0-.75-.553-.178-.652-.1-1.244.14-.929.554-3.023.415-2.094 1.324-5.058-.613-.513-.475-1.244.159-.751.554-1.146.395-.415.908-.534.613-1.718 1.126-2.963.514-1.245 1.225-2.015.712-.79 1.265-.79.632 0 .355 1.402-.454 2.213-2.647 4.979.296.593.435 1.699zm-1.58.988q-.653 2.43-1.285 5.57-.632 3.162-.296 3.162.592 0 1.284-1.56.711-1.542 1.086-3.478.396-1.916.356-3.852-.632.158-1.146.158zm.888-2.964q.77-.948 1.502-2.232.73-1.304.908-2.173.178-.87 0-.87-.316 0-.987 1.443-.652 1.442-1.423 3.832zm-.158.79l-.158.198-.296 1.008q.237.079.434.079.218 0 .356-.02-.099-.77-.336-1.264zm-1.086-.632q-.316.1-.396.455-.079.355.04.612.217-.711.356-1.067z"/><path style="-inkscape-font-specification:'cookie Italic'" d="M35.66 16.617q-2.232 3.32-3.319 3.32-1.067 0-1.205-.258-.138-.256.138-1.699.297-1.442 1.126-4.168-.948-.198-.889-.81.06-.316.475-.316.414 0 .71.158.455-1.423.989-2.885.138-.375.513-.71.395-.337.692-.337.257 0 .079.81-.06.376-.968 3.458.553-.1 1.244-.395.712-.297.83-.297.356 0 .316.218-.02.197-.85.553-.81.336-1.718.513-.81 2.885-1.106 4.366-.159.79.079.79.355-.02 1.106-.83.77-.81 1.6-2.093.85-1.304.968-1.304.138 0 .099.158-.099.553-.909 1.758z"/><path style="-inkscape-font-specification:'cookie Italic'" d="M36.944 19.936q-1.106 0-1.6-.83-.474-.849-.257-1.916.435-2.153 1.561-3.26 1.126-1.106 2.568-1.106.672 0 1.028.375.375.356.237.988-.237 1.186-1.403 1.996-1.146.79-2.588.83-.08.77.237 1.343.336.553.929.553.592 0 1.126-.277.533-.276 1.027-.79 1.047-1.086 1.916-2.47.237-.355.356-.513.118-.158.217-.158.119 0 .08.158-.198.988-1.799 2.963-1.718 2.114-3.635 2.114zm-.375-3.398q1.205-.197 1.857-.75.672-.554.85-1.443.177-.889-.396-.889-.691 0-1.363.968-.671.949-.948 2.114z"/></g></svg>